<?xml version="1.0" encoding="UTF-8" standalone="no"?>
<!-- Created with Inkscape (http://www.inkscape.org/) -->

<svg
   width="173.82637mm"
   height="93.84774mm"
   viewBox="0 0 656.98158 354.70013"
   version="1.1"
   id="svg1"
   xml:space="preserve"
   xmlns:inkscape="http://www.inkscape.org/namespaces/inkscape"
   xmlns:sodipodi="http://sodipodi.sourceforge.net/DTD/sodipodi-0.dtd"
   xmlns="http://www.w3.org/2000/svg"
   xmlns:svg="http://www.w3.org/2000/svg"><sodipodi:namedview
     id="namedview1"
     pagecolor="#ffffff"
     bordercolor="#000000"
     borderopacity="0.25"
     inkscape:showpageshadow="2"
     inkscape:pageopacity="0.0"
     inkscape:pagecheckerboard="0"
     inkscape:deskcolor="#d1d1d1"
     inkscape:document-units="mm" /><defs
     id="defs1" /><g
     inkscape:label="Layer 1"
     inkscape:groupmode="layer"
     id="layer1"
     transform="translate(-35.578084,-110.18256)"><rect
       width="786.49182"
       height="1310.8197"
       x="-43.177052"
       y="-339.41965"
       id="0"
       fill="none"
       style="stroke-width:0.65541" /><polyline
       points="760.2 808.1 773.1 792.8 788.1 792.8"
       fill="none"
       stroke="#14517c"
       id="polyline1"
       transform="matrix(0.6156265,0,0,0.6156265,-81.604422,-317.76461)"
       style="stroke-width:2.15097;stroke-dasharray:none"
       inkscape:export-filename="3rd_forest_pie.pdf"
       inkscape:export-xdpi="96"
       inkscape:export-ydpi="96" /><polyline
       points="775.7 1051.2 859.2 1075.5 874.2 1075.5"
       fill="none"
       stroke="#2f7fc1"
       id="polyline2"
       transform="matrix(0.6156265,0,0,0.6156265,-81.604422,-317.76461)"
       style="stroke-width:2.15097;stroke-dasharray:none" /><polyline
       points="668 1150.9 710.9 1246.2 725.9 1246.2"
       fill="none"
       stroke="#e7effa"
       id="polyline3"
       transform="matrix(0.6156265,0,0,0.6156265,-81.604422,-317.76461)"
       style="stroke-width:2.15097;stroke-dasharray:none" /><polyline
       points="568.1 1124.3 532.9 1261.5 517.9 1261.5"
       fill="none"
       stroke="#96c37d"
       id="polyline4"
       transform="matrix(0.6156265,0,0,0.6156265,-81.604422,-317.76461)"
       style="stroke-width:2.15097;stroke-dasharray:none" /><polyline
       points="517.6 1086 417.2 1195 402.2 1195"
       fill="none"
       stroke="#f3d266"
       id="polyline5"
       transform="matrix(0.6156265,0,0,0.6156265,-81.604422,-317.76461)"
       style="stroke-width:2.15097;stroke-dasharray:none" /><polyline
       points="490.5 1038.4 350 1089.3 335 1089.3"
       fill="none"
       stroke="#d8383a"
       id="polyline6"
       transform="matrix(0.6156265,0,0,0.6156265,-81.604422,-317.76461)"
       style="stroke-width:2.15097;stroke-dasharray:none" /><polyline
       points="488.8 988 336.6 971 321.6 971"
       fill="none"
       stroke="#f7e1ed"
       id="polyline7"
       transform="matrix(0.6156265,0,0,0.6156265,-81.604422,-317.76461)"
       style="stroke-width:2.15097;stroke-dasharray:none" /><polyline
       points="507.4 947 370.5 865.8 355.5 865.8"
       fill="none"
       stroke="#f8f3f9"
       id="polyline8"
       transform="matrix(0.6156265,0,0,0.6156265,-81.604422,-317.76461)"
       style="stroke-width:2.15097;stroke-dasharray:none" /><polyline
       points="537 921.7 435.2 789.7 420.2 789.7"
       fill="none"
       stroke="#c497b2"
       id="polyline9"
       transform="matrix(0.6156265,0,0,0.6156265,-81.604422,-317.76461)"
       style="stroke-width:2.15097;stroke-dasharray:none" /><polyline
       points="567.8 911.3 508.4 747.4 493.4 747.4"
       fill="none"
       stroke="#a9b8c6"
       id="polyline10"
       transform="matrix(0.6156265,0,0,0.6156265,-81.604422,-317.76461)"
       style="stroke-width:2.15097;stroke-dasharray:none" /><path
       id="polyline11"
       style="fill:none;stroke:#f0988c;stroke-width:1.3242"
       d="m 283.15428,250.15084 -22.56715,-133.79017 -10.52887,-0.0234"
       sodipodi:nodetypes="ccc" /><path
       d="m 287.77148,150.88309 a 6.7718915,6.7718915 0 0 1 7.08359,-6.76475 153.90663,153.90663 0 0 1 142.93147,119.35256 6.7718915,6.7718915 0 0 1 -5.39288,8.17656 l -108.27682,19.62642 a 6.7718915,6.7718915 0 0 1 -7.54408,-4.27374 30.781325,30.781325 0 0 0 -23.25055,-19.41495 6.7718915,6.7718915 0 0 1 -5.55073,-6.66089 z"
       fill="#14517c"
       id="path11"
       style="stroke-width:0.615627" /><path
       d="m 391.74193,279.01603 a 6.7718915,6.7718915 0 0 1 7.93468,5.88415 112.65331,112.65331 0 0 1 -24.44714,83.96782 6.7718915,6.7718915 0 0 1 -9.85322,0.7052 l -50.47614,-46.64294 a 6.7718915,6.7718915 0 0 1 -1.12494,-8.59722 30.781325,30.781325 0 0 0 4.77757,-16.4094 6.7718915,6.7718915 0 0 1 5.5641,-6.64976 z"
       fill="#2f7fc1"
       id="path12"
       style="stroke-width:0.615627" /><path
       d="m 357.43399,362.23408 a 6.7718915,6.7718915 0 0 1 0.0378,9.91195 101.86396,101.86396 0 0 1 -60.26171,27.14162 6.7718915,6.7718915 0 0 1 -7.39779,-6.59705 l -1.24603,-57.89968 a 6.7718915,6.7718915 0 0 1 5.40612,-6.77879 30.781325,30.781325 0 0 0 12.26857,-5.52567 6.7718915,6.7718915 0 0 1 8.65916,0.4438 z"
       fill="#e7effa"
       id="path13"
       style="stroke-width:0.615627" /><path
       d="m 289.31904,369.77125 a 6.7718915,6.7718915 0 0 1 -7.2599,6.89988 79.01597,79.01597 0 0 1 -27.20736,-6.97739 6.7718915,6.7718915 0 0 1 -3.0433,-9.54208 l 17.49421,-30.30089 a 6.7718915,6.7718915 0 0 1 8.13753,-2.99312 30.781325,30.781325 0 0 0 5.43328,1.39335 6.7718915,6.7718915 0 0 1 5.69276,6.53992 z"
       fill="#96c37d"
       id="path14"
       style="stroke-width:0.615627" /><path
       d="m 254.67823,355.18115 a 6.7718915,6.7718915 0 0 1 -9.82996,2.10359 73.304003,73.304003 0 0 1 -14.59798,-13.98291 6.7718915,6.7718915 0 0 1 1.67875,-9.91127 l 24.67777,-15.70076 a 6.7718915,6.7718915 0 0 1 8.59944,1.1077 30.781325,30.781325 0 0 0 2.61979,2.50941 6.7718915,6.7718915 0 0 1 1.47665,8.54386 z"
       fill="#f3d266"
       id="path15"
       style="stroke-width:0.615627" /><path
       d="m 233.54414,332.36295 a 6.7718915,6.7718915 0 0 1 -9.69808,-2.69706 71.399992,71.399992 0 0 1 -5.8676,-16.74097 6.7718915,6.7718915 0 0 1 5.89234,-8.16136 l 27.17665,-2.93525 a 6.7718915,6.7718915 0 0 1 7.2184,4.80336 30.781325,30.781325 0 0 0 0.98119,2.79938 6.7718915,6.7718915 0 0 1 -2.64023,8.25875 z"
       fill="#d8383a"
       id="path16"
       style="stroke-width:0.615627" /><path
       d="m 226.40934,304.48935 a 6.7718915,6.7718915 0 0 1 -7.49907,-6.74419 68.861333,68.861333 0 0 1 1.56314,-14.47251 6.7718915,6.7718915 0 0 1 8.76615,-4.9875 l 23.50172,7.86044 a 6.7718915,6.7718915 0 0 1 4.55626,7.37687 30.781325,30.781325 0 0 0 -0.22378,2.07195 6.7718915,6.7718915 0 0 1 -6.02631,6.2339 z"
       fill="#f7e1ed"
       id="path17"
       style="stroke-width:0.615627" /><path
       d="m 232.26801,279.29811 a 6.7718915,6.7718915 0 0 1 -3.98471,-9.29418 65.687963,65.687963 0 0 1 5.35017,-9.34404 6.7718915,6.7718915 0 0 1 10.0325,-1.26813 l 16.26897,14.19025 a 6.7718915,6.7718915 0 0 1 1.37106,8.56145 30.781325,30.781325 0 0 0 -0.48714,0.8508 6.7718915,6.7718915 0 0 1 -8.07758,3.15133 z"
       fill="#f8f3f9"
       id="path18"
       style="stroke-width:0.615627" /><path
       d="m 246.55621,261.91269 a 6.7718915,6.7718915 0 0 1 -0.0664,-10.14805 61.880006,61.880006 0 0 1 5.06205,-4.07514 6.7718915,6.7718915 0 0 1 9.89983,2.23171 l 8.64425,15.74526 a 6.5214547,6.5214547 0 0 1 -10.00331,8.05313 z"
       fill="#c497b2"
       id="path19"
       style="stroke-width:0.615627" /><path
       d="m 263.29934,253.28665 a 6.7718915,6.7718915 0 0 1 3.48925,-9.57336 58.071987,58.071987 0 0 1 2.38211,-0.86385 6.7718915,6.7718915 0 0 1 8.81442,5.11186 l 2.87048,14.63658 a 5.5860102,5.5860102 0 0 1 -10.37824,3.76332 z"
       fill="#a9b8c6"
       id="path20"
       style="stroke-width:0.615627" /><path
       d="m 279.40204,255.18642 a 4.2241829,4.2241829 0 1 1 8.36944,-0.81301 v 9.57238 a 3.2944021,3.2944021 0 0 1 -6.52718,0.63404 z"
       fill="#f0988c"
       id="path21"
       style="stroke-width:0.615627" /><text
       dominant-baseline="central"
       text-anchor="start"
       style="font-weight:bold;font-size:9.12479px;font-family:'Microsoft YaHei'"
       fill="#333333"
       stroke="#ffffff"
       stroke-width="1.30354"
       paint-order="stroke"
       stroke-miterlimit="2"
       id="text21"
       x="409.11279"
       y="169.5824">p1_games</text><text
       dominant-baseline="central"
       text-anchor="start"
       style="font-weight:bold;font-size:9.12479px;font-family:'Microsoft YaHei'"
       fill="#333333"
       stroke="#ffffff"
       stroke-width="1.30354"
       paint-order="stroke"
       stroke-miterlimit="2"
       id="text22"
       x="462.77945"
       y="344.92639">p2_sets</text><text
       dominant-baseline="central"
       text-anchor="start"
       style="font-weight:bold;font-size:9.12479px;font-family:'Microsoft YaHei'"
       fill="#333333"
       stroke="#ffffff"
       stroke-width="1.30354"
       paint-order="stroke"
       stroke-miterlimit="2"
       id="text23"
       x="372.59924"
       y="450.01382">p2_games</text><text
       dominant-baseline="central"
       text-anchor="end"
       style="font-weight:bold;font-size:9.12479px;font-family:'Microsoft YaHei'"
       fill="#333333"
       stroke="#ffffff"
       stroke-width="1.30354"
       paint-order="stroke"
       stroke-miterlimit="2"
       id="text24"
       x="231.00073"
       y="459.45074">p1_sets</text><text
       dominant-baseline="central"
       text-anchor="end"
       style="font-weight:bold;font-size:9.12479px;font-family:'Microsoft YaHei'"
       fill="#333333"
       stroke="#ffffff"
       stroke-width="1.30354"
       paint-order="stroke"
       stroke-miterlimit="2"
       id="text25"
       x="157.16827"
       y="416.92575">p1_distance_run</text><text
       dominant-baseline="central"
       text-anchor="end"
       style="font-weight:bold;font-size:9.12479px;font-family:'Microsoft YaHei'"
       fill="#333333"
       stroke="#ffffff"
       stroke-width="1.30354"
       paint-order="stroke"
       stroke-miterlimit="2"
       id="text26"
       x="117.37508"
       y="352.64078">speed_mph</text><text
       dominant-baseline="central"
       text-anchor="end"
       style="font-weight:bold;font-size:9.12479px;font-family:'Microsoft YaHei'"
       fill="#333333"
       stroke="#ffffff"
       stroke-width="1.30354"
       paint-order="stroke"
       stroke-miterlimit="2"
       id="text27"
       x="109.42867"
       y="279.40735">p2_distance_run</text><text
       dominant-baseline="central"
       text-anchor="end"
       style="font-weight:bold;font-size:9.12479px;font-family:'Microsoft YaHei'"
       fill="#333333"
       stroke="#ffffff"
       stroke-width="1.30354"
       paint-order="stroke"
       stroke-miterlimit="2"
       id="text28"
       x="132.00562"
       y="215.79794">return_depth</text><text
       dominant-baseline="central"
       text-anchor="end"
       style="font-weight:bold;font-size:9.12479px;font-family:'Microsoft YaHei'"
       fill="#333333"
       stroke="#ffffff"
       stroke-width="1.30354"
       paint-order="stroke"
       stroke-miterlimit="2"
       id="text29"
       x="170.37312"
       y="167.79427">rally_count</text><text
       dominant-baseline="central"
       text-anchor="end"
       style="font-weight:bold;font-size:9.12479px;font-family:'Microsoft YaHei'"
       fill="#333333"
       stroke="#ffffff"
       stroke-width="1.30354"
       paint-order="stroke"
       stroke-miterlimit="2"
       id="text30"
       x="214.70569"
       y="141.80811">serve_width</text><text
       dominant-baseline="central"
       text-anchor="end"
       style="font-weight:bold;font-size:9.12479px;font-family:'Microsoft YaHei'"
       fill="#333333"
       stroke="#ffffff"
       stroke-width="1.30354"
       paint-order="stroke"
       stroke-miterlimit="2"
       id="text31"
       x="242.68729"
       y="115.73591">serve_depth</text><g
       id="g12"
       transform="matrix(0.93930006,0,0,0.93930006,463.53469,62.572445)"><path
         d="m 85.9667,98.98537 h 29.49345 a 4.9155738,4.9155738 0 0 1 4.91557,4.91557 v 9.83115 a 4.9155738,4.9155738 0 0 1 -4.91557,4.91558 H 85.9667 a 4.9155738,4.9155738 0 0 1 -4.91557,-4.91558 v -9.83115 a 4.9155738,4.9155738 0 0 1 4.91557,-4.91557"
         fill="#14517c"
         id="path32"
         style="stroke-width:0.65541" /><text
         dominant-baseline="central"
         text-anchor="start"
         style="font-size:9.83115px;font-family:'Microsoft YaHei';stroke-width:0.65541"
         xml:space="preserve"
         x="123.65277"
         y="108.81654"
         fill="#333333"
         id="text32">p1_games             19.4%</text><g
         id="g2"
         transform="translate(-180.35178,-449.89697)"><path
           d="m 266.31848,578.05414 h 29.49345 a 4.9155738,4.9155738 0 0 1 4.91557,4.91557 v 9.83115 a 4.9155738,4.9155738 0 0 1 -4.91557,4.91558 h -29.49345 a 4.9155738,4.9155738 0 0 1 -4.91557,-4.91558 v -9.83115 a 4.9155738,4.9155738 0 0 1 4.91557,-4.91557"
           fill="#2f7fc1"
           id="path33"
           style="stroke-width:0.65541" /><text
           dominant-baseline="central"
           text-anchor="start"
           style="font-size:9.83115px;font-family:'Microsoft YaHei';stroke-width:0.65541"
           xml:space="preserve"
           x="304.00455"
           y="587.88531"
           fill="#333333"
           id="text33">p2_sets                 12.9%</text></g><g
         id="g3"
         transform="translate(-311.63536,-420.72518)"><path
           d="m 397.60206,578.05414 h 29.49345 a 4.9155738,4.9155738 0 0 1 4.91557,4.91557 v 9.83115 a 4.9155738,4.9155738 0 0 1 -4.91557,4.91558 h -29.49345 a 4.9155738,4.9155738 0 0 1 -4.91557,-4.91558 v -9.83115 a 4.9155738,4.9155738 0 0 1 4.91557,-4.91557"
           fill="#e7effa"
           id="path34"
           style="stroke-width:0.65541" /><text
           dominant-baseline="central"
           text-anchor="start"
           style="font-size:9.83115px;font-family:'Microsoft YaHei';stroke-width:0.65541"
           xml:space="preserve"
           x="435.28812"
           y="587.88531"
           fill="#333333"
           id="text34">p2_games             11.20%</text></g><g
         id="g4"
         transform="translate(-461.40516,-391.55338)"><path
           d="m 547.37186,578.05414 h 29.49345 a 4.9155738,4.9155738 0 0 1 4.91557,4.91557 v 9.83115 a 4.9155738,4.9155738 0 0 1 -4.91557,4.91558 h -29.49345 a 4.9155738,4.9155738 0 0 1 -4.91557,-4.91558 v -9.83115 a 4.9155738,4.9155738 0 0 1 4.91557,-4.91557"
           fill="#96c37d"
           id="path35"
           style="stroke-width:0.65541" /><text
           dominant-baseline="central"
           text-anchor="start"
           style="font-size:9.83115px;font-family:'Microsoft YaHei';stroke-width:0.65541"
           xml:space="preserve"
           x="585.05792"
           y="587.88531"
           fill="#333333"
           id="text35">p1_sets                  7.60%</text></g><g
         id="g5"
         transform="translate(-36.34723,-401.70618)"><path
           d="m 122.31393,617.37873 h 29.49345 a 4.9155738,4.9155738 0 0 1 4.91557,4.91557 v 9.83115 a 4.9155738,4.9155738 0 0 1 -4.91557,4.91558 h -29.49345 a 4.9155738,4.9155738 0 0 1 -4.91557,-4.91558 v -9.83115 a 4.9155738,4.9155738 0 0 1 4.91557,-4.91557"
           fill="#f3d266"
           id="path36"
           style="stroke-width:0.65541" /><text
           dominant-baseline="central"
           text-anchor="start"
           style="font-size:9.83115px;font-family:'Microsoft YaHei';stroke-width:0.65541"
           xml:space="preserve"
           x="160"
           y="627.2099"
           fill="#333333"
           id="text36">p1_distance_run    6.70%</text></g><g
         id="g6"
         transform="translate(-208.68351,-372.53438)"><path
           d="m 294.65021,617.37873 h 29.49345 a 4.9155738,4.9155738 0 0 1 4.91557,4.91557 v 9.83115 a 4.9155738,4.9155738 0 0 1 -4.91557,4.91558 h -29.49345 a 4.9155738,4.9155738 0 0 1 -4.91557,-4.91558 v -9.83115 a 4.9155738,4.9155738 0 0 1 4.91557,-4.91557"
           fill="#d8383a"
           id="path37"
           style="stroke-width:0.65541" /><text
           dominant-baseline="central"
           text-anchor="start"
           style="font-size:9.83115px;font-family:'Microsoft YaHei';stroke-width:0.65541"
           xml:space="preserve"
           x="332.33627"
           y="627.2099"
           fill="#333333"
           id="text37">speed_mph            6.40%</text></g><g
         id="g7"
         transform="translate(-359.399,-343.36259)"><path
           d="m 445.3657,617.37873 h 29.49345 a 4.9155738,4.9155738 0 0 1 4.91557,4.91557 v 9.83115 a 4.9155738,4.9155738 0 0 1 -4.91557,4.91558 H 445.3657 a 4.9155738,4.9155738 0 0 1 -4.91557,-4.91558 v -9.83115 a 4.9155738,4.9155738 0 0 1 4.91557,-4.91557"
           fill="#f7e1ed"
           id="path38"
           style="stroke-width:0.65541" /><text
           dominant-baseline="central"
           text-anchor="start"
           style="font-size:9.83115px;font-family:'Microsoft YaHei';stroke-width:0.65541"
           xml:space="preserve"
           x="483.05176"
           y="627.2099"
           fill="#333333"
           id="text38">p2_distance_run     6.00%</text></g><g
         id="g8"
         transform="translate(-36.34723,-353.51538)"><path
           d="m 122.31393,656.70332 h 29.49345 a 4.9155738,4.9155738 0 0 1 4.91557,4.91557 v 9.83115 a 4.9155738,4.9155738 0 0 1 -4.91557,4.91558 h -29.49345 a 4.9155738,4.9155738 0 0 1 -4.91557,-4.91558 v -9.83115 a 4.9155738,4.9155738 0 0 1 4.91557,-4.91557"
           fill="#f8f3f9"
           id="path39"
           style="stroke-width:0.65541" /><text
           dominant-baseline="central"
           text-anchor="start"
           style="font-size:9.83115px;font-family:'Microsoft YaHei';stroke-width:0.65541"
           xml:space="preserve"
           x="160"
           y="666.53448"
           fill="#333333"
           id="text39">return_depth          5.50%</text></g><g
         id="g9"
         transform="translate(-193.812,-324.34359)"><path
           d="m 279.7787,656.70332 h 29.49345 a 4.9155738,4.9155738 0 0 1 4.91557,4.91557 v 9.83115 a 4.9155738,4.9155738 0 0 1 -4.91557,4.91558 H 279.7787 a 4.9155738,4.9155738 0 0 1 -4.91557,-4.91558 v -9.83115 a 4.9155738,4.9155738 0 0 1 4.91557,-4.91557"
           fill="#c497b2"
           id="path40"
           style="stroke-width:0.65541" /><text
           dominant-baseline="central"
           text-anchor="start"
           style="font-size:9.83115px;font-family:'Microsoft YaHei';stroke-width:0.65541"
           xml:space="preserve"
           x="317.46478"
           y="666.53448"
           fill="#333333"
           id="text40">rally_count              4.90%</text></g><g
         id="g10"
         transform="translate(-341.292,-295.1718)"><path
           d="m 427.2587,656.70332 h 29.49345 a 4.9155738,4.9155738 0 0 1 4.91557,4.91557 v 9.83115 a 4.9155738,4.9155738 0 0 1 -4.91557,4.91558 H 427.2587 a 4.9155738,4.9155738 0 0 1 -4.91557,-4.91558 v -9.83115 a 4.9155738,4.9155738 0 0 1 4.91557,-4.91557"
           fill="#a9b8c6"
           id="path41"
           style="stroke-width:0.65541" /><text
           dominant-baseline="central"
           text-anchor="start"
           style="font-size:9.83115px;font-family:'Microsoft YaHei';stroke-width:0.65541"
           xml:space="preserve"
           x="464.94476"
           y="666.53448"
           fill="#333333"
           id="text41">serve_width            4.30%</text></g><g
         id="g11"
         transform="translate(-493.55799,-266)"><path
           d="m 579.52469,656.70332 h 29.49345 a 4.9155738,4.9155738 0 0 1 4.91557,4.91557 v 9.83115 a 4.9155738,4.9155738 0 0 1 -4.91557,4.91558 h -29.49345 a 4.9155738,4.9155738 0 0 1 -4.91557,-4.91558 v -9.83115 a 4.9155738,4.9155738 0 0 1 4.91557,-4.91557"
           fill="#f0988c"
           id="path42"
           style="stroke-width:0.65541" /><text
           dominant-baseline="central"
           text-anchor="start"
           style="font-size:9.83115px;font-family:'Microsoft YaHei';stroke-width:0.65541"
           xml:space="preserve"
           x="617.21075"
           y="666.53448"
           fill="#333333"
           id="text42">serve_depth            2.70%</text></g></g></g></svg>
