<?xml version="1.0" encoding="utf-8" standalone="no"?>
<!DOCTYPE svg PUBLIC "-//W3C//DTD SVG 1.1//EN"
  "http://www.w3.org/Graphics/SVG/1.1/DTD/svg11.dtd">
<svg xmlns:xlink="http://www.w3.org/1999/xlink" width="460.8pt" height="345.6pt" viewBox="0 0 460.8 345.6" xmlns="http://www.w3.org/2000/svg" version="1.1">
 <metadata>
  <rdf:RDF xmlns:dc="http://purl.org/dc/elements/1.1/" xmlns:cc="http://creativecommons.org/ns#" xmlns:rdf="http://www.w3.org/1999/02/22-rdf-syntax-ns#">
   <cc:Work>
    <dc:type rdf:resource="http://purl.org/dc/dcmitype/StillImage"/>
    <dc:date>2024-06-14T23:01:29.879837</dc:date>
    <dc:format>image/svg+xml</dc:format>
    <dc:creator>
     <cc:Agent>
      <dc:title>Matplotlib v3.8.0, https://matplotlib.org/</dc:title>
     </cc:Agent>
    </dc:creator>
   </cc:Work>
  </rdf:RDF>
 </metadata>
 <defs>
  <style type="text/css">*{stroke-linejoin: round; stroke-linecap: butt}</style>
 </defs>
 <g id="figure_1">
  <g id="patch_1">
   <path d="M 0 345.6 
L 460.8 345.6 
L 460.8 0 
L 0 0 
z
" style="fill: #ffffff"/>
  </g>
  <g id="axes_1">
   <g id="patch_2">
    <path d="M 57.6 307.584 
L 414.72 307.584 
L 414.72 41.472 
L 57.6 41.472 
z
" style="fill: #ffffff"/>
   </g>
   <g id="PathCollection_1">
    <defs>
     <path id="me37a76d5ea" d="M 0 3 
C 0.795609 3 1.55874 2.683901 2.12132 2.12132 
C 2.683901 1.55874 3 0.795609 3 0 
C 3 -0.795609 2.683901 -1.55874 2.12132 -2.12132 
C 1.55874 -2.683901 0.795609 -3 0 -3 
C -0.795609 -3 -1.55874 -2.683901 -2.12132 -2.12132 
C -2.683901 -1.55874 -3 -0.795609 -3 0 
C -3 0.795609 -2.683901 1.55874 -2.12132 2.12132 
C -1.55874 2.683901 -0.795609 3 0 3 
z
" style="stroke: #1f77b4"/>
    </defs>
    <g clip-path="url(#p48d593c844)">
     <use xlink:href="#me37a76d5ea" x="351.409307" y="69.263034" style="fill: #1f77b4; stroke: #1f77b4"/>
     <use xlink:href="#me37a76d5ea" x="398.487273" y="114.72451" style="fill: #1f77b4; stroke: #1f77b4"/>
     <use xlink:href="#me37a76d5ea" x="312.890971" y="175.339812" style="fill: #1f77b4; stroke: #1f77b4"/>
     <use xlink:href="#me37a76d5ea" x="296.994515" y="146.114577" style="fill: #1f77b4; stroke: #1f77b4"/>
     <use xlink:href="#me37a76d5ea" x="265.201602" y="201.859007" style="fill: #1f77b4; stroke: #1f77b4"/>
     <use xlink:href="#me37a76d5ea" x="171.657072" y="189.95243" style="fill: #1f77b4; stroke: #1f77b4"/>
     <use xlink:href="#me37a76d5ea" x="219.346441" y="237.578738" style="fill: #1f77b4; stroke: #1f77b4"/>
     <use xlink:href="#me37a76d5ea" x="192.444746" y="204.023839" style="fill: #1f77b4; stroke: #1f77b4"/>
     <use xlink:href="#me37a76d5ea" x="332.45584" y="268.968805" style="fill: #1f77b4; stroke: #1f77b4"/>
     <use xlink:href="#me37a76d5ea" x="73.832727" y="173.716188" style="fill: #1f77b4; stroke: #1f77b4"/>
     <use xlink:href="#me37a76d5ea" x="75.055532" y="287.369879" style="fill: #1f77b4; stroke: #1f77b4"/>
     <use xlink:href="#me37a76d5ea" x="134.972943" y="264.639141" style="fill: #1f77b4; stroke: #1f77b4"/>
     <use xlink:href="#me37a76d5ea" x="315.947982" y="231.084242" style="fill: #1f77b4; stroke: #1f77b4"/>
     <use xlink:href="#me37a76d5ea" x="326.95322" y="211.059544" style="fill: #1f77b4; stroke: #1f77b4"/>
     <use xlink:href="#me37a76d5ea" x="145.36678" y="117.971758" style="fill: #1f77b4; stroke: #1f77b4"/>
     <use xlink:href="#me37a76d5ea" x="287.823482" y="295.488" style="fill: #1f77b4; stroke: #1f77b4"/>
     <use xlink:href="#me37a76d5ea" x="364.860154" y="262.474309" style="fill: #1f77b4; stroke: #1f77b4"/>
     <use xlink:href="#me37a76d5ea" x="144.755378" y="216.471624" style="fill: #1f77b4; stroke: #1f77b4"/>
     <use xlink:href="#me37a76d5ea" x="132.527334" y="187.787597" style="fill: #1f77b4; stroke: #1f77b4"/>
     <use xlink:href="#me37a76d5ea" x="97.677411" y="179.128268" style="fill: #1f77b4; stroke: #1f77b4"/>
     <use xlink:href="#me37a76d5ea" x="382.590817" y="192.65847" style="fill: #1f77b4; stroke: #1f77b4"/>
     <use xlink:href="#me37a76d5ea" x="361.803143" y="130.960752" style="fill: #1f77b4; stroke: #1f77b4"/>
     <use xlink:href="#me37a76d5ea" x="220.569245" y="149.361826" style="fill: #1f77b4; stroke: #1f77b4"/>
     <use xlink:href="#me37a76d5ea" x="217.512234" y="81.710819" style="fill: #1f77b4; stroke: #1f77b4"/>
     <use xlink:href="#me37a76d5ea" x="246.248136" y="118.512966" style="fill: #1f77b4; stroke: #1f77b4"/>
     <use xlink:href="#me37a76d5ea" x="384.425023" y="53.568" style="fill: #1f77b4; stroke: #1f77b4"/>
     <use xlink:href="#me37a76d5ea" x="250.527951" y="62.768537" style="fill: #1f77b4; stroke: #1f77b4"/>
     <use xlink:href="#me37a76d5ea" x="214.455223" y="114.72451" style="fill: #1f77b4; stroke: #1f77b4"/>
     <use xlink:href="#me37a76d5ea" x="368.528567" y="77.381154" style="fill: #1f77b4; stroke: #1f77b4"/>
     <use xlink:href="#me37a76d5ea" x="197.947365" y="69.804242" style="fill: #1f77b4; stroke: #1f77b4"/>
    </g>
   </g>
   <g id="matplotlib.axis_1">
    <g id="xtick_1">
     <g id="line2d_1">
      <defs>
       <path id="md2dbe05ff2" d="M 0 0 
L 0 3.5 
" style="stroke: #000000; stroke-width: 0.8"/>
      </defs>
      <g>
       <use xlink:href="#md2dbe05ff2" x="108.68265" y="307.584" style="stroke: #000000; stroke-width: 0.8"/>
      </g>
     </g>
     <g id="text_1">
      <!-- 0.3 -->
      <g transform="translate(100.731088 322.182437) scale(0.1 -0.1)">
       <defs>
        <path id="DejaVuSans-30" d="M 2034 4250 
Q 1547 4250 1301 3770 
Q 1056 3291 1056 2328 
Q 1056 1369 1301 889 
Q 1547 409 2034 409 
Q 2525 409 2770 889 
Q 3016 1369 3016 2328 
Q 3016 3291 2770 3770 
Q 2525 4250 2034 4250 
z
M 2034 4750 
Q 2819 4750 3233 4129 
Q 3647 3509 3647 2328 
Q 3647 1150 3233 529 
Q 2819 -91 2034 -91 
Q 1250 -91 836 529 
Q 422 1150 422 2328 
Q 422 3509 836 4129 
Q 1250 4750 2034 4750 
z
" transform="scale(0.015625)"/>
        <path id="DejaVuSans-2e" d="M 684 794 
L 1344 794 
L 1344 0 
L 684 0 
L 684 794 
z
" transform="scale(0.015625)"/>
        <path id="DejaVuSans-33" d="M 2597 2516 
Q 3050 2419 3304 2112 
Q 3559 1806 3559 1356 
Q 3559 666 3084 287 
Q 2609 -91 1734 -91 
Q 1441 -91 1130 -33 
Q 819 25 488 141 
L 488 750 
Q 750 597 1062 519 
Q 1375 441 1716 441 
Q 2309 441 2620 675 
Q 2931 909 2931 1356 
Q 2931 1769 2642 2001 
Q 2353 2234 1838 2234 
L 1294 2234 
L 1294 2753 
L 1863 2753 
Q 2328 2753 2575 2939 
Q 2822 3125 2822 3475 
Q 2822 3834 2567 4026 
Q 2313 4219 1838 4219 
Q 1578 4219 1281 4162 
Q 984 4106 628 3988 
L 628 4550 
Q 988 4650 1302 4700 
Q 1616 4750 1894 4750 
Q 2613 4750 3031 4423 
Q 3450 4097 3450 3541 
Q 3450 3153 3228 2886 
Q 3006 2619 2597 2516 
z
" transform="scale(0.015625)"/>
       </defs>
       <use xlink:href="#DejaVuSans-30"/>
       <use xlink:href="#DejaVuSans-2e" x="63.623047"/>
       <use xlink:href="#DejaVuSans-33" x="95.410156"/>
      </g>
     </g>
    </g>
    <g id="xtick_2">
     <g id="line2d_2">
      <g>
       <use xlink:href="#md2dbe05ff2" x="169.822866" y="307.584" style="stroke: #000000; stroke-width: 0.8"/>
      </g>
     </g>
     <g id="text_2">
      <!-- 0.4 -->
      <g transform="translate(161.871303 322.182437) scale(0.1 -0.1)">
       <defs>
        <path id="DejaVuSans-34" d="M 2419 4116 
L 825 1625 
L 2419 1625 
L 2419 4116 
z
M 2253 4666 
L 3047 4666 
L 3047 1625 
L 3713 1625 
L 3713 1100 
L 3047 1100 
L 3047 0 
L 2419 0 
L 2419 1100 
L 313 1100 
L 313 1709 
L 2253 4666 
z
" transform="scale(0.015625)"/>
       </defs>
       <use xlink:href="#DejaVuSans-30"/>
       <use xlink:href="#DejaVuSans-2e" x="63.623047"/>
       <use xlink:href="#DejaVuSans-34" x="95.410156"/>
      </g>
     </g>
    </g>
    <g id="xtick_3">
     <g id="line2d_3">
      <g>
       <use xlink:href="#md2dbe05ff2" x="230.963082" y="307.584" style="stroke: #000000; stroke-width: 0.8"/>
      </g>
     </g>
     <g id="text_3">
      <!-- 0.5 -->
      <g transform="translate(223.011519 322.182437) scale(0.1 -0.1)">
       <defs>
        <path id="DejaVuSans-35" d="M 691 4666 
L 3169 4666 
L 3169 4134 
L 1269 4134 
L 1269 2991 
Q 1406 3038 1543 3061 
Q 1681 3084 1819 3084 
Q 2600 3084 3056 2656 
Q 3513 2228 3513 1497 
Q 3513 744 3044 326 
Q 2575 -91 1722 -91 
Q 1428 -91 1123 -41 
Q 819 9 494 109 
L 494 744 
Q 775 591 1075 516 
Q 1375 441 1709 441 
Q 2250 441 2565 725 
Q 2881 1009 2881 1497 
Q 2881 1984 2565 2268 
Q 2250 2553 1709 2553 
Q 1456 2553 1204 2497 
Q 953 2441 691 2322 
L 691 4666 
z
" transform="scale(0.015625)"/>
       </defs>
       <use xlink:href="#DejaVuSans-30"/>
       <use xlink:href="#DejaVuSans-2e" x="63.623047"/>
       <use xlink:href="#DejaVuSans-35" x="95.410156"/>
      </g>
     </g>
    </g>
    <g id="xtick_4">
     <g id="line2d_4">
      <g>
       <use xlink:href="#md2dbe05ff2" x="292.103297" y="307.584" style="stroke: #000000; stroke-width: 0.8"/>
      </g>
     </g>
     <g id="text_4">
      <!-- 0.6 -->
      <g transform="translate(284.151735 322.182437) scale(0.1 -0.1)">
       <defs>
        <path id="DejaVuSans-36" d="M 2113 2584 
Q 1688 2584 1439 2293 
Q 1191 2003 1191 1497 
Q 1191 994 1439 701 
Q 1688 409 2113 409 
Q 2538 409 2786 701 
Q 3034 994 3034 1497 
Q 3034 2003 2786 2293 
Q 2538 2584 2113 2584 
z
M 3366 4563 
L 3366 3988 
Q 3128 4100 2886 4159 
Q 2644 4219 2406 4219 
Q 1781 4219 1451 3797 
Q 1122 3375 1075 2522 
Q 1259 2794 1537 2939 
Q 1816 3084 2150 3084 
Q 2853 3084 3261 2657 
Q 3669 2231 3669 1497 
Q 3669 778 3244 343 
Q 2819 -91 2113 -91 
Q 1303 -91 875 529 
Q 447 1150 447 2328 
Q 447 3434 972 4092 
Q 1497 4750 2381 4750 
Q 2619 4750 2861 4703 
Q 3103 4656 3366 4563 
z
" transform="scale(0.015625)"/>
       </defs>
       <use xlink:href="#DejaVuSans-30"/>
       <use xlink:href="#DejaVuSans-2e" x="63.623047"/>
       <use xlink:href="#DejaVuSans-36" x="95.410156"/>
      </g>
     </g>
    </g>
    <g id="xtick_5">
     <g id="line2d_5">
      <g>
       <use xlink:href="#md2dbe05ff2" x="353.243513" y="307.584" style="stroke: #000000; stroke-width: 0.8"/>
      </g>
     </g>
     <g id="text_5">
      <!-- 0.7 -->
      <g transform="translate(345.291951 322.182437) scale(0.1 -0.1)">
       <defs>
        <path id="DejaVuSans-37" d="M 525 4666 
L 3525 4666 
L 3525 4397 
L 1831 0 
L 1172 0 
L 2766 4134 
L 525 4134 
L 525 4666 
z
" transform="scale(0.015625)"/>
       </defs>
       <use xlink:href="#DejaVuSans-30"/>
       <use xlink:href="#DejaVuSans-2e" x="63.623047"/>
       <use xlink:href="#DejaVuSans-37" x="95.410156"/>
      </g>
     </g>
    </g>
    <g id="xtick_6">
     <g id="line2d_6">
      <g>
       <use xlink:href="#md2dbe05ff2" x="414.383729" y="307.584" style="stroke: #000000; stroke-width: 0.8"/>
      </g>
     </g>
     <g id="text_6">
      <!-- 0.8 -->
      <g transform="translate(406.432166 322.182437) scale(0.1 -0.1)">
       <defs>
        <path id="DejaVuSans-38" d="M 2034 2216 
Q 1584 2216 1326 1975 
Q 1069 1734 1069 1313 
Q 1069 891 1326 650 
Q 1584 409 2034 409 
Q 2484 409 2743 651 
Q 3003 894 3003 1313 
Q 3003 1734 2745 1975 
Q 2488 2216 2034 2216 
z
M 1403 2484 
Q 997 2584 770 2862 
Q 544 3141 544 3541 
Q 544 4100 942 4425 
Q 1341 4750 2034 4750 
Q 2731 4750 3128 4425 
Q 3525 4100 3525 3541 
Q 3525 3141 3298 2862 
Q 3072 2584 2669 2484 
Q 3125 2378 3379 2068 
Q 3634 1759 3634 1313 
Q 3634 634 3220 271 
Q 2806 -91 2034 -91 
Q 1263 -91 848 271 
Q 434 634 434 1313 
Q 434 1759 690 2068 
Q 947 2378 1403 2484 
z
M 1172 3481 
Q 1172 3119 1398 2916 
Q 1625 2713 2034 2713 
Q 2441 2713 2670 2916 
Q 2900 3119 2900 3481 
Q 2900 3844 2670 4047 
Q 2441 4250 2034 4250 
Q 1625 4250 1398 4047 
Q 1172 3844 1172 3481 
z
" transform="scale(0.015625)"/>
       </defs>
       <use xlink:href="#DejaVuSans-30"/>
       <use xlink:href="#DejaVuSans-2e" x="63.623047"/>
       <use xlink:href="#DejaVuSans-38" x="95.410156"/>
      </g>
     </g>
    </g>
    <g id="text_7">
     <!-- 密度 -->
     <g transform="translate(226.16 335.566812) scale(0.1 -0.1)">
      <defs>
       <path id="FZFSJW--GB1-0-5bc6" d="M 2925 5125 
Q 3300 4850 3550 4575 
Q 3575 4500 3425 4100 
Q 4050 4150 4975 4225 
Q 5025 4250 5100 4350 
Q 5200 4450 5225 4450 
Q 5500 4175 5500 4125 
Q 5500 4125 5450 4100 
Q 5300 4000 5175 3875 
Q 5100 3800 4925 3575 
Q 4850 3475 4800 3425 
L 4725 3450 
Q 4900 3800 4975 4025 
Q 3575 3925 1475 3725 
Q 1375 3050 1225 2950 
Q 1150 3075 1075 3400 
Q 1375 3650 1375 4425 
L 1475 4425 
Q 1500 4300 1500 3925 
Q 2300 4025 3400 4100 
Q 3250 4450 2900 5050 
L 2925 5125 
z
M 4100 3775 
L 4175 3775 
L 4325 3300 
Q 4325 3275 4250 3225 
Q 4175 3200 4100 3125 
Q 4050 3075 3925 2950 
Q 3425 2425 3100 2150 
Q 3675 1850 4375 1825 
Q 4425 1800 4250 2500 
Q 4225 2575 4225 2625 
L 4275 2650 
Q 4425 2300 4675 1850 
Q 4825 1550 4800 1550 
Q 4500 1500 3775 1675 
Q 3200 1825 2900 2025 
Q 2125 1425 950 1000 
L 925 1075 
Q 2200 1675 2750 2150 
Q 2200 2675 2025 3175 
L 2125 3200 
Q 2475 2600 2925 2275 
Q 3425 2650 3950 3425 
Q 4100 3675 4100 3775 
z
M 2700 3600 
Q 3250 3300 3350 3175 
Q 3350 2925 3250 2800 
Q 3225 2800 3125 2950 
Q 2900 3300 2675 3525 
L 2700 3600 
z
M 1650 3125 
L 1725 3125 
Q 1725 2200 1350 1850 
Q 1275 1875 1225 2225 
Q 1525 2450 1650 3125 
z
M 4550 3000 
Q 5100 2775 5525 2475 
Q 5575 2200 5525 2000 
Q 5500 2000 5300 2200 
Q 4875 2675 4525 2925 
L 4550 3000 
z
M 3100 1625 
Q 3125 1625 3150 1600 
Q 3475 1350 3500 1300 
Q 3500 1300 3475 1275 
Q 3400 1175 3400 975 
Q 3400 925 3350 -125 
L 4425 -25 
Q 4500 125 4550 700 
Q 4575 975 4525 1175 
L 4575 1200 
Q 4600 1175 4650 1150 
Q 4975 925 4925 875 
Q 4925 875 4900 850 
Q 4825 775 4775 550 
Q 4700 -125 4575 -550 
Q 4550 -600 4525 -550 
Q 4400 -200 4400 -200 
Q 2750 -350 2175 -475 
Q 2100 -475 2000 -550 
Q 1950 -575 1950 -575 
Q 1800 -525 1675 -375 
Q 1675 -350 1775 -300 
Q 1850 -225 1850 -200 
Q 1850 25 1825 400 
Q 1825 575 1825 625 
Q 1800 825 1725 1050 
L 1750 1075 
Q 2175 825 2150 750 
Q 2150 750 2125 725 
Q 2050 600 2050 450 
Q 2050 250 2075 -225 
Q 2525 -200 3125 -125 
L 3150 1000 
Q 3125 1400 3050 1525 
L 3100 1625 
z
" transform="scale(0.015625)"/>
       <path id="FZFSJW--GB1-0-5ea6" d="M 2825 5300 
Q 3275 5100 3575 4900 
Q 3550 4600 3425 4450 
Q 3425 4450 3300 4600 
Q 3000 5050 2800 5250 
L 2825 5300 
z
M 1350 4675 
L 1425 4675 
Q 1525 4500 1700 4100 
Q 4475 4350 5000 4575 
Q 5025 4575 5025 4575 
Q 5300 4450 5350 4275 
Q 5325 4275 5075 4250 
Q 4500 4200 4025 4150 
Q 4275 3975 4275 3900 
Q 4275 3875 4250 3875 
Q 4175 3725 4150 3400 
Q 4625 3450 4975 3550 
Q 5075 3575 5100 3575 
Q 5400 3400 5400 3325 
Q 5350 3300 4750 3250 
Q 4350 3200 4125 3175 
L 4050 2600 
Q 4275 2450 4250 2375 
Q 4225 2350 3575 2300 
Q 3025 2250 2850 2225 
Q 2875 2000 2825 2000 
Q 2725 2075 2550 2325 
Q 2550 2325 2550 2350 
Q 2650 2525 2600 3000 
Q 2350 2975 2000 2900 
Q 1875 2875 1850 2875 
Q 1825 2875 1750 2925 
Q 1675 2975 1625 3000 
Q 1525 550 400 -625 
L 300 -575 
Q 1025 450 1225 1525 
Q 1450 2600 1350 4675 
z
M 3875 4150 
Q 3200 4075 2650 4025 
Q 2675 4000 2750 3925 
Q 2900 3775 2900 3750 
Q 2900 3750 2875 3725 
Q 2800 3600 2825 3250 
Q 3000 3250 3325 3300 
Q 3675 3325 3875 3350 
Q 3925 3825 3875 4150 
z
M 2500 3975 
Q 2075 3925 1675 3875 
L 1650 3075 
Q 1775 3100 2050 3125 
Q 2450 3200 2600 3225 
Q 2600 3350 2600 3450 
Q 2600 3675 2550 3825 
Q 2525 3875 2500 3975 
z
M 3875 3150 
Q 3475 3100 2850 3025 
L 2850 2425 
Q 3475 2500 3825 2550 
Q 3825 2575 3850 2775 
Q 3875 3075 3875 3150 
z
M 4225 2100 
Q 4450 1975 4525 1800 
Q 4525 1775 4425 1725 
Q 4300 1675 4275 1625 
Q 4025 1175 3500 600 
Q 4125 100 4700 -150 
Q 5025 -275 5900 -325 
L 5900 -425 
Q 4825 -600 4650 -575 
Q 4550 -550 3375 450 
Q 2500 -325 1100 -750 
L 1075 -700 
Q 2350 -175 3175 600 
Q 2850 875 2525 1075 
Q 2375 1175 2400 1200 
Q 2400 1225 2600 1275 
Q 2675 1300 2700 1300 
Q 2725 1300 2775 1250 
Q 2975 1000 3325 750 
Q 3850 1350 3975 1700 
Q 2925 1550 2450 1425 
Q 2425 1425 2425 1425 
Q 2150 1600 2150 1675 
Q 2150 1675 2350 1700 
Q 3150 1775 3950 1900 
Q 4050 1925 4175 2050 
Q 4225 2100 4225 2100 
z
" transform="scale(0.015625)"/>
      </defs>
      <use xlink:href="#FZFSJW--GB1-0-5bc6"/>
      <use xlink:href="#FZFSJW--GB1-0-5ea6" x="100"/>
     </g>
    </g>
   </g>
   <g id="matplotlib.axis_2">
    <g id="ytick_1">
     <g id="line2d_7">
      <defs>
       <path id="m56d8c5927a" d="M 0 0 
L -3.5 0 
" style="stroke: #000000; stroke-width: 0.8"/>
      </defs>
      <g>
       <use xlink:href="#m56d8c5927a" x="57.6" y="264.097933" style="stroke: #000000; stroke-width: 0.8"/>
      </g>
     </g>
     <g id="text_8">
      <!-- 0.1 -->
      <g transform="translate(34.696875 267.897152) scale(0.1 -0.1)">
       <defs>
        <path id="DejaVuSans-31" d="M 794 531 
L 1825 531 
L 1825 4091 
L 703 3866 
L 703 4441 
L 1819 4666 
L 2450 4666 
L 2450 531 
L 3481 531 
L 3481 0 
L 794 0 
L 794 531 
z
" transform="scale(0.015625)"/>
       </defs>
       <use xlink:href="#DejaVuSans-30"/>
       <use xlink:href="#DejaVuSans-2e" x="63.623047"/>
       <use xlink:href="#DejaVuSans-31" x="95.410156"/>
      </g>
     </g>
    </g>
    <g id="ytick_2">
     <g id="line2d_8">
      <g>
       <use xlink:href="#m56d8c5927a" x="57.6" y="209.977128" style="stroke: #000000; stroke-width: 0.8"/>
      </g>
     </g>
     <g id="text_9">
      <!-- 0.2 -->
      <g transform="translate(34.696875 213.776346) scale(0.1 -0.1)">
       <defs>
        <path id="DejaVuSans-32" d="M 1228 531 
L 3431 531 
L 3431 0 
L 469 0 
L 469 531 
Q 828 903 1448 1529 
Q 2069 2156 2228 2338 
Q 2531 2678 2651 2914 
Q 2772 3150 2772 3378 
Q 2772 3750 2511 3984 
Q 2250 4219 1831 4219 
Q 1534 4219 1204 4116 
Q 875 4013 500 3803 
L 500 4441 
Q 881 4594 1212 4672 
Q 1544 4750 1819 4750 
Q 2544 4750 2975 4387 
Q 3406 4025 3406 3419 
Q 3406 3131 3298 2873 
Q 3191 2616 2906 2266 
Q 2828 2175 2409 1742 
Q 1991 1309 1228 531 
z
" transform="scale(0.015625)"/>
       </defs>
       <use xlink:href="#DejaVuSans-30"/>
       <use xlink:href="#DejaVuSans-2e" x="63.623047"/>
       <use xlink:href="#DejaVuSans-32" x="95.410156"/>
      </g>
     </g>
    </g>
    <g id="ytick_3">
     <g id="line2d_9">
      <g>
       <use xlink:href="#m56d8c5927a" x="57.6" y="155.856322" style="stroke: #000000; stroke-width: 0.8"/>
      </g>
     </g>
     <g id="text_10">
      <!-- 0.3 -->
      <g transform="translate(34.696875 159.655541) scale(0.1 -0.1)">
       <use xlink:href="#DejaVuSans-30"/>
       <use xlink:href="#DejaVuSans-2e" x="63.623047"/>
       <use xlink:href="#DejaVuSans-33" x="95.410156"/>
      </g>
     </g>
    </g>
    <g id="ytick_4">
     <g id="line2d_10">
      <g>
       <use xlink:href="#m56d8c5927a" x="57.6" y="101.735517" style="stroke: #000000; stroke-width: 0.8"/>
      </g>
     </g>
     <g id="text_11">
      <!-- 0.4 -->
      <g transform="translate(34.696875 105.534736) scale(0.1 -0.1)">
       <use xlink:href="#DejaVuSans-30"/>
       <use xlink:href="#DejaVuSans-2e" x="63.623047"/>
       <use xlink:href="#DejaVuSans-34" x="95.410156"/>
      </g>
     </g>
    </g>
    <g id="ytick_5">
     <g id="line2d_11">
      <g>
       <use xlink:href="#m56d8c5927a" x="57.6" y="47.614711" style="stroke: #000000; stroke-width: 0.8"/>
      </g>
     </g>
     <g id="text_12">
      <!-- 0.5 -->
      <g transform="translate(34.696875 51.41393) scale(0.1 -0.1)">
       <use xlink:href="#DejaVuSans-30"/>
       <use xlink:href="#DejaVuSans-2e" x="63.623047"/>
       <use xlink:href="#DejaVuSans-35" x="95.410156"/>
      </g>
     </g>
    </g>
    <g id="text_13">
     <!-- 含糖率 -->
     <g transform="translate(28.548437 189.528) rotate(-90) scale(0.1 -0.1)">
      <defs>
       <path id="FZFSJW--GB1-0-542b" d="M 3100 5275 
L 3200 5275 
Q 3375 5000 3425 4925 
Q 3475 4850 3400 4775 
Q 3275 4675 3175 4525 
Q 4575 3125 5175 2800 
Q 5450 2650 6050 2575 
L 6050 2475 
Q 5975 2450 5450 2375 
Q 5100 2325 5075 2350 
Q 5075 2350 5000 2425 
Q 4200 3300 3050 4375 
Q 1850 2700 375 1775 
Q 300 1775 300 1850 
Q 2000 3125 2950 4725 
Q 3100 5075 3100 5275 
z
M 2825 3600 
Q 2975 3700 3425 3150 
Q 3325 2650 3225 2800 
Q 3150 3050 2900 3475 
Q 2825 3600 2825 3600 
z
M 4025 2975 
Q 4100 2925 4275 2700 
Q 4300 2650 4200 2575 
Q 4100 2525 4075 2475 
Q 3425 1500 3275 1225 
Q 3325 1225 3425 1250 
Q 3875 1300 4025 1350 
Q 4050 1375 4150 1475 
Q 4225 1550 4225 1550 
Q 4250 1550 4425 1350 
Q 4475 1300 4500 1275 
Q 4550 1225 4475 1175 
Q 4375 1125 4350 1075 
Q 4325 1000 4200 400 
Q 4150 150 4125 50 
Q 4400 -175 4375 -225 
Q 4375 -225 4175 -250 
Q 3400 -300 2225 -400 
Q 2225 -850 2175 -800 
Q 1950 -550 1900 -375 
Q 1900 -375 1900 -350 
Q 2000 -225 2000 150 
Q 2000 975 1850 1525 
L 1950 1550 
L 2175 1100 
L 3125 1200 
Q 3125 1425 3100 1575 
Q 3100 1575 3100 1600 
Q 3275 1675 3775 2525 
Q 2500 2375 2025 2200 
Q 1975 2175 1950 2200 
Q 1900 2250 1775 2350 
Q 1650 2450 1650 2475 
Q 1650 2475 1750 2475 
Q 2375 2525 3800 2725 
Q 3825 2725 3900 2850 
Q 4000 2975 4025 2975 
z
M 4075 1075 
L 2175 875 
L 2225 -175 
L 3875 -25 
L 4075 1075 
z
" transform="scale(0.015625)"/>
       <path id="FZFSJW--GB1-0-7cd6" d="M 3700 5200 
Q 4225 4825 4300 4725 
Q 4300 4425 4200 4300 
Q 4175 4300 4075 4475 
Q 3875 4825 3650 5150 
L 3700 5200 
z
M 1675 5150 
Q 2100 4850 2125 4800 
Q 2125 4775 2100 4700 
Q 2025 4500 2000 4200 
Q 2000 3900 1950 2950 
L 2075 2975 
Q 2525 3850 2475 4300 
L 2525 4325 
Q 2825 4025 2800 3950 
Q 2800 3925 2750 3875 
Q 2650 3800 2600 3700 
Q 2525 3575 2350 3250 
Q 2250 3100 2200 3000 
Q 2400 3025 2500 3100 
Q 2525 3125 2525 3125 
Q 2525 3125 2575 3075 
Q 2800 2925 2775 2900 
Q 2775 2875 2550 2875 
Q 2225 2825 1950 2800 
L 1975 2525 
Q 2475 2300 2600 2200 
Q 2650 1825 2550 1775 
Q 2550 1775 2525 1800 
Q 2400 2025 1950 2375 
Q 1950 1225 1950 -25 
Q 1950 -700 1850 -675 
Q 1750 -550 1575 -225 
Q 1575 -225 1575 -200 
Q 1800 50 1750 2250 
Q 1125 1200 475 650 
L 425 700 
Q 1500 2000 1700 2750 
Q 1325 2700 1050 2625 
Q 950 2575 950 2600 
Q 800 2625 675 2775 
Q 675 2775 850 2800 
Q 1350 2850 1775 2925 
Q 1800 3325 1775 4050 
Q 1775 4325 1775 4450 
Q 1725 4875 1625 5125 
L 1675 5150 
z
M 3000 4500 
L 3225 4075 
Q 4700 4225 5175 4375 
Q 5250 4375 5250 4375 
Q 5500 4225 5500 4150 
Q 5025 4125 4100 4000 
Q 4150 3950 4300 3800 
Q 4325 3775 4325 3775 
Q 4325 3750 4300 3725 
Q 4225 3625 4225 3375 
Q 4925 3450 4950 3500 
Q 4975 3525 5025 3575 
Q 5075 3675 5100 3675 
Q 5250 3600 5375 3450 
Q 5375 3450 5300 3375 
Q 5225 3300 5225 3275 
Q 5150 3100 5125 2750 
Q 5450 2800 5650 2850 
Q 5700 2875 5725 2875 
Q 5975 2700 5975 2650 
Q 5975 2650 5825 2625 
Q 5450 2625 5100 2575 
L 5050 2025 
Q 5075 2000 5100 2000 
Q 5300 1850 5225 1850 
Q 5225 1825 5225 1825 
Q 5225 1800 4675 1775 
Q 4250 1725 4200 1725 
L 4200 1025 
Q 4625 1050 4750 1100 
Q 4800 1100 4925 1250 
Q 5000 1325 5000 1325 
Q 5175 1200 5275 1075 
Q 5075 900 5075 850 
Q 5025 350 4950 -100 
Q 5175 -275 5150 -300 
Q 5150 -300 4950 -325 
Q 4350 -350 3525 -400 
Q 3525 -450 3500 -525 
Q 3500 -775 3450 -750 
Q 3325 -575 3225 -300 
Q 3225 -300 3250 -275 
Q 3400 -150 3275 1225 
L 3350 1250 
L 3475 950 
L 4075 1000 
Q 3900 1300 3900 1325 
Q 3900 1350 3925 1400 
Q 4025 1525 4000 1700 
Q 3675 1675 3500 1625 
Q 3450 1625 3450 1625 
Q 3325 1675 3175 1775 
Q 3175 1775 3300 1800 
Q 3650 1800 4000 1850 
L 4025 2450 
Q 3525 2400 3300 2325 
Q 3275 2325 3275 2325 
Q 3250 2350 3200 2375 
Q 3150 2400 3125 2425 
Q 2900 425 2150 -475 
L 2075 -425 
Q 2975 1000 2975 3350 
Q 2975 4275 2925 4500 
L 3000 4500 
z
M 950 4150 
Q 1225 3975 1525 3625 
Q 1500 3275 1375 3175 
Q 1375 3175 1350 3225 
Q 1250 3525 925 4125 
L 950 4150 
z
M 3950 3975 
L 3225 3850 
L 3125 2525 
Q 3375 2525 4025 2625 
L 4025 3175 
Q 3700 3100 3800 3125 
Q 3475 3075 3475 3075 
Q 3250 3225 3250 3275 
Q 3575 3275 4025 3350 
Q 4025 3825 3950 3975 
z
M 4950 3300 
L 4225 3200 
L 4200 2650 
L 4900 2725 
L 4950 3300 
z
M 4900 2550 
L 4225 2475 
L 4200 1900 
Q 4350 1900 4850 1975 
L 4900 2550 
z
M 4875 900 
Q 4475 875 3525 750 
L 3500 -225 
Q 3900 -200 4750 -100 
L 4875 900 
z
" transform="scale(0.015625)"/>
       <path id="FZFSJW--GB1-0-7387" d="M 2800 5250 
Q 3400 4750 3400 4650 
Q 3400 4600 3325 4375 
Q 3300 4300 3275 4250 
Q 4575 4350 4900 4475 
Q 4925 4475 4925 4475 
Q 5200 4300 5175 4225 
L 3150 4075 
Q 3275 3825 3275 3800 
Q 3275 3800 3225 3750 
Q 3125 3700 3050 3625 
Q 2750 3250 2575 3000 
L 3325 3075 
Q 3575 3400 3625 3625 
L 3650 3625 
Q 3825 3250 3800 3225 
Q 3800 3200 3725 3150 
Q 3625 3100 3550 3025 
Q 3250 2725 2700 2050 
Q 2975 2100 3675 2175 
L 3425 2600 
L 3475 2625 
Q 3500 2600 3575 2550 
Q 4075 2125 4075 2075 
Q 4000 1800 3925 1700 
Q 3925 1700 3875 1775 
Q 3800 1950 3725 2050 
L 3100 1925 
Q 3150 1875 3275 1800 
Q 3400 1675 3400 1675 
Q 3400 1650 3375 1600 
Q 3325 1475 3325 1250 
Q 4825 1350 5375 1475 
Q 5425 1475 5450 1475 
Q 5775 1300 5750 1225 
Q 4950 1175 3300 1075 
Q 3325 -1000 3175 -800 
Q 3000 -500 2950 -350 
Q 2950 -325 2975 -300 
Q 3025 -200 3050 75 
Q 3050 75 3050 150 
Q 3075 700 3075 1075 
Q 1900 950 1050 825 
Q 950 825 950 825 
Q 600 1025 575 1050 
Q 575 1075 900 1075 
Q 1950 1125 3075 1250 
Q 3050 1725 2975 1900 
Q 2850 1875 2650 1825 
Q 2575 1800 2525 1800 
Q 2425 1800 2225 1675 
Q 2050 1875 2075 1925 
Q 2075 1925 2125 1950 
Q 2300 2000 2425 2075 
Q 2700 2275 3175 2900 
Q 2725 2875 2550 2800 
Q 2500 2775 2425 2750 
Q 2350 2725 2300 2700 
Q 2200 2775 2125 2925 
Q 2125 2925 2175 2950 
Q 2300 3000 2350 3050 
Q 2800 3425 2975 4050 
Q 2225 3975 1525 3875 
Q 1400 3850 1375 3850 
Q 1075 4050 1075 4100 
Q 1100 4100 1225 4100 
Q 1925 4125 3125 4225 
Q 3000 4800 2750 5200 
L 2800 5250 
z
M 4825 3925 
Q 4850 3875 4925 3750 
Q 5050 3500 5025 3500 
Q 5025 3475 4975 3475 
Q 4675 3325 4125 2825 
Q 4825 2475 5075 2300 
Q 5125 1975 5100 1825 
Q 5075 1825 4900 2000 
Q 4450 2450 3950 2825 
Q 4325 3100 4625 3600 
Q 4750 3800 4750 3900 
L 4825 3925 
z
M 1075 3600 
Q 1125 3575 1225 3525 
Q 1675 3300 1725 3250 
Q 1750 2875 1675 2775 
Q 1650 2775 1550 2925 
Q 1275 3325 1050 3550 
L 1075 3600 
z
M 2075 2650 
L 2125 2600 
Q 1325 1950 1100 1725 
Q 800 1800 700 1850 
Q 700 1875 875 1975 
Q 1425 2250 2075 2650 
z
" transform="scale(0.015625)"/>
      </defs>
      <use xlink:href="#FZFSJW--GB1-0-542b"/>
      <use xlink:href="#FZFSJW--GB1-0-7cd6" x="100"/>
      <use xlink:href="#FZFSJW--GB1-0-7387" x="200"/>
     </g>
    </g>
   </g>
   <g id="patch_3">
    <path d="M 57.6 307.584 
L 57.6 41.472 
" style="fill: none; stroke: #000000; stroke-width: 0.8; stroke-linejoin: miter; stroke-linecap: square"/>
   </g>
   <g id="patch_4">
    <path d="M 414.72 307.584 
L 414.72 41.472 
" style="fill: none; stroke: #000000; stroke-width: 0.8; stroke-linejoin: miter; stroke-linecap: square"/>
   </g>
   <g id="patch_5">
    <path d="M 57.6 307.584 
L 414.72 307.584 
" style="fill: none; stroke: #000000; stroke-width: 0.8; stroke-linejoin: miter; stroke-linecap: square"/>
   </g>
   <g id="patch_6">
    <path d="M 57.6 41.472 
L 414.72 41.472 
" style="fill: none; stroke: #000000; stroke-width: 0.8; stroke-linejoin: miter; stroke-linecap: square"/>
   </g>
   <g id="text_14">
    <!-- 西瓜数据集4.0 -->
    <g transform="translate(204.558437 35.472) scale(0.1 -0.1)">
     <defs>
      <path id="FZFSJW--GB1-0-897f" d="M 5475 4700 
Q 5900 4500 5875 4425 
Q 5800 4425 5375 4400 
Q 4425 4325 3750 4275 
L 3750 3150 
Q 4225 3175 4850 3250 
Q 4925 3350 5025 3500 
Q 5200 3375 5325 3200 
Q 5325 3200 5275 3100 
Q 5175 2975 5175 2950 
Q 5075 2150 5000 1225 
Q 4950 250 4750 -325 
Q 4725 -375 4700 -325 
Q 4675 -275 4500 175 
Q 2725 125 1800 -25 
L 1825 -525 
Q 1825 -525 1775 -525 
Q 1750 -500 1675 -425 
Q 1500 -200 1500 -150 
Q 1500 -150 1500 -100 
Q 1575 75 1550 500 
Q 1525 1575 1425 2525 
Q 1375 3100 1300 3450 
L 1375 3450 
Q 1475 3250 1625 2950 
Q 1875 2975 2650 3050 
Q 2675 3400 2675 4175 
Q 1550 4100 975 4000 
Q 950 4000 950 4000 
Q 950 4000 850 4075 
Q 600 4250 625 4250 
Q 625 4250 1350 4300 
Q 5275 4525 5475 4700 
z
M 3525 4250 
Q 3100 4225 2900 4200 
Q 2925 3750 2875 3075 
L 3525 3125 
L 3525 4250 
z
M 4925 3025 
L 3750 2950 
Q 3725 1825 3725 1775 
Q 3700 1350 4375 1600 
Q 4650 1400 4600 1350 
Q 4575 1350 4400 1325 
Q 4150 1300 4050 1300 
Q 3475 1225 3525 1700 
Q 3525 2325 3525 2925 
L 2875 2900 
Q 2725 1400 1925 750 
L 1875 825 
Q 2550 1550 2650 2875 
L 1650 2775 
L 1775 200 
Q 3375 300 4225 400 
Q 4400 425 4425 425 
Q 4475 400 4600 300 
Q 4800 1175 4925 3025 
z
" transform="scale(0.015625)"/>
      <path id="FZFSJW--GB1-0-74dc" d="M 4425 4925 
Q 4575 4825 4700 4575 
Q 4700 4550 4600 4525 
Q 4225 4450 3675 4275 
Q 3925 4125 3950 4125 
Q 3925 3775 4350 2525 
Q 4875 875 5075 500 
Q 5250 200 5825 125 
Q 5900 100 5900 100 
L 5875 -25 
Q 4925 -50 4850 -25 
Q 4800 0 4350 1650 
Q 3675 4175 3575 4250 
L 3025 4100 
Q 3275 3900 3300 3825 
Q 3300 3800 3300 3750 
Q 3200 3525 3150 2400 
Q 3125 1875 3100 1150 
Q 3050 625 3050 400 
L 3875 750 
L 3600 1450 
L 3675 1475 
Q 4025 925 4350 375 
Q 4300 150 4150 -50 
Q 4125 -50 4025 250 
Q 3950 500 3900 625 
Q 2925 125 2875 -50 
L 2625 175 
Q 2875 325 2875 950 
Q 2875 1025 2875 1200 
Q 3050 4225 2850 4075 
L 2225 3900 
Q 2075 2125 1750 1225 
Q 1300 125 450 -500 
L 375 -425 
Q 1925 675 1975 4050 
Q 2025 4275 1950 4675 
L 2025 4675 
L 2225 4075 
Q 4175 4575 4400 4900 
Q 4425 4925 4425 4925 
z
" transform="scale(0.015625)"/>
      <path id="FZFSJW--GB1-0-6570" d="M 4025 5225 
Q 4375 4875 4400 4750 
Q 4400 4725 4375 4700 
Q 4300 4600 4225 4300 
Q 4200 4225 4125 4000 
Q 3925 3375 3850 3150 
Q 4825 3250 5250 3400 
Q 5300 3425 5300 3425 
Q 5525 3300 5575 3175 
Q 5575 3175 5475 3150 
Q 5175 3125 4725 3050 
Q 4950 2825 4950 2775 
Q 4950 2750 4925 2725 
Q 4825 2600 4750 2450 
Q 4575 1775 4325 1250 
Q 4775 400 5000 75 
Q 5225 -125 5850 -200 
L 5850 -300 
Q 5175 -375 4800 -325 
Q 4775 -325 4725 -150 
Q 4525 425 4225 1050 
Q 3575 -100 2600 -675 
L 2550 -625 
Q 3550 125 4125 1300 
Q 3725 2125 3550 2350 
Q 3375 2000 3250 1850 
L 3175 1875 
Q 3650 2850 3875 3825 
Q 4100 4825 3925 5200 
L 4025 5225 
z
M 2100 5125 
Q 2500 4825 2500 4775 
Q 2500 4775 2475 4725 
Q 2375 4475 2375 4075 
Q 2375 4025 2375 3925 
Q 2350 3700 2375 3475 
Q 2600 3525 2675 3525 
Q 3075 4450 3000 4700 
L 3050 4750 
Q 3325 4450 3325 4400 
Q 3325 4375 3300 4350 
Q 3100 4200 2800 3550 
Q 3100 3575 3225 3650 
Q 3250 3650 3275 3650 
Q 3575 3475 3525 3425 
Q 3525 3425 3450 3425 
Q 3025 3400 2350 3325 
L 2350 3225 
Q 3125 2800 3150 2775 
Q 3250 2350 3150 2375 
Q 3125 2375 3025 2500 
Q 2700 2850 2350 3075 
Q 2350 1950 2300 2125 
Q 2175 2225 2075 2525 
Q 2075 2525 2100 2550 
Q 2175 2575 2175 3200 
Q 1375 2075 525 1650 
L 500 1700 
Q 1450 2400 1900 3250 
Q 1450 3200 1075 3150 
Q 925 3100 925 3125 
L 675 3350 
Q 675 3350 775 3350 
Q 1300 3375 2175 3450 
Q 2175 3825 2175 4100 
Q 2175 4850 2050 5075 
L 2100 5125 
z
M 1200 4550 
Q 1850 4100 1825 4050 
Q 1850 3700 1725 3575 
Q 1700 3575 1600 3775 
Q 1400 4225 1175 4525 
L 1200 4550 
z
M 4575 3025 
L 3775 2950 
L 3600 2525 
L 3800 2475 
Q 3775 2325 4200 1500 
Q 4575 2350 4575 3025 
z
M 1975 2250 
Q 2000 2275 2025 2250 
Q 2250 1925 2250 1900 
Q 2250 1875 2225 1825 
Q 2125 1725 2025 1525 
Q 2325 1550 2725 1625 
Q 2825 1850 2800 2000 
L 2850 2025 
Q 3125 1675 3100 1650 
Q 3100 1650 3075 1600 
Q 2950 1525 2925 1450 
Q 2775 1075 2425 575 
Q 2925 425 2925 400 
Q 3050 175 3075 0 
Q 3075 0 2950 50 
Q 2600 300 2275 400 
Q 1700 -225 775 -575 
L 750 -500 
Q 1650 -50 2075 475 
L 1425 675 
L 1725 1300 
Q 1350 1250 1075 1200 
Q 975 1150 950 1175 
Q 850 1250 750 1325 
Q 650 1400 675 1400 
Q 675 1400 725 1400 
Q 1050 1375 1775 1475 
Q 1975 1875 1950 2175 
Q 1950 2250 1975 2250 
z
M 2675 1450 
L 1950 1350 
L 1675 775 
L 2225 625 
Q 2500 1000 2675 1450 
z
" transform="scale(0.015625)"/>
      <path id="FZFSJW--GB1-0-636e" d="M 1675 5275 
Q 2075 4925 2100 4875 
Q 2100 4850 2075 4800 
Q 1950 4625 1950 4325 
Q 1950 4250 1950 4075 
Q 1925 3800 1925 3600 
Q 2400 3675 2575 3750 
Q 2600 3775 2625 3775 
Q 2875 3600 2825 3575 
Q 2825 3575 2750 3550 
Q 2425 3525 1950 3425 
L 1950 2400 
L 2700 2700 
L 2750 2625 
L 1950 2250 
Q 1925 475 1925 425 
Q 1925 -575 1750 -575 
Q 1725 -575 1700 -525 
Q 1500 -175 975 425 
L 1025 475 
Q 1600 -25 1675 0 
Q 1700 -25 1725 150 
Q 1725 250 1750 1125 
Q 1750 1525 1750 2125 
Q 1300 1925 1050 1775 
Q 775 1625 775 1600 
Q 650 1675 500 1725 
Q 350 1800 400 1800 
Q 400 1825 575 1875 
Q 1100 2075 1750 2325 
L 1750 3400 
Q 1350 3300 1000 3200 
Q 825 3150 825 3175 
Q 800 3175 775 3200 
Q 450 3375 525 3375 
Q 525 3375 625 3400 
Q 1075 3450 1750 3550 
Q 1750 3950 1750 4325 
Q 1700 5100 1625 5225 
L 1675 5275 
z
M 2975 5025 
L 3250 4450 
L 4900 4675 
Q 4950 4750 5000 4825 
Q 5025 4900 5050 4900 
Q 5250 4775 5375 4625 
Q 5250 4525 5225 4450 
Q 5175 4400 5050 3650 
Q 5325 3425 5300 3400 
Q 5300 3375 5125 3375 
Q 4725 3350 4250 3275 
Q 4475 3000 4475 2975 
Q 4475 2950 4450 2900 
Q 4425 2875 4400 2825 
Q 4375 2750 4325 2450 
Q 4300 2350 4300 2300 
Q 5400 2400 5625 2550 
Q 5650 2550 5650 2550 
Q 5950 2425 6000 2300 
L 4300 2125 
L 4225 1175 
L 4925 1250 
Q 5000 1325 5050 1425 
Q 5100 1475 5100 1475 
Q 5300 1350 5425 1200 
Q 5425 1200 5375 1150 
Q 5275 1050 5250 975 
Q 5225 850 5200 600 
Q 5150 325 5125 125 
Q 5400 -100 5350 -150 
Q 5350 -150 5150 -175 
Q 4500 -200 3600 -275 
Q 3600 -850 3575 -775 
Q 3425 -675 3300 -375 
Q 3300 -350 3325 -325 
Q 3400 -250 3400 -75 
Q 3375 1200 3275 1475 
L 3350 1500 
L 3550 1100 
L 4050 1150 
L 4100 2100 
L 3050 1975 
Q 2800 375 2100 -650 
L 1975 -600 
Q 2900 900 2975 3075 
Q 2975 3075 2975 3125 
Q 3000 3700 3000 4175 
Q 3000 4625 2925 5000 
L 2975 5025 
z
M 4950 4475 
L 3250 4275 
L 3175 3350 
Q 4350 3425 4850 3550 
L 4950 4475 
z
M 4075 3250 
L 3175 3150 
Q 3175 3075 3150 2925 
Q 3150 2425 3075 2150 
L 4100 2250 
Q 4150 3125 4075 3250 
z
M 5000 1075 
L 3550 925 
L 3575 -125 
Q 4175 -100 4900 50 
L 5000 1075 
z
" transform="scale(0.015625)"/>
      <path id="FZFSJW--GB1-0-96c6" d="M 3300 5275 
Q 3600 4975 3800 4725 
Q 3750 4450 3600 4350 
Q 3575 4350 3525 4525 
Q 3400 4925 3250 5225 
L 3300 5275 
z
M 2325 5250 
L 2575 4850 
Q 2575 4850 2550 4825 
Q 2300 4625 2050 4225 
L 2050 4025 
Q 2400 4050 2975 4100 
Q 3300 4150 3425 4150 
Q 4500 4300 4900 4425 
Q 5150 4250 5175 4175 
Q 4300 4100 3550 4000 
L 3575 3500 
Q 4275 3600 4600 3675 
Q 4650 3700 4650 3700 
Q 4825 3575 4875 3475 
Q 4575 3475 3550 3350 
L 3550 2850 
Q 4450 2950 4700 3050 
Q 4725 3050 4725 3050 
Q 4900 2950 4950 2825 
L 3550 2675 
L 3550 2175 
Q 4400 2250 4925 2375 
Q 5000 2400 5000 2400 
Q 5200 2300 5275 2150 
Q 3775 2050 3225 1975 
Q 3450 1775 3450 1750 
Q 3450 1725 3425 1700 
Q 3350 1525 3350 1275 
Q 4950 1375 5425 1550 
Q 5450 1550 5450 1550 
Q 5750 1400 5775 1300 
Q 5675 1300 5375 1275 
Q 4375 1200 3575 1125 
Q 4350 375 4800 125 
Q 5325 -175 5950 -175 
L 5950 -275 
Q 5100 -350 4850 -375 
Q 4825 -375 4500 -25 
Q 3900 600 3375 1125 
L 3350 -375 
Q 3350 -800 3300 -775 
Q 3125 -550 3025 -350 
Q 3025 -350 3025 -325 
Q 3150 -50 3150 275 
Q 3150 550 3150 975 
Q 2125 0 525 -650 
L 500 -550 
Q 2150 200 2925 1075 
Q 1250 900 1100 825 
Q 950 900 775 1075 
Q 1450 1075 3125 1250 
Q 3150 1700 3050 1950 
Q 2675 1925 2375 1850 
Q 2275 1825 2250 1825 
Q 2125 1875 2050 1925 
Q 2050 1500 2000 1500 
Q 1825 1650 1725 1925 
Q 1725 1925 1750 1950 
Q 1875 2175 1875 2825 
L 1850 3950 
Q 1675 3800 1325 3450 
Q 975 3100 800 2950 
L 725 3000 
Q 1325 3575 1875 4325 
Q 2325 4900 2250 5225 
Q 2250 5250 2300 5250 
Q 2325 5250 2325 5250 
z
M 3325 3975 
Q 3175 3950 2650 3875 
Q 2375 3850 2250 3825 
Q 2225 3825 2150 3875 
Q 2100 3900 2050 3925 
L 2050 2025 
Q 3025 2100 3325 2150 
L 3350 2650 
Q 3000 2625 2575 2550 
Q 2475 2525 2450 2525 
Q 2300 2600 2225 2700 
Q 2900 2750 3350 2825 
L 3350 3325 
Q 2850 3275 2550 3200 
Q 2500 3175 2475 3175 
Q 2300 3275 2200 3375 
Q 3025 3450 3325 3475 
L 3325 3975 
z
" transform="scale(0.015625)"/>
      <path id="FZFSJW--GB1-0-34" d="M 550 1325 
L 2400 1325 
L 2400 4150 
L 550 1325 
z
M 3275 1075 
L 2650 1075 
L 2650 -150 
L 2400 -150 
L 2400 1075 
L 250 1075 
L 250 1275 
L 2450 4625 
L 2650 4625 
L 2650 1325 
L 3275 1325 
L 3275 1075 
z
" transform="scale(0.015625)"/>
      <path id="FZFSJW--GB1-0-2e" d="M 1250 425 
L 1250 -150 
L 650 -150 
L 650 425 
L 1250 425 
z
" transform="scale(0.015625)"/>
      <path id="FZFSJW--GB1-0-30" d="M 1550 4450 
Q 575 4400 550 2250 
Q 575 125 1550 75 
Q 2550 75 2550 2250 
Q 2550 4450 1550 4450 
z
M 1550 -200 
Q 275 -200 275 2250 
Q 300 4675 1550 4725 
Q 2825 4700 2825 2250 
Q 2825 -175 1550 -200 
z
" transform="scale(0.015625)"/>
     </defs>
     <use xlink:href="#FZFSJW--GB1-0-897f"/>
     <use xlink:href="#FZFSJW--GB1-0-74dc" x="100"/>
     <use xlink:href="#FZFSJW--GB1-0-6570" x="200"/>
     <use xlink:href="#FZFSJW--GB1-0-636e" x="300"/>
     <use xlink:href="#FZFSJW--GB1-0-96c6" x="400"/>
     <use xlink:href="#FZFSJW--GB1-0-34" x="500"/>
     <use xlink:href="#FZFSJW--GB1-0-2e" x="553.90625"/>
     <use xlink:href="#FZFSJW--GB1-0-30" x="583.59375"/>
    </g>
   </g>
  </g>
 </g>
 <defs>
  <clipPath id="p48d593c844">
   <rect x="57.6" y="41.472" width="357.12" height="266.112"/>
  </clipPath>
 </defs>
</svg>
