<?xml version="1.0" encoding="utf-8" standalone="no"?>
<!DOCTYPE svg PUBLIC "-//W3C//DTD SVG 1.1//EN"
  "http://www.w3.org/Graphics/SVG/1.1/DTD/svg11.dtd">
<svg height="504pt" version="1.1" viewBox="0 0 1080 504" width="1080pt" xmlns="http://www.w3.org/2000/svg" xmlns:xlink="http://www.w3.org/1999/xlink">
 <metadata>
  <rdf:RDF xmlns:cc="http://creativecommons.org/ns#" xmlns:dc="http://purl.org/dc/elements/1.1/" xmlns:rdf="http://www.w3.org/1999/02/22-rdf-syntax-ns#">
   <cc:Work>
    <dc:type rdf:resource="http://purl.org/dc/dcmitype/StillImage"/>
    <dc:date>2024-02-05T15:52:24.057648</dc:date>
    <dc:format>image/svg+xml</dc:format>
    <dc:creator>
     <cc:Agent>
      <dc:title>Matplotlib v3.4.3, https://matplotlib.org/</dc:title>
     </cc:Agent>
    </dc:creator>
   </cc:Work>
  </rdf:RDF>
 </metadata>
 <defs>
  <style type="text/css">*{stroke-linecap:butt;stroke-linejoin:round;}</style>
 </defs>
 <g id="figure_1">
  <g id="patch_1">
   <path d="M 0 504 
L 1080 504 
L 1080 0 
L 0 0 
z
" style="fill:#ffffff;"/>
  </g>
  <g id="axes_1">
   <g id="patch_2">
    <path d="M 135 448.56 
L 972 448.56 
L 972 60.48 
L 135 60.48 
z
" style="fill:#ffffff;"/>
   </g>
   <g id="patch_3">
    <path clip-path="url(#pbbd6ec7f5b)" d="M 179.900491 448.56 
L 179.900491 60.48 
L 200.465602 60.48 
L 200.465602 448.56 
z
" style="fill:#0000ff;opacity:0.3;stroke:#0000ff;stroke-linejoin:miter;"/>
   </g>
   <g id="patch_4">
    <path clip-path="url(#pbbd6ec7f5b)" d="M 182.185504 448.56 
L 182.185504 60.48 
L 202.750614 60.48 
L 202.750614 448.56 
z
" style="fill:#0000ff;opacity:0.3;stroke:#0000ff;stroke-linejoin:miter;"/>
   </g>
   <g id="patch_5">
    <path clip-path="url(#pbbd6ec7f5b)" d="M 184.470516 448.56 
L 184.470516 60.48 
L 205.035627 60.48 
L 205.035627 448.56 
z
" style="fill:#0000ff;opacity:0.3;stroke:#0000ff;stroke-linejoin:miter;"/>
   </g>
   <g id="patch_6">
    <path clip-path="url(#pbbd6ec7f5b)" d="M 186.755528 448.56 
L 186.755528 60.48 
L 207.320639 60.48 
L 207.320639 448.56 
z
" style="fill:#0000ff;opacity:0.3;stroke:#0000ff;stroke-linejoin:miter;"/>
   </g>
   <g id="patch_7">
    <path clip-path="url(#pbbd6ec7f5b)" d="M 189.040541 448.56 
L 189.040541 60.48 
L 209.605651 60.48 
L 209.605651 448.56 
z
" style="fill:#0000ff;opacity:0.3;stroke:#0000ff;stroke-linejoin:miter;"/>
   </g>
   <g id="patch_8">
    <path clip-path="url(#pbbd6ec7f5b)" d="M 191.325553 448.56 
L 191.325553 60.48 
L 211.890663 60.48 
L 211.890663 448.56 
z
" style="fill:#0000ff;opacity:0.3;stroke:#0000ff;stroke-linejoin:miter;"/>
   </g>
   <g id="patch_9">
    <path clip-path="url(#pbbd6ec7f5b)" d="M 211.890663 448.56 
L 211.890663 60.48 
L 232.455774 60.48 
L 232.455774 448.56 
z
" style="fill:#0000ff;opacity:0.3;stroke:#0000ff;stroke-linejoin:miter;"/>
   </g>
   <g id="patch_10">
    <path clip-path="url(#pbbd6ec7f5b)" d="M 214.175676 448.56 
L 214.175676 60.48 
L 234.740786 60.48 
L 234.740786 448.56 
z
" style="fill:#0000ff;opacity:0.3;stroke:#0000ff;stroke-linejoin:miter;"/>
   </g>
   <g id="patch_11">
    <path clip-path="url(#pbbd6ec7f5b)" d="M 216.460688 448.56 
L 216.460688 60.48 
L 237.025799 60.48 
L 237.025799 448.56 
z
" style="fill:#0000ff;opacity:0.3;stroke:#0000ff;stroke-linejoin:miter;"/>
   </g>
   <g id="patch_12">
    <path clip-path="url(#pbbd6ec7f5b)" d="M 218.7457 448.56 
L 218.7457 60.48 
L 239.310811 60.48 
L 239.310811 448.56 
z
" style="fill:#0000ff;opacity:0.3;stroke:#0000ff;stroke-linejoin:miter;"/>
   </g>
   <g id="patch_13">
    <path clip-path="url(#pbbd6ec7f5b)" d="M 221.030713 448.56 
L 221.030713 60.48 
L 241.595823 60.48 
L 241.595823 448.56 
z
" style="fill:#0000ff;opacity:0.3;stroke:#0000ff;stroke-linejoin:miter;"/>
   </g>
   <g id="patch_14">
    <path clip-path="url(#pbbd6ec7f5b)" d="M 223.315725 448.56 
L 223.315725 60.48 
L 243.880835 60.48 
L 243.880835 448.56 
z
" style="fill:#0000ff;opacity:0.3;stroke:#0000ff;stroke-linejoin:miter;"/>
   </g>
   <g id="patch_15">
    <path clip-path="url(#pbbd6ec7f5b)" d="M 225.600737 448.56 
L 225.600737 60.48 
L 246.165848 60.48 
L 246.165848 448.56 
z
" style="fill:#0000ff;opacity:0.3;stroke:#0000ff;stroke-linejoin:miter;"/>
   </g>
   <g id="patch_16">
    <path clip-path="url(#pbbd6ec7f5b)" d="M 227.885749 448.56 
L 227.885749 60.48 
L 248.45086 60.48 
L 248.45086 448.56 
z
" style="fill:#0000ff;opacity:0.3;stroke:#0000ff;stroke-linejoin:miter;"/>
   </g>
   <g id="patch_17">
    <path clip-path="url(#pbbd6ec7f5b)" d="M 230.170762 448.56 
L 230.170762 60.48 
L 250.735872 60.48 
L 250.735872 448.56 
z
" style="fill:#0000ff;opacity:0.3;stroke:#0000ff;stroke-linejoin:miter;"/>
   </g>
   <g id="patch_18">
    <path clip-path="url(#pbbd6ec7f5b)" d="M 232.455774 448.56 
L 232.455774 60.48 
L 253.020885 60.48 
L 253.020885 448.56 
z
" style="fill:#0000ff;opacity:0.3;stroke:#0000ff;stroke-linejoin:miter;"/>
   </g>
   <g id="patch_19">
    <path clip-path="url(#pbbd6ec7f5b)" d="M 234.740786 448.56 
L 234.740786 60.48 
L 255.305897 60.48 
L 255.305897 448.56 
z
" style="fill:#0000ff;opacity:0.3;stroke:#0000ff;stroke-linejoin:miter;"/>
   </g>
   <g id="patch_20">
    <path clip-path="url(#pbbd6ec7f5b)" d="M 237.025799 448.56 
L 237.025799 60.48 
L 257.590909 60.48 
L 257.590909 448.56 
z
" style="fill:#0000ff;opacity:0.3;stroke:#0000ff;stroke-linejoin:miter;"/>
   </g>
   <g id="patch_21">
    <path clip-path="url(#pbbd6ec7f5b)" d="M 239.310811 448.56 
L 239.310811 60.48 
L 259.875921 60.48 
L 259.875921 448.56 
z
" style="fill:#0000ff;opacity:0.3;stroke:#0000ff;stroke-linejoin:miter;"/>
   </g>
   <g id="patch_22">
    <path clip-path="url(#pbbd6ec7f5b)" d="M 273.585995 448.56 
L 273.585995 60.48 
L 294.151106 60.48 
L 294.151106 448.56 
z
" style="fill:#ff0000;opacity:0.3;stroke:#ff0000;stroke-linejoin:miter;"/>
   </g>
   <g id="patch_23">
    <path clip-path="url(#pbbd6ec7f5b)" d="M 275.871007 448.56 
L 275.871007 60.48 
L 296.436118 60.48 
L 296.436118 448.56 
z
" style="fill:#ff0000;opacity:0.3;stroke:#ff0000;stroke-linejoin:miter;"/>
   </g>
   <g id="patch_24">
    <path clip-path="url(#pbbd6ec7f5b)" d="M 296.436118 448.56 
L 296.436118 60.48 
L 317.001229 60.48 
L 317.001229 448.56 
z
" style="fill:#ff0000;opacity:0.3;stroke:#ff0000;stroke-linejoin:miter;"/>
   </g>
   <g id="patch_25">
    <path clip-path="url(#pbbd6ec7f5b)" d="M 298.72113 448.56 
L 298.72113 60.48 
L 319.286241 60.48 
L 319.286241 448.56 
z
" style="fill:#ff0000;opacity:0.3;stroke:#ff0000;stroke-linejoin:miter;"/>
   </g>
   <g id="patch_26">
    <path clip-path="url(#pbbd6ec7f5b)" d="M 301.006143 448.56 
L 301.006143 60.48 
L 321.571253 60.48 
L 321.571253 448.56 
z
" style="fill:#ff0000;opacity:0.3;stroke:#ff0000;stroke-linejoin:miter;"/>
   </g>
   <g id="patch_27">
    <path clip-path="url(#pbbd6ec7f5b)" d="M 330.711302 448.56 
L 330.711302 60.48 
L 351.276413 60.48 
L 351.276413 448.56 
z
" style="fill:#0000ff;opacity:0.3;stroke:#0000ff;stroke-linejoin:miter;"/>
   </g>
   <g id="patch_28">
    <path clip-path="url(#pbbd6ec7f5b)" d="M 332.996314 448.56 
L 332.996314 60.48 
L 353.561425 60.48 
L 353.561425 448.56 
z
" style="fill:#0000ff;opacity:0.3;stroke:#0000ff;stroke-linejoin:miter;"/>
   </g>
   <g id="patch_29">
    <path clip-path="url(#pbbd6ec7f5b)" d="M 415.256757 448.56 
L 415.256757 60.48 
L 435.821867 60.48 
L 435.821867 448.56 
z
" style="fill:#0000ff;opacity:0.3;stroke:#0000ff;stroke-linejoin:miter;"/>
   </g>
   <g id="patch_30">
    <path clip-path="url(#pbbd6ec7f5b)" d="M 417.541769 448.56 
L 417.541769 60.48 
L 438.10688 60.48 
L 438.10688 448.56 
z
" style="fill:#0000ff;opacity:0.3;stroke:#0000ff;stroke-linejoin:miter;"/>
   </g>
   <g id="patch_31">
    <path clip-path="url(#pbbd6ec7f5b)" d="M 444.961916 448.56 
L 444.961916 60.48 
L 465.527027 60.48 
L 465.527027 448.56 
z
" style="fill:#0000ff;opacity:0.3;stroke:#0000ff;stroke-linejoin:miter;"/>
   </g>
   <g id="patch_32">
    <path clip-path="url(#pbbd6ec7f5b)" d="M 447.246929 448.56 
L 447.246929 60.48 
L 467.812039 60.48 
L 467.812039 448.56 
z
" style="fill:#0000ff;opacity:0.3;stroke:#0000ff;stroke-linejoin:miter;"/>
   </g>
   <g id="patch_33">
    <path clip-path="url(#pbbd6ec7f5b)" d="M 449.531941 448.56 
L 449.531941 60.48 
L 470.097052 60.48 
L 470.097052 448.56 
z
" style="fill:#0000ff;opacity:0.3;stroke:#0000ff;stroke-linejoin:miter;"/>
   </g>
   <g id="patch_34">
    <path clip-path="url(#pbbd6ec7f5b)" d="M 481.522113 448.56 
L 481.522113 60.48 
L 502.087224 60.48 
L 502.087224 448.56 
z
" style="fill:#ff0000;opacity:0.3;stroke:#ff0000;stroke-linejoin:miter;"/>
   </g>
   <g id="patch_35">
    <path clip-path="url(#pbbd6ec7f5b)" d="M 483.807125 448.56 
L 483.807125 60.48 
L 504.372236 60.48 
L 504.372236 448.56 
z
" style="fill:#ff0000;opacity:0.3;stroke:#ff0000;stroke-linejoin:miter;"/>
   </g>
   <g id="patch_36">
    <path clip-path="url(#pbbd6ec7f5b)" d="M 486.092138 448.56 
L 486.092138 60.48 
L 506.657248 60.48 
L 506.657248 448.56 
z
" style="fill:#ff0000;opacity:0.3;stroke:#ff0000;stroke-linejoin:miter;"/>
   </g>
   <g id="patch_37">
    <path clip-path="url(#pbbd6ec7f5b)" d="M 488.37715 448.56 
L 488.37715 60.48 
L 508.94226 60.48 
L 508.94226 448.56 
z
" style="fill:#ff0000;opacity:0.3;stroke:#ff0000;stroke-linejoin:miter;"/>
   </g>
   <g id="patch_38">
    <path clip-path="url(#pbbd6ec7f5b)" d="M 490.662162 448.56 
L 490.662162 60.48 
L 511.227273 60.48 
L 511.227273 448.56 
z
" style="fill:#ff0000;opacity:0.3;stroke:#ff0000;stroke-linejoin:miter;"/>
   </g>
   <g id="patch_39">
    <path clip-path="url(#pbbd6ec7f5b)" d="M 492.947174 448.56 
L 492.947174 60.48 
L 513.512285 60.48 
L 513.512285 448.56 
z
" style="fill:#ff0000;opacity:0.3;stroke:#ff0000;stroke-linejoin:miter;"/>
   </g>
   <g id="patch_40">
    <path clip-path="url(#pbbd6ec7f5b)" d="M 495.232187 448.56 
L 495.232187 60.48 
L 515.797297 60.48 
L 515.797297 448.56 
z
" style="fill:#ff0000;opacity:0.3;stroke:#ff0000;stroke-linejoin:miter;"/>
   </g>
   <g id="patch_41">
    <path clip-path="url(#pbbd6ec7f5b)" d="M 497.517199 448.56 
L 497.517199 60.48 
L 518.08231 60.48 
L 518.08231 448.56 
z
" style="fill:#ff0000;opacity:0.3;stroke:#ff0000;stroke-linejoin:miter;"/>
   </g>
   <g id="patch_42">
    <path clip-path="url(#pbbd6ec7f5b)" d="M 499.802211 448.56 
L 499.802211 60.48 
L 520.367322 60.48 
L 520.367322 448.56 
z
" style="fill:#ff0000;opacity:0.3;stroke:#ff0000;stroke-linejoin:miter;"/>
   </g>
   <g id="patch_43">
    <path clip-path="url(#pbbd6ec7f5b)" d="M 502.087224 448.56 
L 502.087224 60.48 
L 522.652334 60.48 
L 522.652334 448.56 
z
" style="fill:#ff0000;opacity:0.3;stroke:#ff0000;stroke-linejoin:miter;"/>
   </g>
   <g id="patch_44">
    <path clip-path="url(#pbbd6ec7f5b)" d="M 504.372236 448.56 
L 504.372236 60.48 
L 524.937346 60.48 
L 524.937346 448.56 
z
" style="fill:#ff0000;opacity:0.3;stroke:#ff0000;stroke-linejoin:miter;"/>
   </g>
   <g id="patch_45">
    <path clip-path="url(#pbbd6ec7f5b)" d="M 506.657248 448.56 
L 506.657248 60.48 
L 527.222359 60.48 
L 527.222359 448.56 
z
" style="fill:#ff0000;opacity:0.3;stroke:#ff0000;stroke-linejoin:miter;"/>
   </g>
   <g id="patch_46">
    <path clip-path="url(#pbbd6ec7f5b)" d="M 508.94226 448.56 
L 508.94226 60.48 
L 529.507371 60.48 
L 529.507371 448.56 
z
" style="fill:#ff0000;opacity:0.3;stroke:#ff0000;stroke-linejoin:miter;"/>
   </g>
   <g id="patch_47">
    <path clip-path="url(#pbbd6ec7f5b)" d="M 511.227273 448.56 
L 511.227273 60.48 
L 531.792383 60.48 
L 531.792383 448.56 
z
" style="fill:#ff0000;opacity:0.3;stroke:#ff0000;stroke-linejoin:miter;"/>
   </g>
   <g id="patch_48">
    <path clip-path="url(#pbbd6ec7f5b)" d="M 524.937346 448.56 
L 524.937346 60.48 
L 545.502457 60.48 
L 545.502457 448.56 
z
" style="fill:#0000ff;opacity:0.3;stroke:#0000ff;stroke-linejoin:miter;"/>
   </g>
   <g id="patch_49">
    <path clip-path="url(#pbbd6ec7f5b)" d="M 527.222359 448.56 
L 527.222359 60.48 
L 547.787469 60.48 
L 547.787469 448.56 
z
" style="fill:#0000ff;opacity:0.3;stroke:#0000ff;stroke-linejoin:miter;"/>
   </g>
   <g id="patch_50">
    <path clip-path="url(#pbbd6ec7f5b)" d="M 529.507371 448.56 
L 529.507371 60.48 
L 550.072482 60.48 
L 550.072482 448.56 
z
" style="fill:#0000ff;opacity:0.3;stroke:#0000ff;stroke-linejoin:miter;"/>
   </g>
   <g id="patch_51">
    <path clip-path="url(#pbbd6ec7f5b)" d="M 614.052826 448.56 
L 614.052826 60.48 
L 634.617936 60.48 
L 634.617936 448.56 
z
" style="fill:#ff0000;opacity:0.3;stroke:#ff0000;stroke-linejoin:miter;"/>
   </g>
   <g id="patch_52">
    <path clip-path="url(#pbbd6ec7f5b)" d="M 616.337838 448.56 
L 616.337838 60.48 
L 636.902948 60.48 
L 636.902948 448.56 
z
" style="fill:#ff0000;opacity:0.3;stroke:#ff0000;stroke-linejoin:miter;"/>
   </g>
   <g id="patch_53">
    <path clip-path="url(#pbbd6ec7f5b)" d="M 618.62285 448.56 
L 618.62285 60.48 
L 639.187961 60.48 
L 639.187961 448.56 
z
" style="fill:#ff0000;opacity:0.3;stroke:#ff0000;stroke-linejoin:miter;"/>
   </g>
   <g id="patch_54">
    <path clip-path="url(#pbbd6ec7f5b)" d="M 620.907862 448.56 
L 620.907862 60.48 
L 641.472973 60.48 
L 641.472973 448.56 
z
" style="fill:#ff0000;opacity:0.3;stroke:#ff0000;stroke-linejoin:miter;"/>
   </g>
   <g id="patch_55">
    <path clip-path="url(#pbbd6ec7f5b)" d="M 623.192875 448.56 
L 623.192875 60.48 
L 643.757985 60.48 
L 643.757985 448.56 
z
" style="fill:#ff0000;opacity:0.3;stroke:#ff0000;stroke-linejoin:miter;"/>
   </g>
   <g id="patch_56">
    <path clip-path="url(#pbbd6ec7f5b)" d="M 625.477887 448.56 
L 625.477887 60.48 
L 646.042998 60.48 
L 646.042998 448.56 
z
" style="fill:#ff0000;opacity:0.3;stroke:#ff0000;stroke-linejoin:miter;"/>
   </g>
   <g id="patch_57">
    <path clip-path="url(#pbbd6ec7f5b)" d="M 627.762899 448.56 
L 627.762899 60.48 
L 648.32801 60.48 
L 648.32801 448.56 
z
" style="fill:#ff0000;opacity:0.3;stroke:#ff0000;stroke-linejoin:miter;"/>
   </g>
   <g id="patch_58">
    <path clip-path="url(#pbbd6ec7f5b)" d="M 630.047912 448.56 
L 630.047912 60.48 
L 650.613022 60.48 
L 650.613022 448.56 
z
" style="fill:#ff0000;opacity:0.3;stroke:#ff0000;stroke-linejoin:miter;"/>
   </g>
   <g id="patch_59">
    <path clip-path="url(#pbbd6ec7f5b)" d="M 632.332924 448.56 
L 632.332924 60.48 
L 652.898034 60.48 
L 652.898034 448.56 
z
" style="fill:#ff0000;opacity:0.3;stroke:#ff0000;stroke-linejoin:miter;"/>
   </g>
   <g id="patch_60">
    <path clip-path="url(#pbbd6ec7f5b)" d="M 648.32801 448.56 
L 648.32801 60.48 
L 668.89312 60.48 
L 668.89312 448.56 
z
" style="fill:#ff0000;opacity:0.3;stroke:#ff0000;stroke-linejoin:miter;"/>
   </g>
   <g id="patch_61">
    <path clip-path="url(#pbbd6ec7f5b)" d="M 650.613022 448.56 
L 650.613022 60.48 
L 671.178133 60.48 
L 671.178133 448.56 
z
" style="fill:#ff0000;opacity:0.3;stroke:#ff0000;stroke-linejoin:miter;"/>
   </g>
   <g id="patch_62">
    <path clip-path="url(#pbbd6ec7f5b)" d="M 652.898034 448.56 
L 652.898034 60.48 
L 673.463145 60.48 
L 673.463145 448.56 
z
" style="fill:#ff0000;opacity:0.3;stroke:#ff0000;stroke-linejoin:miter;"/>
   </g>
   <g id="patch_63">
    <path clip-path="url(#pbbd6ec7f5b)" d="M 655.183047 448.56 
L 655.183047 60.48 
L 675.748157 60.48 
L 675.748157 448.56 
z
" style="fill:#ff0000;opacity:0.3;stroke:#ff0000;stroke-linejoin:miter;"/>
   </g>
   <g id="patch_64">
    <path clip-path="url(#pbbd6ec7f5b)" d="M 657.468059 448.56 
L 657.468059 60.48 
L 678.03317 60.48 
L 678.03317 448.56 
z
" style="fill:#ff0000;opacity:0.3;stroke:#ff0000;stroke-linejoin:miter;"/>
   </g>
   <g id="patch_65">
    <path clip-path="url(#pbbd6ec7f5b)" d="M 666.608108 448.56 
L 666.608108 60.48 
L 687.173219 60.48 
L 687.173219 448.56 
z
" style="fill:#0000ff;opacity:0.3;stroke:#0000ff;stroke-linejoin:miter;"/>
   </g>
   <g id="patch_66">
    <path clip-path="url(#pbbd6ec7f5b)" d="M 668.89312 448.56 
L 668.89312 60.48 
L 689.458231 60.48 
L 689.458231 448.56 
z
" style="fill:#0000ff;opacity:0.3;stroke:#0000ff;stroke-linejoin:miter;"/>
   </g>
   <g id="patch_67">
    <path clip-path="url(#pbbd6ec7f5b)" d="M 719.163391 448.56 
L 719.163391 60.48 
L 739.728501 60.48 
L 739.728501 448.56 
z
" style="fill:#0000ff;opacity:0.3;stroke:#0000ff;stroke-linejoin:miter;"/>
   </g>
   <g id="patch_68">
    <path clip-path="url(#pbbd6ec7f5b)" d="M 723.733415 448.56 
L 723.733415 60.48 
L 744.298526 60.48 
L 744.298526 448.56 
z
" style="fill:#0000ff;opacity:0.3;stroke:#0000ff;stroke-linejoin:miter;"/>
   </g>
   <g id="patch_69">
    <path clip-path="url(#pbbd6ec7f5b)" d="M 730.588452 448.56 
L 730.588452 60.48 
L 751.153563 60.48 
L 751.153563 448.56 
z
" style="fill:#0000ff;opacity:0.3;stroke:#0000ff;stroke-linejoin:miter;"/>
   </g>
   <g id="patch_70">
    <path clip-path="url(#pbbd6ec7f5b)" d="M 732.873464 448.56 
L 732.873464 60.48 
L 753.438575 60.48 
L 753.438575 448.56 
z
" style="fill:#0000ff;opacity:0.3;stroke:#0000ff;stroke-linejoin:miter;"/>
   </g>
   <g id="patch_71">
    <path clip-path="url(#pbbd6ec7f5b)" d="M 735.158477 448.56 
L 735.158477 60.48 
L 755.723587 60.48 
L 755.723587 448.56 
z
" style="fill:#0000ff;opacity:0.3;stroke:#0000ff;stroke-linejoin:miter;"/>
   </g>
   <g id="patch_72">
    <path clip-path="url(#pbbd6ec7f5b)" d="M 737.443489 448.56 
L 737.443489 60.48 
L 758.0086 60.48 
L 758.0086 448.56 
z
" style="fill:#0000ff;opacity:0.3;stroke:#0000ff;stroke-linejoin:miter;"/>
   </g>
   <g id="patch_73">
    <path clip-path="url(#pbbd6ec7f5b)" d="M 739.728501 448.56 
L 739.728501 60.48 
L 760.293612 60.48 
L 760.293612 448.56 
z
" style="fill:#0000ff;opacity:0.3;stroke:#0000ff;stroke-linejoin:miter;"/>
   </g>
   <g id="patch_74">
    <path clip-path="url(#pbbd6ec7f5b)" d="M 742.013514 448.56 
L 742.013514 60.48 
L 762.578624 60.48 
L 762.578624 448.56 
z
" style="fill:#0000ff;opacity:0.3;stroke:#0000ff;stroke-linejoin:miter;"/>
   </g>
   <g id="patch_75">
    <path clip-path="url(#pbbd6ec7f5b)" d="M 744.298526 448.56 
L 744.298526 60.48 
L 764.863636 60.48 
L 764.863636 448.56 
z
" style="fill:#0000ff;opacity:0.3;stroke:#0000ff;stroke-linejoin:miter;"/>
   </g>
   <g id="patch_76">
    <path clip-path="url(#pbbd6ec7f5b)" d="M 746.583538 448.56 
L 746.583538 60.48 
L 767.148649 60.48 
L 767.148649 448.56 
z
" style="fill:#0000ff;opacity:0.3;stroke:#0000ff;stroke-linejoin:miter;"/>
   </g>
   <g id="patch_77">
    <path clip-path="url(#pbbd6ec7f5b)" d="M 748.86855 448.56 
L 748.86855 60.48 
L 769.433661 60.48 
L 769.433661 448.56 
z
" style="fill:#0000ff;opacity:0.3;stroke:#0000ff;stroke-linejoin:miter;"/>
   </g>
   <g id="patch_78">
    <path clip-path="url(#pbbd6ec7f5b)" d="M 771.718673 448.56 
L 771.718673 60.48 
L 792.283784 60.48 
L 792.283784 448.56 
z
" style="fill:#0000ff;opacity:0.3;stroke:#0000ff;stroke-linejoin:miter;"/>
   </g>
   <g id="patch_79">
    <path clip-path="url(#pbbd6ec7f5b)" d="M 774.003686 448.56 
L 774.003686 60.48 
L 794.568796 60.48 
L 794.568796 448.56 
z
" style="fill:#0000ff;opacity:0.3;stroke:#0000ff;stroke-linejoin:miter;"/>
   </g>
   <g id="patch_80">
    <path clip-path="url(#pbbd6ec7f5b)" d="M 776.288698 448.56 
L 776.288698 60.48 
L 796.853808 60.48 
L 796.853808 448.56 
z
" style="fill:#0000ff;opacity:0.3;stroke:#0000ff;stroke-linejoin:miter;"/>
   </g>
   <g id="patch_81">
    <path clip-path="url(#pbbd6ec7f5b)" d="M 778.57371 448.56 
L 778.57371 60.48 
L 799.138821 60.48 
L 799.138821 448.56 
z
" style="fill:#0000ff;opacity:0.3;stroke:#0000ff;stroke-linejoin:miter;"/>
   </g>
   <g id="patch_82">
    <path clip-path="url(#pbbd6ec7f5b)" d="M 780.858722 448.56 
L 780.858722 60.48 
L 801.423833 60.48 
L 801.423833 448.56 
z
" style="fill:#0000ff;opacity:0.3;stroke:#0000ff;stroke-linejoin:miter;"/>
   </g>
   <g id="patch_83">
    <path clip-path="url(#pbbd6ec7f5b)" d="M 783.143735 448.56 
L 783.143735 60.48 
L 803.708845 60.48 
L 803.708845 448.56 
z
" style="fill:#0000ff;opacity:0.3;stroke:#0000ff;stroke-linejoin:miter;"/>
   </g>
   <g id="patch_84">
    <path clip-path="url(#pbbd6ec7f5b)" d="M 785.428747 448.56 
L 785.428747 60.48 
L 805.993857 60.48 
L 805.993857 448.56 
z
" style="fill:#0000ff;opacity:0.3;stroke:#0000ff;stroke-linejoin:miter;"/>
   </g>
   <g id="patch_85">
    <path clip-path="url(#pbbd6ec7f5b)" d="M 805.993857 448.56 
L 805.993857 60.48 
L 826.558968 60.48 
L 826.558968 448.56 
z
" style="fill:#0000ff;opacity:0.3;stroke:#0000ff;stroke-linejoin:miter;"/>
   </g>
   <g id="patch_86">
    <path clip-path="url(#pbbd6ec7f5b)" d="M 824.273956 448.56 
L 824.273956 60.48 
L 844.839066 60.48 
L 844.839066 448.56 
z
" style="fill:#ff0000;opacity:0.3;stroke:#ff0000;stroke-linejoin:miter;"/>
   </g>
   <g id="patch_87">
    <path clip-path="url(#pbbd6ec7f5b)" d="M 828.84398 448.56 
L 828.84398 60.48 
L 849.409091 60.48 
L 849.409091 448.56 
z
" style="fill:#ff0000;opacity:0.3;stroke:#ff0000;stroke-linejoin:miter;"/>
   </g>
   <g id="patch_88">
    <path clip-path="url(#pbbd6ec7f5b)" d="M 831.128993 448.56 
L 831.128993 60.48 
L 851.694103 60.48 
L 851.694103 448.56 
z
" style="fill:#ff0000;opacity:0.3;stroke:#ff0000;stroke-linejoin:miter;"/>
   </g>
   <g id="patch_89">
    <path clip-path="url(#pbbd6ec7f5b)" d="M 833.414005 448.56 
L 833.414005 60.48 
L 853.979115 60.48 
L 853.979115 448.56 
z
" style="fill:#ff0000;opacity:0.3;stroke:#ff0000;stroke-linejoin:miter;"/>
   </g>
   <g id="patch_90">
    <path clip-path="url(#pbbd6ec7f5b)" d="M 835.699017 448.56 
L 835.699017 60.48 
L 856.264128 60.48 
L 856.264128 448.56 
z
" style="fill:#ff0000;opacity:0.3;stroke:#ff0000;stroke-linejoin:miter;"/>
   </g>
   <g id="patch_91">
    <path clip-path="url(#pbbd6ec7f5b)" d="M 837.984029 448.56 
L 837.984029 60.48 
L 858.54914 60.48 
L 858.54914 448.56 
z
" style="fill:#ff0000;opacity:0.3;stroke:#ff0000;stroke-linejoin:miter;"/>
   </g>
   <g id="patch_92">
    <path clip-path="url(#pbbd6ec7f5b)" d="M 840.269042 448.56 
L 840.269042 60.48 
L 860.834152 60.48 
L 860.834152 448.56 
z
" style="fill:#ff0000;opacity:0.3;stroke:#ff0000;stroke-linejoin:miter;"/>
   </g>
   <g id="patch_93">
    <path clip-path="url(#pbbd6ec7f5b)" d="M 842.554054 448.56 
L 842.554054 60.48 
L 863.119165 60.48 
L 863.119165 448.56 
z
" style="fill:#ff0000;opacity:0.3;stroke:#ff0000;stroke-linejoin:miter;"/>
   </g>
   <g id="patch_94">
    <path clip-path="url(#pbbd6ec7f5b)" d="M 844.839066 448.56 
L 844.839066 60.48 
L 865.404177 60.48 
L 865.404177 448.56 
z
" style="fill:#ff0000;opacity:0.3;stroke:#ff0000;stroke-linejoin:miter;"/>
   </g>
   <g id="patch_95">
    <path clip-path="url(#pbbd6ec7f5b)" d="M 856.264128 448.56 
L 856.264128 60.48 
L 876.829238 60.48 
L 876.829238 448.56 
z
" style="fill:#0000ff;opacity:0.3;stroke:#0000ff;stroke-linejoin:miter;"/>
   </g>
   <g id="patch_96">
    <path clip-path="url(#pbbd6ec7f5b)" d="M 858.54914 448.56 
L 858.54914 60.48 
L 879.114251 60.48 
L 879.114251 448.56 
z
" style="fill:#0000ff;opacity:0.3;stroke:#0000ff;stroke-linejoin:miter;"/>
   </g>
   <g id="patch_97">
    <path clip-path="url(#pbbd6ec7f5b)" d="M 860.834152 448.56 
L 860.834152 60.48 
L 881.399263 60.48 
L 881.399263 448.56 
z
" style="fill:#0000ff;opacity:0.3;stroke:#0000ff;stroke-linejoin:miter;"/>
   </g>
   <g id="patch_98">
    <path clip-path="url(#pbbd6ec7f5b)" d="M 908.81941 448.56 
L 908.81941 60.48 
L 929.384521 60.48 
L 929.384521 448.56 
z
" style="fill:#0000ff;opacity:0.3;stroke:#0000ff;stroke-linejoin:miter;"/>
   </g>
   <g id="patch_99">
    <path clip-path="url(#pbbd6ec7f5b)" d="M 911.104423 448.56 
L 911.104423 60.48 
L 931.669533 60.48 
L 931.669533 448.56 
z
" style="fill:#0000ff;opacity:0.3;stroke:#0000ff;stroke-linejoin:miter;"/>
   </g>
   <g id="matplotlib.axis_1">
    <g id="xtick_1">
     <g id="line2d_1">
      <path clip-path="url(#pbbd6ec7f5b)" d="M 173.045455 448.56 
L 173.045455 60.48 
" style="fill:none;stroke:#b0b0b0;stroke-dasharray:2.22,0.96;stroke-dashoffset:0;stroke-opacity:0.7;stroke-width:0.6;"/>
     </g>
     <g id="line2d_2">
      <defs>
       <path d="M 0 0 
L 0 -3.5 
" id="mf9d20a53c9" style="stroke:#1a1a1a;stroke-width:0.8;"/>
      </defs>
      <g>
       <use style="fill:#1a1a1a;stroke:#1a1a1a;stroke-width:0.8;" x="173.045455" xlink:href="#mf9d20a53c9" y="448.56"/>
      </g>
     </g>
     <g id="text_1">
      <!-- 0 -->
      <g style="fill:#1a1a1a;" transform="translate(169.227955 461.178125)scale(0.12 -0.12)">
       <defs>
        <path d="M 2034 4250 
Q 1547 4250 1301 3770 
Q 1056 3291 1056 2328 
Q 1056 1369 1301 889 
Q 1547 409 2034 409 
Q 2525 409 2770 889 
Q 3016 1369 3016 2328 
Q 3016 3291 2770 3770 
Q 2525 4250 2034 4250 
z
M 2034 4750 
Q 2819 4750 3233 4129 
Q 3647 3509 3647 2328 
Q 3647 1150 3233 529 
Q 2819 -91 2034 -91 
Q 1250 -91 836 529 
Q 422 1150 422 2328 
Q 422 3509 836 4129 
Q 1250 4750 2034 4750 
z
" id="DejaVuSans-30" transform="scale(0.015625)"/>
       </defs>
       <use xlink:href="#DejaVuSans-30"/>
      </g>
     </g>
    </g>
    <g id="xtick_2">
     <g id="line2d_3">
      <path clip-path="url(#pbbd6ec7f5b)" d="M 287.296069 448.56 
L 287.296069 60.48 
" style="fill:none;stroke:#b0b0b0;stroke-dasharray:2.22,0.96;stroke-dashoffset:0;stroke-opacity:0.7;stroke-width:0.6;"/>
     </g>
     <g id="line2d_4">
      <g>
       <use style="fill:#1a1a1a;stroke:#1a1a1a;stroke-width:0.8;" x="287.296069" xlink:href="#mf9d20a53c9" y="448.56"/>
      </g>
     </g>
     <g id="text_2">
      <!-- 50 -->
      <g style="fill:#1a1a1a;" transform="translate(279.661069 461.178125)scale(0.12 -0.12)">
       <defs>
        <path d="M 691 4666 
L 3169 4666 
L 3169 4134 
L 1269 4134 
L 1269 2991 
Q 1406 3038 1543 3061 
Q 1681 3084 1819 3084 
Q 2600 3084 3056 2656 
Q 3513 2228 3513 1497 
Q 3513 744 3044 326 
Q 2575 -91 1722 -91 
Q 1428 -91 1123 -41 
Q 819 9 494 109 
L 494 744 
Q 775 591 1075 516 
Q 1375 441 1709 441 
Q 2250 441 2565 725 
Q 2881 1009 2881 1497 
Q 2881 1984 2565 2268 
Q 2250 2553 1709 2553 
Q 1456 2553 1204 2497 
Q 953 2441 691 2322 
L 691 4666 
z
" id="DejaVuSans-35" transform="scale(0.015625)"/>
       </defs>
       <use xlink:href="#DejaVuSans-35"/>
       <use x="63.623047" xlink:href="#DejaVuSans-30"/>
      </g>
     </g>
    </g>
    <g id="xtick_3">
     <g id="line2d_5">
      <path clip-path="url(#pbbd6ec7f5b)" d="M 401.546683 448.56 
L 401.546683 60.48 
" style="fill:none;stroke:#b0b0b0;stroke-dasharray:2.22,0.96;stroke-dashoffset:0;stroke-opacity:0.7;stroke-width:0.6;"/>
     </g>
     <g id="line2d_6">
      <g>
       <use style="fill:#1a1a1a;stroke:#1a1a1a;stroke-width:0.8;" x="401.546683" xlink:href="#mf9d20a53c9" y="448.56"/>
      </g>
     </g>
     <g id="text_3">
      <!-- 100 -->
      <g style="fill:#1a1a1a;" transform="translate(390.094183 461.178125)scale(0.12 -0.12)">
       <defs>
        <path d="M 794 531 
L 1825 531 
L 1825 4091 
L 703 3866 
L 703 4441 
L 1819 4666 
L 2450 4666 
L 2450 531 
L 3481 531 
L 3481 0 
L 794 0 
L 794 531 
z
" id="DejaVuSans-31" transform="scale(0.015625)"/>
       </defs>
       <use xlink:href="#DejaVuSans-31"/>
       <use x="63.623047" xlink:href="#DejaVuSans-30"/>
       <use x="127.246094" xlink:href="#DejaVuSans-30"/>
      </g>
     </g>
    </g>
    <g id="xtick_4">
     <g id="line2d_7">
      <path clip-path="url(#pbbd6ec7f5b)" d="M 515.797297 448.56 
L 515.797297 60.48 
" style="fill:none;stroke:#b0b0b0;stroke-dasharray:2.22,0.96;stroke-dashoffset:0;stroke-opacity:0.7;stroke-width:0.6;"/>
     </g>
     <g id="line2d_8">
      <g>
       <use style="fill:#1a1a1a;stroke:#1a1a1a;stroke-width:0.8;" x="515.797297" xlink:href="#mf9d20a53c9" y="448.56"/>
      </g>
     </g>
     <g id="text_4">
      <!-- 150 -->
      <g style="fill:#1a1a1a;" transform="translate(504.344797 461.178125)scale(0.12 -0.12)">
       <use xlink:href="#DejaVuSans-31"/>
       <use x="63.623047" xlink:href="#DejaVuSans-35"/>
       <use x="127.246094" xlink:href="#DejaVuSans-30"/>
      </g>
     </g>
    </g>
    <g id="xtick_5">
     <g id="line2d_9">
      <path clip-path="url(#pbbd6ec7f5b)" d="M 630.047912 448.56 
L 630.047912 60.48 
" style="fill:none;stroke:#b0b0b0;stroke-dasharray:2.22,0.96;stroke-dashoffset:0;stroke-opacity:0.7;stroke-width:0.6;"/>
     </g>
     <g id="line2d_10">
      <g>
       <use style="fill:#1a1a1a;stroke:#1a1a1a;stroke-width:0.8;" x="630.047912" xlink:href="#mf9d20a53c9" y="448.56"/>
      </g>
     </g>
     <g id="text_5">
      <!-- 200 -->
      <g style="fill:#1a1a1a;" transform="translate(618.595412 461.178125)scale(0.12 -0.12)">
       <defs>
        <path d="M 1228 531 
L 3431 531 
L 3431 0 
L 469 0 
L 469 531 
Q 828 903 1448 1529 
Q 2069 2156 2228 2338 
Q 2531 2678 2651 2914 
Q 2772 3150 2772 3378 
Q 2772 3750 2511 3984 
Q 2250 4219 1831 4219 
Q 1534 4219 1204 4116 
Q 875 4013 500 3803 
L 500 4441 
Q 881 4594 1212 4672 
Q 1544 4750 1819 4750 
Q 2544 4750 2975 4387 
Q 3406 4025 3406 3419 
Q 3406 3131 3298 2873 
Q 3191 2616 2906 2266 
Q 2828 2175 2409 1742 
Q 1991 1309 1228 531 
z
" id="DejaVuSans-32" transform="scale(0.015625)"/>
       </defs>
       <use xlink:href="#DejaVuSans-32"/>
       <use x="63.623047" xlink:href="#DejaVuSans-30"/>
       <use x="127.246094" xlink:href="#DejaVuSans-30"/>
      </g>
     </g>
    </g>
    <g id="xtick_6">
     <g id="line2d_11">
      <path clip-path="url(#pbbd6ec7f5b)" d="M 744.298526 448.56 
L 744.298526 60.48 
" style="fill:none;stroke:#b0b0b0;stroke-dasharray:2.22,0.96;stroke-dashoffset:0;stroke-opacity:0.7;stroke-width:0.6;"/>
     </g>
     <g id="line2d_12">
      <g>
       <use style="fill:#1a1a1a;stroke:#1a1a1a;stroke-width:0.8;" x="744.298526" xlink:href="#mf9d20a53c9" y="448.56"/>
      </g>
     </g>
     <g id="text_6">
      <!-- 250 -->
      <g style="fill:#1a1a1a;" transform="translate(732.846026 461.178125)scale(0.12 -0.12)">
       <use xlink:href="#DejaVuSans-32"/>
       <use x="63.623047" xlink:href="#DejaVuSans-35"/>
       <use x="127.246094" xlink:href="#DejaVuSans-30"/>
      </g>
     </g>
    </g>
    <g id="xtick_7">
     <g id="line2d_13">
      <path clip-path="url(#pbbd6ec7f5b)" d="M 858.54914 448.56 
L 858.54914 60.48 
" style="fill:none;stroke:#b0b0b0;stroke-dasharray:2.22,0.96;stroke-dashoffset:0;stroke-opacity:0.7;stroke-width:0.6;"/>
     </g>
     <g id="line2d_14">
      <g>
       <use style="fill:#1a1a1a;stroke:#1a1a1a;stroke-width:0.8;" x="858.54914" xlink:href="#mf9d20a53c9" y="448.56"/>
      </g>
     </g>
     <g id="text_7">
      <!-- 300 -->
      <g style="fill:#1a1a1a;" transform="translate(847.09664 461.178125)scale(0.12 -0.12)">
       <defs>
        <path d="M 2597 2516 
Q 3050 2419 3304 2112 
Q 3559 1806 3559 1356 
Q 3559 666 3084 287 
Q 2609 -91 1734 -91 
Q 1441 -91 1130 -33 
Q 819 25 488 141 
L 488 750 
Q 750 597 1062 519 
Q 1375 441 1716 441 
Q 2309 441 2620 675 
Q 2931 909 2931 1356 
Q 2931 1769 2642 2001 
Q 2353 2234 1838 2234 
L 1294 2234 
L 1294 2753 
L 1863 2753 
Q 2328 2753 2575 2939 
Q 2822 3125 2822 3475 
Q 2822 3834 2567 4026 
Q 2313 4219 1838 4219 
Q 1578 4219 1281 4162 
Q 984 4106 628 3988 
L 628 4550 
Q 988 4650 1302 4700 
Q 1616 4750 1894 4750 
Q 2613 4750 3031 4423 
Q 3450 4097 3450 3541 
Q 3450 3153 3228 2886 
Q 3006 2619 2597 2516 
z
" id="DejaVuSans-33" transform="scale(0.015625)"/>
       </defs>
       <use xlink:href="#DejaVuSans-33"/>
       <use x="63.623047" xlink:href="#DejaVuSans-30"/>
       <use x="127.246094" xlink:href="#DejaVuSans-30"/>
      </g>
     </g>
    </g>
    <g id="text_8">
     <!-- Point Index -->
     <g style="fill:#1a1a1a;" transform="translate(520.180313 476.791875)scale(0.12 -0.12)">
      <defs>
       <path d="M 1259 4147 
L 1259 2394 
L 2053 2394 
Q 2494 2394 2734 2622 
Q 2975 2850 2975 3272 
Q 2975 3691 2734 3919 
Q 2494 4147 2053 4147 
L 1259 4147 
z
M 628 4666 
L 2053 4666 
Q 2838 4666 3239 4311 
Q 3641 3956 3641 3272 
Q 3641 2581 3239 2228 
Q 2838 1875 2053 1875 
L 1259 1875 
L 1259 0 
L 628 0 
L 628 4666 
z
" id="DejaVuSans-50" transform="scale(0.015625)"/>
       <path d="M 1959 3097 
Q 1497 3097 1228 2736 
Q 959 2375 959 1747 
Q 959 1119 1226 758 
Q 1494 397 1959 397 
Q 2419 397 2687 759 
Q 2956 1122 2956 1747 
Q 2956 2369 2687 2733 
Q 2419 3097 1959 3097 
z
M 1959 3584 
Q 2709 3584 3137 3096 
Q 3566 2609 3566 1747 
Q 3566 888 3137 398 
Q 2709 -91 1959 -91 
Q 1206 -91 779 398 
Q 353 888 353 1747 
Q 353 2609 779 3096 
Q 1206 3584 1959 3584 
z
" id="DejaVuSans-6f" transform="scale(0.015625)"/>
       <path d="M 603 3500 
L 1178 3500 
L 1178 0 
L 603 0 
L 603 3500 
z
M 603 4863 
L 1178 4863 
L 1178 4134 
L 603 4134 
L 603 4863 
z
" id="DejaVuSans-69" transform="scale(0.015625)"/>
       <path d="M 3513 2113 
L 3513 0 
L 2938 0 
L 2938 2094 
Q 2938 2591 2744 2837 
Q 2550 3084 2163 3084 
Q 1697 3084 1428 2787 
Q 1159 2491 1159 1978 
L 1159 0 
L 581 0 
L 581 3500 
L 1159 3500 
L 1159 2956 
Q 1366 3272 1645 3428 
Q 1925 3584 2291 3584 
Q 2894 3584 3203 3211 
Q 3513 2838 3513 2113 
z
" id="DejaVuSans-6e" transform="scale(0.015625)"/>
       <path d="M 1172 4494 
L 1172 3500 
L 2356 3500 
L 2356 3053 
L 1172 3053 
L 1172 1153 
Q 1172 725 1289 603 
Q 1406 481 1766 481 
L 2356 481 
L 2356 0 
L 1766 0 
Q 1100 0 847 248 
Q 594 497 594 1153 
L 594 3053 
L 172 3053 
L 172 3500 
L 594 3500 
L 594 4494 
L 1172 4494 
z
" id="DejaVuSans-74" transform="scale(0.015625)"/>
       <path id="DejaVuSans-20" transform="scale(0.015625)"/>
       <path d="M 628 4666 
L 1259 4666 
L 1259 0 
L 628 0 
L 628 4666 
z
" id="DejaVuSans-49" transform="scale(0.015625)"/>
       <path d="M 2906 2969 
L 2906 4863 
L 3481 4863 
L 3481 0 
L 2906 0 
L 2906 525 
Q 2725 213 2448 61 
Q 2172 -91 1784 -91 
Q 1150 -91 751 415 
Q 353 922 353 1747 
Q 353 2572 751 3078 
Q 1150 3584 1784 3584 
Q 2172 3584 2448 3432 
Q 2725 3281 2906 2969 
z
M 947 1747 
Q 947 1113 1208 752 
Q 1469 391 1925 391 
Q 2381 391 2643 752 
Q 2906 1113 2906 1747 
Q 2906 2381 2643 2742 
Q 2381 3103 1925 3103 
Q 1469 3103 1208 2742 
Q 947 2381 947 1747 
z
" id="DejaVuSans-64" transform="scale(0.015625)"/>
       <path d="M 3597 1894 
L 3597 1613 
L 953 1613 
Q 991 1019 1311 708 
Q 1631 397 2203 397 
Q 2534 397 2845 478 
Q 3156 559 3463 722 
L 3463 178 
Q 3153 47 2828 -22 
Q 2503 -91 2169 -91 
Q 1331 -91 842 396 
Q 353 884 353 1716 
Q 353 2575 817 3079 
Q 1281 3584 2069 3584 
Q 2775 3584 3186 3129 
Q 3597 2675 3597 1894 
z
M 3022 2063 
Q 3016 2534 2758 2815 
Q 2500 3097 2075 3097 
Q 1594 3097 1305 2825 
Q 1016 2553 972 2059 
L 3022 2063 
z
" id="DejaVuSans-65" transform="scale(0.015625)"/>
       <path d="M 3513 3500 
L 2247 1797 
L 3578 0 
L 2900 0 
L 1881 1375 
L 863 0 
L 184 0 
L 1544 1831 
L 300 3500 
L 978 3500 
L 1906 2253 
L 2834 3500 
L 3513 3500 
z
" id="DejaVuSans-78" transform="scale(0.015625)"/>
      </defs>
      <use xlink:href="#DejaVuSans-50"/>
      <use x="56.677734" xlink:href="#DejaVuSans-6f"/>
      <use x="117.859375" xlink:href="#DejaVuSans-69"/>
      <use x="145.642578" xlink:href="#DejaVuSans-6e"/>
      <use x="209.021484" xlink:href="#DejaVuSans-74"/>
      <use x="248.230469" xlink:href="#DejaVuSans-20"/>
      <use x="280.017578" xlink:href="#DejaVuSans-49"/>
      <use x="309.509766" xlink:href="#DejaVuSans-6e"/>
      <use x="372.888672" xlink:href="#DejaVuSans-64"/>
      <use x="436.365234" xlink:href="#DejaVuSans-65"/>
      <use x="496.138672" xlink:href="#DejaVuSans-78"/>
     </g>
    </g>
   </g>
   <g id="matplotlib.axis_2">
    <g id="ytick_1">
     <g id="line2d_15">
      <path clip-path="url(#pbbd6ec7f5b)" d="M 135 380.740925 
L 972 380.740925 
" style="fill:none;stroke:#b0b0b0;stroke-dasharray:2.22,0.96;stroke-dashoffset:0;stroke-opacity:0.7;stroke-width:0.6;"/>
     </g>
     <g id="line2d_16">
      <defs>
       <path d="M 0 0 
L 3.5 0 
" id="mb8537f8bcc" style="stroke:#1a1a1a;stroke-width:0.8;"/>
      </defs>
      <g>
       <use style="fill:#1a1a1a;stroke:#1a1a1a;stroke-width:0.8;" x="135" xlink:href="#mb8537f8bcc" y="380.740925"/>
      </g>
     </g>
     <g id="text_9">
      <!-- 0.2 -->
      <g style="fill:#1a1a1a;" transform="translate(112.41625 385.299988)scale(0.12 -0.12)">
       <defs>
        <path d="M 684 794 
L 1344 794 
L 1344 0 
L 684 0 
L 684 794 
z
" id="DejaVuSans-2e" transform="scale(0.015625)"/>
       </defs>
       <use xlink:href="#DejaVuSans-30"/>
       <use x="63.623047" xlink:href="#DejaVuSans-2e"/>
       <use x="95.410156" xlink:href="#DejaVuSans-32"/>
      </g>
     </g>
    </g>
    <g id="ytick_2">
     <g id="line2d_17">
      <path clip-path="url(#pbbd6ec7f5b)" d="M 135 299.347454 
L 972 299.347454 
" style="fill:none;stroke:#b0b0b0;stroke-dasharray:2.22,0.96;stroke-dashoffset:0;stroke-opacity:0.7;stroke-width:0.6;"/>
     </g>
     <g id="line2d_18">
      <g>
       <use style="fill:#1a1a1a;stroke:#1a1a1a;stroke-width:0.8;" x="135" xlink:href="#mb8537f8bcc" y="299.347454"/>
      </g>
     </g>
     <g id="text_10">
      <!-- 0.4 -->
      <g style="fill:#1a1a1a;" transform="translate(112.41625 303.906517)scale(0.12 -0.12)">
       <defs>
        <path d="M 2419 4116 
L 825 1625 
L 2419 1625 
L 2419 4116 
z
M 2253 4666 
L 3047 4666 
L 3047 1625 
L 3713 1625 
L 3713 1100 
L 3047 1100 
L 3047 0 
L 2419 0 
L 2419 1100 
L 313 1100 
L 313 1709 
L 2253 4666 
z
" id="DejaVuSans-34" transform="scale(0.015625)"/>
       </defs>
       <use xlink:href="#DejaVuSans-30"/>
       <use x="63.623047" xlink:href="#DejaVuSans-2e"/>
       <use x="95.410156" xlink:href="#DejaVuSans-34"/>
      </g>
     </g>
    </g>
    <g id="ytick_3">
     <g id="line2d_19">
      <path clip-path="url(#pbbd6ec7f5b)" d="M 135 217.953983 
L 972 217.953983 
" style="fill:none;stroke:#b0b0b0;stroke-dasharray:2.22,0.96;stroke-dashoffset:0;stroke-opacity:0.7;stroke-width:0.6;"/>
     </g>
     <g id="line2d_20">
      <g>
       <use style="fill:#1a1a1a;stroke:#1a1a1a;stroke-width:0.8;" x="135" xlink:href="#mb8537f8bcc" y="217.953983"/>
      </g>
     </g>
     <g id="text_11">
      <!-- 0.6 -->
      <g style="fill:#1a1a1a;" transform="translate(112.41625 222.513046)scale(0.12 -0.12)">
       <defs>
        <path d="M 2113 2584 
Q 1688 2584 1439 2293 
Q 1191 2003 1191 1497 
Q 1191 994 1439 701 
Q 1688 409 2113 409 
Q 2538 409 2786 701 
Q 3034 994 3034 1497 
Q 3034 2003 2786 2293 
Q 2538 2584 2113 2584 
z
M 3366 4563 
L 3366 3988 
Q 3128 4100 2886 4159 
Q 2644 4219 2406 4219 
Q 1781 4219 1451 3797 
Q 1122 3375 1075 2522 
Q 1259 2794 1537 2939 
Q 1816 3084 2150 3084 
Q 2853 3084 3261 2657 
Q 3669 2231 3669 1497 
Q 3669 778 3244 343 
Q 2819 -91 2113 -91 
Q 1303 -91 875 529 
Q 447 1150 447 2328 
Q 447 3434 972 4092 
Q 1497 4750 2381 4750 
Q 2619 4750 2861 4703 
Q 3103 4656 3366 4563 
z
" id="DejaVuSans-36" transform="scale(0.015625)"/>
       </defs>
       <use xlink:href="#DejaVuSans-30"/>
       <use x="63.623047" xlink:href="#DejaVuSans-2e"/>
       <use x="95.410156" xlink:href="#DejaVuSans-36"/>
      </g>
     </g>
    </g>
    <g id="ytick_4">
     <g id="line2d_21">
      <path clip-path="url(#pbbd6ec7f5b)" d="M 135 136.560512 
L 972 136.560512 
" style="fill:none;stroke:#b0b0b0;stroke-dasharray:2.22,0.96;stroke-dashoffset:0;stroke-opacity:0.7;stroke-width:0.6;"/>
     </g>
     <g id="line2d_22">
      <g>
       <use style="fill:#1a1a1a;stroke:#1a1a1a;stroke-width:0.8;" x="135" xlink:href="#mb8537f8bcc" y="136.560512"/>
      </g>
     </g>
     <g id="text_12">
      <!-- 0.8 -->
      <g style="fill:#1a1a1a;" transform="translate(112.41625 141.119575)scale(0.12 -0.12)">
       <defs>
        <path d="M 2034 2216 
Q 1584 2216 1326 1975 
Q 1069 1734 1069 1313 
Q 1069 891 1326 650 
Q 1584 409 2034 409 
Q 2484 409 2743 651 
Q 3003 894 3003 1313 
Q 3003 1734 2745 1975 
Q 2488 2216 2034 2216 
z
M 1403 2484 
Q 997 2584 770 2862 
Q 544 3141 544 3541 
Q 544 4100 942 4425 
Q 1341 4750 2034 4750 
Q 2731 4750 3128 4425 
Q 3525 4100 3525 3541 
Q 3525 3141 3298 2862 
Q 3072 2584 2669 2484 
Q 3125 2378 3379 2068 
Q 3634 1759 3634 1313 
Q 3634 634 3220 271 
Q 2806 -91 2034 -91 
Q 1263 -91 848 271 
Q 434 634 434 1313 
Q 434 1759 690 2068 
Q 947 2378 1403 2484 
z
M 1172 3481 
Q 1172 3119 1398 2916 
Q 1625 2713 2034 2713 
Q 2441 2713 2670 2916 
Q 2900 3119 2900 3481 
Q 2900 3844 2670 4047 
Q 2441 4250 2034 4250 
Q 1625 4250 1398 4047 
Q 1172 3844 1172 3481 
z
" id="DejaVuSans-38" transform="scale(0.015625)"/>
       </defs>
       <use xlink:href="#DejaVuSans-30"/>
       <use x="63.623047" xlink:href="#DejaVuSans-2e"/>
       <use x="95.410156" xlink:href="#DejaVuSans-38"/>
      </g>
     </g>
    </g>
    <g id="text_13">
     <!-- Floating Probability A -->
     <g style="fill:#1a1a1a;" transform="translate(105.920625 318.249375)rotate(-90)scale(0.12 -0.12)">
      <defs>
       <path d="M 628 4666 
L 3309 4666 
L 3309 4134 
L 1259 4134 
L 1259 2759 
L 3109 2759 
L 3109 2228 
L 1259 2228 
L 1259 0 
L 628 0 
L 628 4666 
z
" id="DejaVuSans-46" transform="scale(0.015625)"/>
       <path d="M 603 4863 
L 1178 4863 
L 1178 0 
L 603 0 
L 603 4863 
z
" id="DejaVuSans-6c" transform="scale(0.015625)"/>
       <path d="M 2194 1759 
Q 1497 1759 1228 1600 
Q 959 1441 959 1056 
Q 959 750 1161 570 
Q 1363 391 1709 391 
Q 2188 391 2477 730 
Q 2766 1069 2766 1631 
L 2766 1759 
L 2194 1759 
z
M 3341 1997 
L 3341 0 
L 2766 0 
L 2766 531 
Q 2569 213 2275 61 
Q 1981 -91 1556 -91 
Q 1019 -91 701 211 
Q 384 513 384 1019 
Q 384 1609 779 1909 
Q 1175 2209 1959 2209 
L 2766 2209 
L 2766 2266 
Q 2766 2663 2505 2880 
Q 2244 3097 1772 3097 
Q 1472 3097 1187 3025 
Q 903 2953 641 2809 
L 641 3341 
Q 956 3463 1253 3523 
Q 1550 3584 1831 3584 
Q 2591 3584 2966 3190 
Q 3341 2797 3341 1997 
z
" id="DejaVuSans-61" transform="scale(0.015625)"/>
       <path d="M 2906 1791 
Q 2906 2416 2648 2759 
Q 2391 3103 1925 3103 
Q 1463 3103 1205 2759 
Q 947 2416 947 1791 
Q 947 1169 1205 825 
Q 1463 481 1925 481 
Q 2391 481 2648 825 
Q 2906 1169 2906 1791 
z
M 3481 434 
Q 3481 -459 3084 -895 
Q 2688 -1331 1869 -1331 
Q 1566 -1331 1297 -1286 
Q 1028 -1241 775 -1147 
L 775 -588 
Q 1028 -725 1275 -790 
Q 1522 -856 1778 -856 
Q 2344 -856 2625 -561 
Q 2906 -266 2906 331 
L 2906 616 
Q 2728 306 2450 153 
Q 2172 0 1784 0 
Q 1141 0 747 490 
Q 353 981 353 1791 
Q 353 2603 747 3093 
Q 1141 3584 1784 3584 
Q 2172 3584 2450 3431 
Q 2728 3278 2906 2969 
L 2906 3500 
L 3481 3500 
L 3481 434 
z
" id="DejaVuSans-67" transform="scale(0.015625)"/>
       <path d="M 2631 2963 
Q 2534 3019 2420 3045 
Q 2306 3072 2169 3072 
Q 1681 3072 1420 2755 
Q 1159 2438 1159 1844 
L 1159 0 
L 581 0 
L 581 3500 
L 1159 3500 
L 1159 2956 
Q 1341 3275 1631 3429 
Q 1922 3584 2338 3584 
Q 2397 3584 2469 3576 
Q 2541 3569 2628 3553 
L 2631 2963 
z
" id="DejaVuSans-72" transform="scale(0.015625)"/>
       <path d="M 3116 1747 
Q 3116 2381 2855 2742 
Q 2594 3103 2138 3103 
Q 1681 3103 1420 2742 
Q 1159 2381 1159 1747 
Q 1159 1113 1420 752 
Q 1681 391 2138 391 
Q 2594 391 2855 752 
Q 3116 1113 3116 1747 
z
M 1159 2969 
Q 1341 3281 1617 3432 
Q 1894 3584 2278 3584 
Q 2916 3584 3314 3078 
Q 3713 2572 3713 1747 
Q 3713 922 3314 415 
Q 2916 -91 2278 -91 
Q 1894 -91 1617 61 
Q 1341 213 1159 525 
L 1159 0 
L 581 0 
L 581 4863 
L 1159 4863 
L 1159 2969 
z
" id="DejaVuSans-62" transform="scale(0.015625)"/>
       <path d="M 2059 -325 
Q 1816 -950 1584 -1140 
Q 1353 -1331 966 -1331 
L 506 -1331 
L 506 -850 
L 844 -850 
Q 1081 -850 1212 -737 
Q 1344 -625 1503 -206 
L 1606 56 
L 191 3500 
L 800 3500 
L 1894 763 
L 2988 3500 
L 3597 3500 
L 2059 -325 
z
" id="DejaVuSans-79" transform="scale(0.015625)"/>
       <path d="M 2188 4044 
L 1331 1722 
L 3047 1722 
L 2188 4044 
z
M 1831 4666 
L 2547 4666 
L 4325 0 
L 3669 0 
L 3244 1197 
L 1141 1197 
L 716 0 
L 50 0 
L 1831 4666 
z
" id="DejaVuSans-41" transform="scale(0.015625)"/>
      </defs>
      <use xlink:href="#DejaVuSans-46"/>
      <use x="57.519531" xlink:href="#DejaVuSans-6c"/>
      <use x="85.302734" xlink:href="#DejaVuSans-6f"/>
      <use x="146.484375" xlink:href="#DejaVuSans-61"/>
      <use x="207.763672" xlink:href="#DejaVuSans-74"/>
      <use x="246.972656" xlink:href="#DejaVuSans-69"/>
      <use x="274.755859" xlink:href="#DejaVuSans-6e"/>
      <use x="338.134766" xlink:href="#DejaVuSans-67"/>
      <use x="401.611328" xlink:href="#DejaVuSans-20"/>
      <use x="433.398438" xlink:href="#DejaVuSans-50"/>
      <use x="491.951172" xlink:href="#DejaVuSans-72"/>
      <use x="530.814453" xlink:href="#DejaVuSans-6f"/>
      <use x="591.996094" xlink:href="#DejaVuSans-62"/>
      <use x="655.472656" xlink:href="#DejaVuSans-61"/>
      <use x="716.751953" xlink:href="#DejaVuSans-62"/>
      <use x="780.228516" xlink:href="#DejaVuSans-69"/>
      <use x="808.011719" xlink:href="#DejaVuSans-6c"/>
      <use x="835.794922" xlink:href="#DejaVuSans-69"/>
      <use x="863.578125" xlink:href="#DejaVuSans-74"/>
      <use x="902.787109" xlink:href="#DejaVuSans-79"/>
      <use x="961.966797" xlink:href="#DejaVuSans-20"/>
      <use x="993.753906" xlink:href="#DejaVuSans-41"/>
     </g>
    </g>
   </g>
   <g id="line2d_23">
    <path clip-path="url(#pbbd6ec7f5b)" d="M 173.045455 256.331005 
L 175.330467 283.801301 
L 177.615479 262.923876 
L 179.900491 238.953499 
L 182.185504 253.64502 
L 184.470516 230.610668 
L 186.755528 256.168218 
L 189.040541 274.115478 
L 191.325553 252.912479 
L 193.610565 272.731789 
L 195.895577 297.800978 
L 198.18059 315.666845 
L 200.465602 337.968656 
L 202.750614 348.834685 
L 207.320639 322.096929 
L 209.605651 340.939518 
L 211.890663 352.415997 
L 214.175676 339.922099 
L 216.460688 324.131766 
L 218.7457 334.468737 
L 221.030713 353.921776 
L 223.315725 371.339979 
L 225.600737 383.67109 
L 227.885749 373.537603 
L 230.170762 384.851295 
L 232.455774 393.926667 
L 234.740786 391.973224 
L 237.025799 378.950269 
L 239.310811 388.473305 
L 241.595823 399.176546 
L 243.880835 404.100851 
L 246.165848 408.658886 
L 248.45086 405.199663 
L 250.735872 410.9786 
L 253.020885 418.263315 
L 255.305897 412.118108 
L 257.590909 409.310033 
L 259.875921 410.897206 
L 262.160934 414.844789 
L 264.445946 413.664584 
L 266.730958 407.2345 
L 269.015971 412.850649 
L 271.300983 412.484379 
L 273.585995 419.240037 
L 275.871007 423.30971 
L 278.15602 416.96102 
L 280.441032 424.082948 
L 282.726044 417.815651 
L 287.296069 397.670767 
L 289.581081 386.357075 
L 291.866093 376.223587 
L 294.151106 390.589535 
L 296.436118 396.531259 
L 298.72113 408.414705 
L 303.291155 381.269983 
L 305.576167 391.729044 
L 307.861179 382.490885 
L 310.146192 361.97973 
L 312.431204 373.334119 
L 314.716216 365.072682 
L 317.001229 350.218374 
L 319.286241 365.072682 
L 321.571253 353.474112 
L 323.856265 368.938872 
L 326.141278 383.223426 
L 328.42629 394.862692 
L 332.996314 366.985429 
L 335.281327 379.68281 
L 337.566339 391.444167 
L 339.851351 379.764203 
L 342.136364 393.64179 
L 344.421376 406.013598 
L 346.706388 416.187782 
L 348.9914 423.675981 
L 351.276413 417.408684 
L 353.561425 408.414705 
L 355.846437 394.740602 
L 358.13145 407.11241 
L 360.416462 417.815651 
L 362.701474 406.013598 
L 364.986486 415.373847 
L 367.271499 409.432124 
L 369.556511 396.449865 
L 371.841523 387.984944 
L 374.126536 375.084079 
L 376.411548 383.79318 
L 378.69656 394.089454 
L 380.981572 405.688024 
L 383.266585 419.402824 
L 385.551597 410.937903 
L 387.836609 400.356752 
L 390.121622 391.118593 
L 392.406634 384.891992 
L 394.691646 391.240683 
L 396.976658 378.787482 
L 399.261671 388.229124 
L 401.546683 402.310195 
L 403.831695 407.275197 
L 406.116708 422.048112 
L 408.40172 411.34487 
L 410.686732 397.019619 
L 412.971744 381.758344 
L 415.256757 368.043544 
L 417.541769 357.787966 
L 419.826781 375.165472 
L 422.111794 387.374493 
L 424.396806 370.810922 
L 426.681818 391.729044 
L 428.96683 371.299283 
L 431.251843 389.7756 
L 433.536855 401.170686 
L 435.821867 411.955321 
L 438.10688 401.862531 
L 440.391892 389.28724 
L 442.676904 371.380676 
L 444.961916 356.974032 
L 447.246929 383.304819 
L 449.531941 366.700551 
L 451.816953 380.456048 
L 454.101966 365.479649 
L 456.386978 381.880434 
L 458.67199 400.031178 
L 463.242015 418.588889 
L 465.527027 430.92 
L 467.812039 424.408522 
L 470.097052 414.315732 
L 472.382064 394.984783 
L 474.667076 411.792534 
L 476.952088 400.926506 
L 479.237101 374.839898 
L 481.522113 393.316216 
L 483.807125 414.193642 
L 488.37715 378.787482 
L 490.662162 319.858609 
L 492.947174 303.579915 
L 497.517199 334.835007 
L 499.802211 314.893607 
L 502.087224 297.841675 
L 504.372236 313.428525 
L 506.657248 296.90565 
L 508.94226 274.603839 
L 511.227273 287.219827 
L 513.512285 275.784044 
L 515.797297 253.319446 
L 518.08231 240.459278 
L 520.367322 250.999732 
L 522.652334 228.901405 
L 524.937346 251.813667 
L 527.222359 230.569971 
L 529.507371 206.558897 
L 531.792383 227.110749 
L 534.077396 246.238214 
L 536.362408 262.842482 
L 538.64742 248.476535 
L 540.932432 270.005108 
L 543.217445 287.789581 
L 545.502457 302.155529 
L 547.787469 294.056879 
L 550.072482 269.720231 
L 552.357494 247.296329 
L 554.642506 217.058655 
L 556.927518 197.605615 
L 559.212531 212.459924 
L 563.782555 250.714855 
L 568.35258 216.081933 
L 570.637592 232.035054 
L 572.922604 213.355252 
L 575.207617 234.232677 
L 577.492629 206.314717 
L 579.777641 188.774424 
L 582.062654 209.082095 
L 584.347666 234.558251 
L 586.632678 210.14021 
L 588.91769 189.262785 
L 593.487715 234.232677 
L 598.05774 191.989466 
L 600.342752 212.25644 
L 602.627764 231.058332 
L 604.912776 211.686686 
L 607.197789 190.117416 
L 609.482801 213.273859 
L 611.767813 190.56508 
L 614.052826 215.87845 
L 616.337838 192.966188 
L 618.62285 210.058816 
L 620.907862 231.912963 
L 623.192875 209.651849 
L 627.762899 170.949254 
L 630.047912 161.751791 
L 632.332924 150.682279 
L 634.617936 141.240637 
L 636.902948 146.327729 
L 639.187961 139.287193 
L 641.472973 131.554814 
L 643.757985 124.921246 
L 646.042998 123.25268 
L 648.32801 125.61309 
L 650.613022 122.153868 
L 652.898034 130.537395 
L 655.183047 147.467237 
L 657.468059 130.618789 
L 659.753071 121.217843 
L 662.038084 105.42751 
L 664.323096 96.718408 
L 666.608108 86.21865 
L 668.89312 79.015328 
L 671.178133 85.079142 
L 673.463145 78.12 
L 675.748157 82.189674 
L 680.318182 102.008984 
L 682.603194 115.886571 
L 684.888206 110.270421 
L 687.173219 117.555137 
L 689.458231 106.689108 
L 691.743243 97.450949 
L 694.028256 103.189189 
L 696.313268 117.677227 
L 698.59828 100.991565 
L 700.883292 115.886571 
L 703.168305 104.410091 
L 705.453317 116.334235 
L 707.738329 102.822918 
L 710.023342 90.817381 
L 712.308354 99.93345 
L 714.593366 107.706527 
L 716.878378 100.869475 
L 719.163391 91.916193 
L 721.448403 102.538041 
L 723.733415 91.183652 
L 726.018428 99.526483 
L 728.30344 114.502882 
L 730.588452 106.160051 
L 732.873464 116.008661 
L 735.158477 103.55546 
L 737.443489 117.677227 
L 739.728501 130.822272 
L 742.013514 115.39821 
L 744.298526 130.130428 
L 746.583538 117.799317 
L 748.86855 133.386167 
L 751.153563 152.106665 
L 753.438575 168.670236 
L 755.723587 147.467237 
L 758.0086 168.181876 
L 760.293612 183.483848 
L 762.578624 171.519008 
L 764.863636 193.617335 
L 767.148649 180.960651 
L 769.433661 193.006884 
L 774.003686 164.76335 
L 776.288698 153.531051 
L 778.57371 172.332943 
L 780.858722 184.501267 
L 783.143735 202.000863 
L 785.428747 215.390089 
L 787.713759 235.69776 
L 789.998771 248.639322 
L 792.283784 259.586744 
L 794.568796 249.819527 
L 796.853808 264.388958 
L 799.138821 281.3188 
L 801.423833 303.295037 
L 803.708845 288.644213 
L 805.993857 259.179776 
L 808.27887 227.192142 
L 810.563882 263.290146 
L 812.848894 293.690608 
L 815.133907 259.62744 
L 817.418919 292.388312 
L 819.703931 322.992257 
L 821.988943 341.183698 
L 824.273956 321.486478 
L 826.558968 345.619642 
L 828.84398 320.71324 
L 831.128993 348.916078 
L 833.414005 322.748077 
L 835.699017 290.841836 
L 837.984029 262.720392 
L 840.269042 241.55809 
L 842.554054 264.063384 
L 844.839066 237.529113 
L 847.124079 268.010968 
L 849.409091 229.796733 
L 851.694103 197.442828 
L 856.264128 151.536911 
L 858.54914 136.112848 
L 860.834152 125.572394 
L 863.119165 140.630186 
L 865.404177 159.106504 
L 867.689189 173.798025 
L 869.974201 166.798187 
L 872.259214 183.076881 
L 874.544226 204.15779 
L 876.829238 182.547823 
L 879.114251 208.227463 
L 881.399263 184.745447 
L 883.684275 152.717116 
L 885.969287 117.026079 
L 888.2543 135.583791 
L 890.539312 116.008661 
L 892.824324 137.374447 
L 895.109337 119.142309 
L 899.679361 170.176016 
L 901.964373 200.53578 
L 904.249386 170.094622 
L 908.81941 114.136611 
L 911.104423 97.328859 
L 913.389435 112.061077 
L 917.959459 145.635884 
L 920.244472 137.252357 
L 922.529484 147.141663 
L 924.814496 197.890493 
L 927.099509 170.949254 
L 929.384521 141.44412 
L 931.669533 169.769048 
L 933.954545 132.246658 
L 933.954545 132.246658 
" style="fill:none;stroke:#808080;stroke-linecap:square;stroke-width:1.5;"/>
   </g>
   <g id="patch_100">
    <path d="M 135 448.56 
L 135 60.48 
" style="fill:none;stroke:#1a1a1a;stroke-linecap:square;stroke-linejoin:miter;"/>
   </g>
   <g id="patch_101">
    <path d="M 135 448.56 
L 972 448.56 
" style="fill:none;stroke:#1a1a1a;stroke-linecap:square;stroke-linejoin:miter;"/>
   </g>
   <g id="text_14">
    <!-- Floating Probability A with Significant Trends Highlighted -->
    <g style="fill:#333333;" transform="translate(326.995 54.48)scale(0.16 -0.16)">
     <defs>
      <path d="M 269 3500 
L 844 3500 
L 1563 769 
L 2278 3500 
L 2956 3500 
L 3675 769 
L 4391 3500 
L 4966 3500 
L 4050 0 
L 3372 0 
L 2619 2869 
L 1863 0 
L 1184 0 
L 269 3500 
z
" id="DejaVuSans-77" transform="scale(0.015625)"/>
      <path d="M 3513 2113 
L 3513 0 
L 2938 0 
L 2938 2094 
Q 2938 2591 2744 2837 
Q 2550 3084 2163 3084 
Q 1697 3084 1428 2787 
Q 1159 2491 1159 1978 
L 1159 0 
L 581 0 
L 581 4863 
L 1159 4863 
L 1159 2956 
Q 1366 3272 1645 3428 
Q 1925 3584 2291 3584 
Q 2894 3584 3203 3211 
Q 3513 2838 3513 2113 
z
" id="DejaVuSans-68" transform="scale(0.015625)"/>
      <path d="M 3425 4513 
L 3425 3897 
Q 3066 4069 2747 4153 
Q 2428 4238 2131 4238 
Q 1616 4238 1336 4038 
Q 1056 3838 1056 3469 
Q 1056 3159 1242 3001 
Q 1428 2844 1947 2747 
L 2328 2669 
Q 3034 2534 3370 2195 
Q 3706 1856 3706 1288 
Q 3706 609 3251 259 
Q 2797 -91 1919 -91 
Q 1588 -91 1214 -16 
Q 841 59 441 206 
L 441 856 
Q 825 641 1194 531 
Q 1563 422 1919 422 
Q 2459 422 2753 634 
Q 3047 847 3047 1241 
Q 3047 1584 2836 1778 
Q 2625 1972 2144 2069 
L 1759 2144 
Q 1053 2284 737 2584 
Q 422 2884 422 3419 
Q 422 4038 858 4394 
Q 1294 4750 2059 4750 
Q 2388 4750 2728 4690 
Q 3069 4631 3425 4513 
z
" id="DejaVuSans-53" transform="scale(0.015625)"/>
      <path d="M 2375 4863 
L 2375 4384 
L 1825 4384 
Q 1516 4384 1395 4259 
Q 1275 4134 1275 3809 
L 1275 3500 
L 2222 3500 
L 2222 3053 
L 1275 3053 
L 1275 0 
L 697 0 
L 697 3053 
L 147 3053 
L 147 3500 
L 697 3500 
L 697 3744 
Q 697 4328 969 4595 
Q 1241 4863 1831 4863 
L 2375 4863 
z
" id="DejaVuSans-66" transform="scale(0.015625)"/>
      <path d="M 3122 3366 
L 3122 2828 
Q 2878 2963 2633 3030 
Q 2388 3097 2138 3097 
Q 1578 3097 1268 2742 
Q 959 2388 959 1747 
Q 959 1106 1268 751 
Q 1578 397 2138 397 
Q 2388 397 2633 464 
Q 2878 531 3122 666 
L 3122 134 
Q 2881 22 2623 -34 
Q 2366 -91 2075 -91 
Q 1284 -91 818 406 
Q 353 903 353 1747 
Q 353 2603 823 3093 
Q 1294 3584 2113 3584 
Q 2378 3584 2631 3529 
Q 2884 3475 3122 3366 
z
" id="DejaVuSans-63" transform="scale(0.015625)"/>
      <path d="M -19 4666 
L 3928 4666 
L 3928 4134 
L 2272 4134 
L 2272 0 
L 1638 0 
L 1638 4134 
L -19 4134 
L -19 4666 
z
" id="DejaVuSans-54" transform="scale(0.015625)"/>
      <path d="M 2834 3397 
L 2834 2853 
Q 2591 2978 2328 3040 
Q 2066 3103 1784 3103 
Q 1356 3103 1142 2972 
Q 928 2841 928 2578 
Q 928 2378 1081 2264 
Q 1234 2150 1697 2047 
L 1894 2003 
Q 2506 1872 2764 1633 
Q 3022 1394 3022 966 
Q 3022 478 2636 193 
Q 2250 -91 1575 -91 
Q 1294 -91 989 -36 
Q 684 19 347 128 
L 347 722 
Q 666 556 975 473 
Q 1284 391 1588 391 
Q 1994 391 2212 530 
Q 2431 669 2431 922 
Q 2431 1156 2273 1281 
Q 2116 1406 1581 1522 
L 1381 1569 
Q 847 1681 609 1914 
Q 372 2147 372 2553 
Q 372 3047 722 3315 
Q 1072 3584 1716 3584 
Q 2034 3584 2315 3537 
Q 2597 3491 2834 3397 
z
" id="DejaVuSans-73" transform="scale(0.015625)"/>
      <path d="M 628 4666 
L 1259 4666 
L 1259 2753 
L 3553 2753 
L 3553 4666 
L 4184 4666 
L 4184 0 
L 3553 0 
L 3553 2222 
L 1259 2222 
L 1259 0 
L 628 0 
L 628 4666 
z
" id="DejaVuSans-48" transform="scale(0.015625)"/>
     </defs>
     <use xlink:href="#DejaVuSans-46"/>
     <use x="57.519531" xlink:href="#DejaVuSans-6c"/>
     <use x="85.302734" xlink:href="#DejaVuSans-6f"/>
     <use x="146.484375" xlink:href="#DejaVuSans-61"/>
     <use x="207.763672" xlink:href="#DejaVuSans-74"/>
     <use x="246.972656" xlink:href="#DejaVuSans-69"/>
     <use x="274.755859" xlink:href="#DejaVuSans-6e"/>
     <use x="338.134766" xlink:href="#DejaVuSans-67"/>
     <use x="401.611328" xlink:href="#DejaVuSans-20"/>
     <use x="433.398438" xlink:href="#DejaVuSans-50"/>
     <use x="491.951172" xlink:href="#DejaVuSans-72"/>
     <use x="530.814453" xlink:href="#DejaVuSans-6f"/>
     <use x="591.996094" xlink:href="#DejaVuSans-62"/>
     <use x="655.472656" xlink:href="#DejaVuSans-61"/>
     <use x="716.751953" xlink:href="#DejaVuSans-62"/>
     <use x="780.228516" xlink:href="#DejaVuSans-69"/>
     <use x="808.011719" xlink:href="#DejaVuSans-6c"/>
     <use x="835.794922" xlink:href="#DejaVuSans-69"/>
     <use x="863.578125" xlink:href="#DejaVuSans-74"/>
     <use x="902.787109" xlink:href="#DejaVuSans-79"/>
     <use x="961.966797" xlink:href="#DejaVuSans-20"/>
     <use x="993.753906" xlink:href="#DejaVuSans-41"/>
     <use x="1062.162109" xlink:href="#DejaVuSans-20"/>
     <use x="1093.949219" xlink:href="#DejaVuSans-77"/>
     <use x="1175.736328" xlink:href="#DejaVuSans-69"/>
     <use x="1203.519531" xlink:href="#DejaVuSans-74"/>
     <use x="1242.728516" xlink:href="#DejaVuSans-68"/>
     <use x="1306.107422" xlink:href="#DejaVuSans-20"/>
     <use x="1337.894531" xlink:href="#DejaVuSans-53"/>
     <use x="1401.371094" xlink:href="#DejaVuSans-69"/>
     <use x="1429.154297" xlink:href="#DejaVuSans-67"/>
     <use x="1492.630859" xlink:href="#DejaVuSans-6e"/>
     <use x="1556.009766" xlink:href="#DejaVuSans-69"/>
     <use x="1583.792969" xlink:href="#DejaVuSans-66"/>
     <use x="1618.998047" xlink:href="#DejaVuSans-69"/>
     <use x="1646.78125" xlink:href="#DejaVuSans-63"/>
     <use x="1701.761719" xlink:href="#DejaVuSans-61"/>
     <use x="1763.041016" xlink:href="#DejaVuSans-6e"/>
     <use x="1826.419922" xlink:href="#DejaVuSans-74"/>
     <use x="1865.628906" xlink:href="#DejaVuSans-20"/>
     <use x="1897.416016" xlink:href="#DejaVuSans-54"/>
     <use x="1943.75" xlink:href="#DejaVuSans-72"/>
     <use x="1982.613281" xlink:href="#DejaVuSans-65"/>
     <use x="2044.136719" xlink:href="#DejaVuSans-6e"/>
     <use x="2107.515625" xlink:href="#DejaVuSans-64"/>
     <use x="2170.992188" xlink:href="#DejaVuSans-73"/>
     <use x="2223.091797" xlink:href="#DejaVuSans-20"/>
     <use x="2254.878906" xlink:href="#DejaVuSans-48"/>
     <use x="2330.074219" xlink:href="#DejaVuSans-69"/>
     <use x="2357.857422" xlink:href="#DejaVuSans-67"/>
     <use x="2421.333984" xlink:href="#DejaVuSans-68"/>
     <use x="2484.712891" xlink:href="#DejaVuSans-6c"/>
     <use x="2512.496094" xlink:href="#DejaVuSans-69"/>
     <use x="2540.279297" xlink:href="#DejaVuSans-67"/>
     <use x="2603.755859" xlink:href="#DejaVuSans-68"/>
     <use x="2667.134766" xlink:href="#DejaVuSans-74"/>
     <use x="2706.34375" xlink:href="#DejaVuSans-65"/>
     <use x="2767.867188" xlink:href="#DejaVuSans-64"/>
    </g>
   </g>
   <g id="legend_1">
    <g id="patch_102">
     <path d="M 826.784375 83.158125 
L 965 83.158125 
Q 967 83.158125 967 81.158125 
L 967 67.48 
Q 967 65.48 965 65.48 
L 826.784375 65.48 
Q 824.784375 65.48 824.784375 67.48 
L 824.784375 81.158125 
Q 824.784375 83.158125 826.784375 83.158125 
z
" style="fill:#ffffff;opacity:0.8;stroke:#cccccc;stroke-linejoin:miter;"/>
    </g>
    <g id="line2d_24">
     <path d="M 828.784375 73.578438 
L 848.784375 73.578438 
" style="fill:none;stroke:#808080;stroke-linecap:square;stroke-width:1.5;"/>
    </g>
    <g id="line2d_25"/>
    <g id="text_15">
     <!-- Floating Probability A -->
     <g style="fill:#333333;" transform="translate(856.784375 77.078438)scale(0.1 -0.1)">
      <use xlink:href="#DejaVuSans-46"/>
      <use x="57.519531" xlink:href="#DejaVuSans-6c"/>
      <use x="85.302734" xlink:href="#DejaVuSans-6f"/>
      <use x="146.484375" xlink:href="#DejaVuSans-61"/>
      <use x="207.763672" xlink:href="#DejaVuSans-74"/>
      <use x="246.972656" xlink:href="#DejaVuSans-69"/>
      <use x="274.755859" xlink:href="#DejaVuSans-6e"/>
      <use x="338.134766" xlink:href="#DejaVuSans-67"/>
      <use x="401.611328" xlink:href="#DejaVuSans-20"/>
      <use x="433.398438" xlink:href="#DejaVuSans-50"/>
      <use x="491.951172" xlink:href="#DejaVuSans-72"/>
      <use x="530.814453" xlink:href="#DejaVuSans-6f"/>
      <use x="591.996094" xlink:href="#DejaVuSans-62"/>
      <use x="655.472656" xlink:href="#DejaVuSans-61"/>
      <use x="716.751953" xlink:href="#DejaVuSans-62"/>
      <use x="780.228516" xlink:href="#DejaVuSans-69"/>
      <use x="808.011719" xlink:href="#DejaVuSans-6c"/>
      <use x="835.794922" xlink:href="#DejaVuSans-69"/>
      <use x="863.578125" xlink:href="#DejaVuSans-74"/>
      <use x="902.787109" xlink:href="#DejaVuSans-79"/>
      <use x="961.966797" xlink:href="#DejaVuSans-20"/>
      <use x="993.753906" xlink:href="#DejaVuSans-41"/>
     </g>
    </g>
   </g>
  </g>
 </g>
 <defs>
  <clipPath id="pbbd6ec7f5b">
   <rect height="388.08" width="837" x="135" y="60.48"/>
  </clipPath>
 </defs>
</svg>
