<?xml version="1.0" encoding="utf-8" standalone="no"?>
<!DOCTYPE svg PUBLIC "-//W3C//DTD SVG 1.1//EN"
  "http://www.w3.org/Graphics/SVG/1.1/DTD/svg11.dtd">
<svg xmlns:xlink="http://www.w3.org/1999/xlink" width="720pt" height="288pt" viewBox="0 0 720 288" xmlns="http://www.w3.org/2000/svg" version="1.1">
 <metadata>
  <rdf:RDF xmlns:dc="http://purl.org/dc/elements/1.1/" xmlns:cc="http://creativecommons.org/ns#" xmlns:rdf="http://www.w3.org/1999/02/22-rdf-syntax-ns#">
   <cc:Work>
    <dc:type rdf:resource="http://purl.org/dc/dcmitype/StillImage"/>
    <dc:date>2023-09-10T01:42:28.749756</dc:date>
    <dc:format>image/svg+xml</dc:format>
    <dc:creator>
     <cc:Agent>
      <dc:title>Matplotlib v3.7.2, https://matplotlib.org/</dc:title>
     </cc:Agent>
    </dc:creator>
   </cc:Work>
  </rdf:RDF>
 </metadata>
 <defs>
  <style type="text/css">*{stroke-linejoin: round; stroke-linecap: butt}</style>
 </defs>
 <g id="figure_1">
  <g id="patch_1">
   <path d="M 0 288 
L 720 288 
L 720 0 
L 0 0 
z
" style="fill: #ffffff"/>
  </g>
  <g id="axes_1">
   <g id="patch_2">
    <path d="M 90 256.32 
L 648 256.32 
L 648 34.56 
L 90 34.56 
z
" style="fill: #ffffff"/>
   </g>
   <g id="PathCollection_1">
    <defs>
     <path id="m81c8f31a49" d="M 0 1.5 
C 0.397805 1.5 0.77937 1.341951 1.06066 1.06066 
C 1.341951 0.77937 1.5 0.397805 1.5 0 
C 1.5 -0.397805 1.341951 -0.77937 1.06066 -1.06066 
C 0.77937 -1.341951 0.397805 -1.5 0 -1.5 
C -0.397805 -1.5 -0.77937 -1.341951 -1.06066 -1.06066 
C -1.341951 -0.77937 -1.5 -0.397805 -1.5 0 
C -1.5 0.397805 -1.341951 0.77937 -1.06066 1.06066 
C -0.77937 1.341951 -0.397805 1.5 0 1.5 
z
" style="stroke: #1f77b4"/>
    </defs>
    <g clip-path="url(#pd0be0d7abf)">
     <use xlink:href="#m81c8f31a49" x="622.636364" y="142.253103" style="fill: #1f77b4; stroke: #1f77b4"/>
     <use xlink:href="#m81c8f31a49" x="622.636364" y="91.322321" style="fill: #1f77b4; stroke: #1f77b4"/>
     <use xlink:href="#m81c8f31a49" x="257.904774" y="217.020194" style="fill: #1f77b4; stroke: #1f77b4"/>
     <use xlink:href="#m81c8f31a49" x="257.904774" y="84.780746" style="fill: #1f77b4; stroke: #1f77b4"/>
     <use xlink:href="#m81c8f31a49" x="202.437953" y="216.758547" style="fill: #1f77b4; stroke: #1f77b4"/>
     <use xlink:href="#m81c8f31a49" x="202.437953" y="136.936814" style="fill: #1f77b4; stroke: #1f77b4"/>
     <use xlink:href="#m81c8f31a49" x="145.292231" y="211.442281" style="fill: #1f77b4; stroke: #1f77b4"/>
     <use xlink:href="#m81c8f31a49" x="145.292231" y="190.671572" style="fill: #1f77b4; stroke: #1f77b4"/>
     <use xlink:href="#m81c8f31a49" x="182.866529" y="211.396161" style="fill: #1f77b4; stroke: #1f77b4"/>
     <use xlink:href="#m81c8f31a49" x="182.866529" y="155.340042" style="fill: #1f77b4; stroke: #1f77b4"/>
     <use xlink:href="#m81c8f31a49" x="142.63594" y="206.629269" style="fill: #1f77b4; stroke: #1f77b4"/>
     <use xlink:href="#m81c8f31a49" x="142.63594" y="110.7884" style="fill: #1f77b4; stroke: #1f77b4"/>
     <use xlink:href="#m81c8f31a49" x="142.63594" y="46.97086" style="fill: #1f77b4; stroke: #1f77b4"/>
     <use xlink:href="#m81c8f31a49" x="142.63594" y="240.649393" style="fill: #1f77b4; stroke: #1f77b4"/>
     <use xlink:href="#m81c8f31a49" x="142.63594" y="234.610444" style="fill: #1f77b4; stroke: #1f77b4"/>
     <use xlink:href="#m81c8f31a49" x="142.63594" y="193.169311" style="fill: #1f77b4; stroke: #1f77b4"/>
     <use xlink:href="#m81c8f31a49" x="132.081716" y="201.024241" style="fill: #1f77b4; stroke: #1f77b4"/>
     <use xlink:href="#m81c8f31a49" x="132.081716" y="134.177991" style="fill: #1f77b4; stroke: #1f77b4"/>
     <use xlink:href="#m81c8f31a49" x="132.081716" y="48.466565" style="fill: #1f77b4; stroke: #1f77b4"/>
     <use xlink:href="#m81c8f31a49" x="132.081716" y="242.812926" style="fill: #1f77b4; stroke: #1f77b4"/>
     <use xlink:href="#m81c8f31a49" x="132.081716" y="231.985908" style="fill: #1f77b4; stroke: #1f77b4"/>
     <use xlink:href="#m81c8f31a49" x="132.081716" y="203.093565" style="fill: #1f77b4; stroke: #1f77b4"/>
     <use xlink:href="#m81c8f31a49" x="115.497633" y="201.8641" style="fill: #1f77b4; stroke: #1f77b4"/>
     <use xlink:href="#m81c8f31a49" x="115.497633" y="111.534162" style="fill: #1f77b4; stroke: #1f77b4"/>
     <use xlink:href="#m81c8f31a49" x="115.497633" y="133.934778" style="fill: #1f77b4; stroke: #1f77b4"/>
     <use xlink:href="#m81c8f31a49" x="115.497633" y="238.709612" style="fill: #1f77b4; stroke: #1f77b4"/>
     <use xlink:href="#m81c8f31a49" x="115.497633" y="242.711681" style="fill: #1f77b4; stroke: #1f77b4"/>
     <use xlink:href="#m81c8f31a49" x="115.497633" y="218.687762" style="fill: #1f77b4; stroke: #1f77b4"/>
     <use xlink:href="#m81c8f31a49" x="485.321104" y="170.401645" style="fill: #1f77b4; stroke: #1f77b4"/>
     <use xlink:href="#m81c8f31a49" x="485.321104" y="88.771648" style="fill: #1f77b4; stroke: #1f77b4"/>
     <use xlink:href="#m81c8f31a49" x="364.842156" y="137.617569" style="fill: #1f77b4; stroke: #1f77b4"/>
     <use xlink:href="#m81c8f31a49" x="364.842156" y="168.278187" style="fill: #1f77b4; stroke: #1f77b4"/>
     <use xlink:href="#m81c8f31a49" x="221.244808" y="113.767438" style="fill: #1f77b4; stroke: #1f77b4"/>
     <use xlink:href="#m81c8f31a49" x="221.244808" y="149.098726" style="fill: #1f77b4; stroke: #1f77b4"/>
     <use xlink:href="#m81c8f31a49" x="221.244808" y="54.901747" style="fill: #1f77b4; stroke: #1f77b4"/>
     <use xlink:href="#m81c8f31a49" x="221.244808" y="224.535197" style="fill: #1f77b4; stroke: #1f77b4"/>
     <use xlink:href="#m81c8f31a49" x="221.244808" y="195.836411" style="fill: #1f77b4; stroke: #1f77b4"/>
     <use xlink:href="#m81c8f31a49" x="221.244808" y="211.144387" style="fill: #1f77b4; stroke: #1f77b4"/>
     <use xlink:href="#m81c8f31a49" x="344.955445" y="199.175495" style="fill: #1f77b4; stroke: #1f77b4"/>
     <use xlink:href="#m81c8f31a49" x="344.955445" y="85.385434" style="fill: #1f77b4; stroke: #1f77b4"/>
     <use xlink:href="#m81c8f31a49" x="262.909951" y="198.706648" style="fill: #1f77b4; stroke: #1f77b4"/>
     <use xlink:href="#m81c8f31a49" x="262.909951" y="137.184641" style="fill: #1f77b4; stroke: #1f77b4"/>
     <use xlink:href="#m81c8f31a49" x="228.512167" y="192.889997" style="fill: #1f77b4; stroke: #1f77b4"/>
     <use xlink:href="#m81c8f31a49" x="228.512167" y="158.901592" style="fill: #1f77b4; stroke: #1f77b4"/>
     <use xlink:href="#m81c8f31a49" x="172.47783" y="184.789237" style="fill: #1f77b4; stroke: #1f77b4"/>
     <use xlink:href="#m81c8f31a49" x="172.47783" y="112.898934" style="fill: #1f77b4; stroke: #1f77b4"/>
     <use xlink:href="#m81c8f31a49" x="172.47783" y="50.320232" style="fill: #1f77b4; stroke: #1f77b4"/>
     <use xlink:href="#m81c8f31a49" x="172.47783" y="234.532042" style="fill: #1f77b4; stroke: #1f77b4"/>
     <use xlink:href="#m81c8f31a49" x="172.47783" y="225.702143" style="fill: #1f77b4; stroke: #1f77b4"/>
     <use xlink:href="#m81c8f31a49" x="172.47783" y="194.278724" style="fill: #1f77b4; stroke: #1f77b4"/>
     <use xlink:href="#m81c8f31a49" x="154.333078" y="179.248609" style="fill: #1f77b4; stroke: #1f77b4"/>
     <use xlink:href="#m81c8f31a49" x="154.333078" y="139.994605" style="fill: #1f77b4; stroke: #1f77b4"/>
     <use xlink:href="#m81c8f31a49" x="154.333078" y="51.844774" style="fill: #1f77b4; stroke: #1f77b4"/>
     <use xlink:href="#m81c8f31a49" x="154.333078" y="238.251573" style="fill: #1f77b4; stroke: #1f77b4"/>
     <use xlink:href="#m81c8f31a49" x="154.333078" y="222.964512" style="fill: #1f77b4; stroke: #1f77b4"/>
     <use xlink:href="#m81c8f31a49" x="154.333078" y="205.734365" style="fill: #1f77b4; stroke: #1f77b4"/>
     <use xlink:href="#m81c8f31a49" x="133.169455" y="177.304649" style="fill: #1f77b4; stroke: #1f77b4"/>
     <use xlink:href="#m81c8f31a49" x="133.169455" y="107.909302" style="fill: #1f77b4; stroke: #1f77b4"/>
     <use xlink:href="#m81c8f31a49" x="133.169455" y="135.074105" style="fill: #1f77b4; stroke: #1f77b4"/>
     <use xlink:href="#m81c8f31a49" x="133.169455" y="231.544904" style="fill: #1f77b4; stroke: #1f77b4"/>
     <use xlink:href="#m81c8f31a49" x="133.169455" y="237.436347" style="fill: #1f77b4; stroke: #1f77b4"/>
     <use xlink:href="#m81c8f31a49" x="133.169455" y="219.095963" style="fill: #1f77b4; stroke: #1f77b4"/>
     <use xlink:href="#m81c8f31a49" x="226.541625" y="223.449392" style="fill: #1f77b4; stroke: #1f77b4"/>
     <use xlink:href="#m81c8f31a49" x="226.541625" y="81.042217" style="fill: #1f77b4; stroke: #1f77b4"/>
     <use xlink:href="#m81c8f31a49" x="149.1072" y="225.083246" style="fill: #1f77b4; stroke: #1f77b4"/>
     <use xlink:href="#m81c8f31a49" x="149.1072" y="171.184817" style="fill: #1f77b4; stroke: #1f77b4"/>
     <use xlink:href="#m81c8f31a49" x="199.458494" y="217.647965" style="fill: #1f77b4; stroke: #1f77b4"/>
     <use xlink:href="#m81c8f31a49" x="199.458494" y="112.570105" style="fill: #1f77b4; stroke: #1f77b4"/>
     <use xlink:href="#m81c8f31a49" x="128.905202" y="194.702273" style="fill: #1f77b4; stroke: #1f77b4"/>
     <use xlink:href="#m81c8f31a49" x="128.905202" y="221.788188" style="fill: #1f77b4; stroke: #1f77b4"/>
     <use xlink:href="#m81c8f31a49" x="115.363636" y="217.384892" style="fill: #1f77b4; stroke: #1f77b4"/>
     <use xlink:href="#m81c8f31a49" x="115.363636" y="153.767331" style="fill: #1f77b4; stroke: #1f77b4"/>
     <use xlink:href="#m81c8f31a49" x="115.363636" y="44.64" style="fill: #1f77b4; stroke: #1f77b4"/>
     <use xlink:href="#m81c8f31a49" x="115.363636" y="246.24" style="fill: #1f77b4; stroke: #1f77b4"/>
     <use xlink:href="#m81c8f31a49" x="115.363636" y="238.763938" style="fill: #1f77b4; stroke: #1f77b4"/>
     <use xlink:href="#m81c8f31a49" x="115.363636" y="210.466217" style="fill: #1f77b4; stroke: #1f77b4"/>
     <use xlink:href="#m81c8f31a49" x="138.584505" y="209.594344" style="fill: #1f77b4; stroke: #1f77b4"/>
     <use xlink:href="#m81c8f31a49" x="138.584505" y="91.436552" style="fill: #1f77b4; stroke: #1f77b4"/>
     <use xlink:href="#m81c8f31a49" x="138.584505" y="55.193717" style="fill: #1f77b4; stroke: #1f77b4"/>
     <use xlink:href="#m81c8f31a49" x="138.584505" y="241.479906" style="fill: #1f77b4; stroke: #1f77b4"/>
     <use xlink:href="#m81c8f31a49" x="138.584505" y="235.819865" style="fill: #1f77b4; stroke: #1f77b4"/>
     <use xlink:href="#m81c8f31a49" x="138.584505" y="183.434448" style="fill: #1f77b4; stroke: #1f77b4"/>
    </g>
   </g>
   <g id="matplotlib.axis_1">
    <g id="xtick_1">
     <g id="line2d_1">
      <defs>
       <path id="m56c66529ac" d="M 0 0 
L 0 3.5 
" style="stroke: #000000; stroke-width: 0.8"/>
      </defs>
      <g>
       <use xlink:href="#m56c66529ac" x="150.416113" y="256.32" style="stroke: #000000; stroke-width: 0.8"/>
      </g>
     </g>
     <g id="text_1">
      <!-- 0.02 -->
      <g transform="translate(140.416113 270.195) scale(0.1 -0.1)">
       <defs>
        <path id="SimHei-30" d="M 225 2537 
Q 250 3200 412 3587 
Q 575 3975 875 4225 
Q 1175 4475 1612 4475 
Q 2050 4475 2375 4112 
Q 2700 3750 2800 3200 
Q 2900 2650 2862 1937 
Q 2825 1225 2612 775 
Q 2400 325 1975 150 
Q 1550 -25 1125 187 
Q 700 400 525 750 
Q 350 1100 275 1487 
Q 200 1875 225 2537 
z
M 750 2687 
Q 675 2000 800 1462 
Q 925 925 1212 700 
Q 1500 475 1800 612 
Q 2100 750 2237 1162 
Q 2375 1575 2375 2062 
Q 2375 2550 2337 2950 
Q 2300 3350 2112 3675 
Q 1925 4000 1612 4012 
Q 1300 4025 1062 3700 
Q 825 3375 750 2687 
z
" transform="scale(0.015625)"/>
        <path id="SimHei-2e" d="M 1075 125 
L 500 125 
L 500 675 
L 1075 675 
L 1075 125 
z
" transform="scale(0.015625)"/>
        <path id="SimHei-32" d="M 300 250 
Q 325 625 650 925 
Q 975 1225 1475 1862 
Q 1975 2500 2125 2850 
Q 2275 3200 2237 3450 
Q 2200 3700 2000 3862 
Q 1800 4025 1537 4000 
Q 1275 3975 1037 3800 
Q 800 3625 675 3275 
L 200 3350 
Q 400 3925 712 4187 
Q 1025 4450 1450 4475 
Q 1700 4500 1900 4462 
Q 2100 4425 2312 4287 
Q 2525 4150 2662 3875 
Q 2800 3600 2762 3212 
Q 2725 2825 2375 2287 
Q 2025 1750 1025 600 
L 2825 600 
L 2825 150 
L 300 150 
L 300 250 
z
" transform="scale(0.015625)"/>
       </defs>
       <use xlink:href="#SimHei-30"/>
       <use xlink:href="#SimHei-2e" x="50"/>
       <use xlink:href="#SimHei-30" x="100"/>
       <use xlink:href="#SimHei-32" x="150"/>
      </g>
     </g>
    </g>
    <g id="xtick_2">
     <g id="line2d_2">
      <g>
       <use xlink:href="#m56c66529ac" x="222.767012" y="256.32" style="stroke: #000000; stroke-width: 0.8"/>
      </g>
     </g>
     <g id="text_2">
      <!-- 0.04 -->
      <g transform="translate(212.767012 270.195) scale(0.1 -0.1)">
       <defs>
        <path id="SimHei-34" d="M 2000 1100 
L 75 1100 
L 75 1525 
L 2100 4450 
L 2475 4450 
L 2475 1525 
L 3075 1525 
L 3075 1100 
L 2475 1100 
L 2475 150 
L 2000 150 
L 2000 1100 
z
M 2000 1525 
L 2000 3500 
L 600 1525 
L 2000 1525 
z
" transform="scale(0.015625)"/>
       </defs>
       <use xlink:href="#SimHei-30"/>
       <use xlink:href="#SimHei-2e" x="50"/>
       <use xlink:href="#SimHei-30" x="100"/>
       <use xlink:href="#SimHei-34" x="150"/>
      </g>
     </g>
    </g>
    <g id="xtick_3">
     <g id="line2d_3">
      <g>
       <use xlink:href="#m56c66529ac" x="295.117911" y="256.32" style="stroke: #000000; stroke-width: 0.8"/>
      </g>
     </g>
     <g id="text_3">
      <!-- 0.06 -->
      <g transform="translate(285.117911 270.195) scale(0.1 -0.1)">
       <defs>
        <path id="SimHei-36" d="M 250 1612 
Q 275 1975 387 2225 
Q 500 2475 725 2850 
L 1750 4450 
L 2325 4450 
L 1275 2800 
Q 1950 2975 2350 2750 
Q 2750 2525 2887 2237 
Q 3025 1950 3037 1612 
Q 3050 1275 2937 950 
Q 2825 625 2537 362 
Q 2250 100 1737 75 
Q 1225 50 862 262 
Q 500 475 362 862 
Q 225 1250 250 1612 
z
M 1025 787 
Q 1250 550 1625 525 
Q 2000 500 2250 775 
Q 2500 1050 2500 1575 
Q 2500 2100 2187 2300 
Q 1875 2500 1487 2450 
Q 1100 2400 925 2075 
Q 750 1750 775 1387 
Q 800 1025 1025 787 
z
" transform="scale(0.015625)"/>
       </defs>
       <use xlink:href="#SimHei-30"/>
       <use xlink:href="#SimHei-2e" x="50"/>
       <use xlink:href="#SimHei-30" x="100"/>
       <use xlink:href="#SimHei-36" x="150"/>
      </g>
     </g>
    </g>
    <g id="xtick_4">
     <g id="line2d_4">
      <g>
       <use xlink:href="#m56c66529ac" x="367.46881" y="256.32" style="stroke: #000000; stroke-width: 0.8"/>
      </g>
     </g>
     <g id="text_4">
      <!-- 0.08 -->
      <g transform="translate(357.46881 270.195) scale(0.1 -0.1)">
       <defs>
        <path id="SimHei-38" d="M 175 1375 
Q 175 1675 325 1962 
Q 475 2250 825 2425 
Q 525 2600 425 2812 
Q 325 3025 312 3300 
Q 300 3575 387 3775 
Q 475 3975 650 4150 
Q 825 4325 1037 4387 
Q 1250 4450 1500 4450 
Q 1750 4450 1950 4400 
Q 2150 4350 2375 4187 
Q 2600 4025 2700 3725 
Q 2800 3425 2687 3025 
Q 2575 2625 2100 2400 
Q 2525 2275 2700 2012 
Q 2875 1750 2875 1375 
Q 2875 1000 2762 775 
Q 2650 550 2512 400 
Q 2375 250 2137 162 
Q 1900 75 1537 75 
Q 1175 75 912 162 
Q 650 250 475 425 
Q 300 600 237 837 
Q 175 1075 175 1375 
z
M 687 1400 
Q 675 1100 787 875 
Q 900 650 1200 587 
Q 1500 525 1825 600 
Q 2150 675 2275 950 
Q 2400 1225 2362 1500 
Q 2325 1775 2050 1962 
Q 1775 2150 1450 2125 
Q 1125 2100 912 1900 
Q 700 1700 687 1400 
z
M 775 3350 
Q 775 3100 950 2875 
Q 1125 2650 1500 2650 
Q 1875 2650 2062 2875 
Q 2250 3100 2237 3412 
Q 2225 3725 2012 3875 
Q 1800 4025 1437 4000 
Q 1075 3975 925 3787 
Q 775 3600 775 3350 
z
" transform="scale(0.015625)"/>
       </defs>
       <use xlink:href="#SimHei-30"/>
       <use xlink:href="#SimHei-2e" x="50"/>
       <use xlink:href="#SimHei-30" x="100"/>
       <use xlink:href="#SimHei-38" x="150"/>
      </g>
     </g>
    </g>
    <g id="xtick_5">
     <g id="line2d_5">
      <g>
       <use xlink:href="#m56c66529ac" x="439.819709" y="256.32" style="stroke: #000000; stroke-width: 0.8"/>
      </g>
     </g>
     <g id="text_5">
      <!-- 0.10 -->
      <g transform="translate(429.819709 270.195) scale(0.1 -0.1)">
       <defs>
        <path id="SimHei-31" d="M 1400 3600 
Q 1075 3275 575 2975 
L 575 3450 
Q 1200 3875 1600 4450 
L 1900 4450 
L 1900 150 
L 1400 150 
L 1400 3600 
z
" transform="scale(0.015625)"/>
       </defs>
       <use xlink:href="#SimHei-30"/>
       <use xlink:href="#SimHei-2e" x="50"/>
       <use xlink:href="#SimHei-31" x="100"/>
       <use xlink:href="#SimHei-30" x="150"/>
      </g>
     </g>
    </g>
    <g id="xtick_6">
     <g id="line2d_6">
      <g>
       <use xlink:href="#m56c66529ac" x="512.170608" y="256.32" style="stroke: #000000; stroke-width: 0.8"/>
      </g>
     </g>
     <g id="text_6">
      <!-- 0.12 -->
      <g transform="translate(502.170608 270.195) scale(0.1 -0.1)">
       <use xlink:href="#SimHei-30"/>
       <use xlink:href="#SimHei-2e" x="50"/>
       <use xlink:href="#SimHei-31" x="100"/>
       <use xlink:href="#SimHei-32" x="150"/>
      </g>
     </g>
    </g>
    <g id="xtick_7">
     <g id="line2d_7">
      <g>
       <use xlink:href="#m56c66529ac" x="584.521507" y="256.32" style="stroke: #000000; stroke-width: 0.8"/>
      </g>
     </g>
     <g id="text_7">
      <!-- 0.14 -->
      <g transform="translate(574.521507 270.195) scale(0.1 -0.1)">
       <use xlink:href="#SimHei-30"/>
       <use xlink:href="#SimHei-2e" x="50"/>
       <use xlink:href="#SimHei-31" x="100"/>
       <use xlink:href="#SimHei-34" x="150"/>
      </g>
     </g>
    </g>
    <g id="text_8">
     <!-- Support -->
     <g transform="translate(351.5 282.398125) scale(0.1 -0.1)">
      <defs>
       <path id="SimHei-53" d="M 2900 1325 
Q 2900 750 2537 412 
Q 2175 75 1550 75 
Q 925 75 575 425 
Q 225 775 225 1300 
L 225 1475 
L 800 1475 
L 800 1325 
Q 800 950 1025 750 
Q 1250 550 1550 550 
Q 1950 550 2137 762 
Q 2325 975 2325 1275 
Q 2325 1525 2100 1737 
Q 1875 1950 1450 2125 
Q 850 2350 587 2625 
Q 325 2900 325 3275 
Q 325 3800 687 4125 
Q 1050 4450 1550 4450 
Q 2200 4450 2487 4062 
Q 2775 3675 2775 3225 
L 2200 3225 
Q 2225 3500 2050 3725 
Q 1875 3950 1550 3950 
Q 1250 3950 1075 3787 
Q 900 3625 900 3350 
Q 900 3125 1037 2962 
Q 1175 2800 1750 2575 
Q 2300 2350 2600 2037 
Q 2900 1725 2900 1325 
z
" transform="scale(0.015625)"/>
       <path id="SimHei-75" d="M 2800 125 
L 2300 125 
L 2300 650 
Q 2100 375 1862 225 
Q 1625 75 1250 75 
Q 800 75 575 325 
Q 350 575 350 950 
L 350 2925 
L 850 2925 
L 850 1125 
Q 850 825 1000 650 
Q 1150 475 1400 475 
Q 1725 475 2012 812 
Q 2300 1150 2300 1650 
L 2300 2925 
L 2800 2925 
L 2800 125 
z
" transform="scale(0.015625)"/>
       <path id="SimHei-70" d="M 2825 1525 
Q 2825 800 2475 425 
Q 2125 50 1625 50 
Q 1350 50 1150 162 
Q 950 275 800 500 
L 800 -800 
L 300 -800 
L 300 2925 
L 800 2925 
L 800 2550 
Q 950 2775 1150 2875 
Q 1350 2975 1625 2975 
Q 2125 2975 2475 2612 
Q 2825 2250 2825 1525 
z
M 2275 1525 
Q 2275 2000 2087 2262 
Q 1900 2525 1525 2525 
Q 1225 2525 1012 2262 
Q 800 2000 800 1525 
Q 800 1050 1012 775 
Q 1225 500 1525 500 
Q 1900 500 2087 775 
Q 2275 1050 2275 1525 
z
" transform="scale(0.015625)"/>
       <path id="SimHei-6f" d="M 2925 1525 
Q 2925 875 2525 475 
Q 2125 75 1575 75 
Q 1025 75 625 475 
Q 225 875 225 1525 
Q 225 2175 625 2575 
Q 1025 2975 1575 2975 
Q 2125 2975 2525 2575 
Q 2925 2175 2925 1525 
z
M 2375 1525 
Q 2375 2025 2125 2275 
Q 1875 2525 1575 2525 
Q 1275 2525 1025 2275 
Q 775 2025 775 1525 
Q 775 1025 1025 775 
Q 1275 525 1575 525 
Q 1875 525 2125 775 
Q 2375 1025 2375 1525 
z
" transform="scale(0.015625)"/>
       <path id="SimHei-72" d="M 2500 2425 
Q 2025 2500 1700 2287 
Q 1375 2075 1150 1550 
L 1150 125 
L 650 125 
L 650 2925 
L 1150 2925 
L 1150 2200 
Q 1375 2600 1712 2787 
Q 2050 2975 2500 2975 
L 2500 2425 
z
" transform="scale(0.015625)"/>
       <path id="SimHei-74" d="M 2750 200 
Q 2625 150 2462 112 
Q 2300 75 2025 75 
Q 1575 75 1300 325 
Q 1025 575 1025 1025 
L 1025 2525 
L 175 2525 
L 175 2925 
L 1025 2925 
L 1025 3900 
L 1525 3900 
L 1525 2925 
L 2550 2925 
L 2550 2525 
L 1525 2525 
L 1525 1000 
Q 1525 800 1625 662 
Q 1725 525 2000 525 
Q 2275 525 2450 575 
Q 2625 625 2750 700 
L 2750 200 
z
" transform="scale(0.015625)"/>
      </defs>
      <use xlink:href="#SimHei-53"/>
      <use xlink:href="#SimHei-75" x="50"/>
      <use xlink:href="#SimHei-70" x="100"/>
      <use xlink:href="#SimHei-70" x="150"/>
      <use xlink:href="#SimHei-6f" x="200"/>
      <use xlink:href="#SimHei-72" x="250"/>
      <use xlink:href="#SimHei-74" x="300"/>
     </g>
    </g>
   </g>
   <g id="matplotlib.axis_2">
    <g id="ytick_1">
     <g id="line2d_8">
      <defs>
       <path id="m9f1a59aa1a" d="M 0 0 
L -3.5 0 
" style="stroke: #000000; stroke-width: 0.8"/>
      </defs>
      <g>
       <use xlink:href="#m9f1a59aa1a" x="90" y="253.885881" style="stroke: #000000; stroke-width: 0.8"/>
      </g>
     </g>
     <g id="text_9">
      <!-- 0.0 -->
      <g transform="translate(68 257.323381) scale(0.1 -0.1)">
       <use xlink:href="#SimHei-30"/>
       <use xlink:href="#SimHei-2e" x="50"/>
       <use xlink:href="#SimHei-30" x="100"/>
      </g>
     </g>
    </g>
    <g id="ytick_2">
     <g id="line2d_9">
      <g>
       <use xlink:href="#m9f1a59aa1a" x="90" y="214.030997" style="stroke: #000000; stroke-width: 0.8"/>
      </g>
     </g>
     <g id="text_10">
      <!-- 0.1 -->
      <g transform="translate(68 217.468497) scale(0.1 -0.1)">
       <use xlink:href="#SimHei-30"/>
       <use xlink:href="#SimHei-2e" x="50"/>
       <use xlink:href="#SimHei-31" x="100"/>
      </g>
     </g>
    </g>
    <g id="ytick_3">
     <g id="line2d_10">
      <g>
       <use xlink:href="#m9f1a59aa1a" x="90" y="174.176113" style="stroke: #000000; stroke-width: 0.8"/>
      </g>
     </g>
     <g id="text_11">
      <!-- 0.2 -->
      <g transform="translate(68 177.613613) scale(0.1 -0.1)">
       <use xlink:href="#SimHei-30"/>
       <use xlink:href="#SimHei-2e" x="50"/>
       <use xlink:href="#SimHei-32" x="100"/>
      </g>
     </g>
    </g>
    <g id="ytick_4">
     <g id="line2d_11">
      <g>
       <use xlink:href="#m9f1a59aa1a" x="90" y="134.321228" style="stroke: #000000; stroke-width: 0.8"/>
      </g>
     </g>
     <g id="text_12">
      <!-- 0.3 -->
      <g transform="translate(68 137.758728) scale(0.1 -0.1)">
       <defs>
        <path id="SimHei-33" d="M 250 1225 
L 700 1300 
Q 800 975 1025 762 
Q 1250 550 1587 562 
Q 1925 575 2125 837 
Q 2325 1100 2300 1437 
Q 2275 1775 2037 1962 
Q 1800 2150 1275 2225 
L 1275 2550 
Q 1800 2600 2037 2825 
Q 2275 3050 2250 3412 
Q 2225 3775 1925 3937 
Q 1625 4100 1287 3975 
Q 950 3850 750 3275 
L 300 3350 
Q 450 3800 712 4100 
Q 975 4400 1425 4450 
Q 1875 4500 2212 4337 
Q 2550 4175 2687 3837 
Q 2825 3500 2725 3100 
Q 2625 2700 2150 2400 
Q 2500 2250 2687 1950 
Q 2875 1650 2812 1162 
Q 2750 675 2375 375 
Q 2000 75 1525 87 
Q 1050 100 700 387 
Q 350 675 250 1225 
z
" transform="scale(0.015625)"/>
       </defs>
       <use xlink:href="#SimHei-30"/>
       <use xlink:href="#SimHei-2e" x="50"/>
       <use xlink:href="#SimHei-33" x="100"/>
      </g>
     </g>
    </g>
    <g id="ytick_5">
     <g id="line2d_12">
      <g>
       <use xlink:href="#m9f1a59aa1a" x="90" y="94.466344" style="stroke: #000000; stroke-width: 0.8"/>
      </g>
     </g>
     <g id="text_13">
      <!-- 0.4 -->
      <g transform="translate(68 97.903844) scale(0.1 -0.1)">
       <use xlink:href="#SimHei-30"/>
       <use xlink:href="#SimHei-2e" x="50"/>
       <use xlink:href="#SimHei-34" x="100"/>
      </g>
     </g>
    </g>
    <g id="ytick_6">
     <g id="line2d_13">
      <g>
       <use xlink:href="#m9f1a59aa1a" x="90" y="54.611459" style="stroke: #000000; stroke-width: 0.8"/>
      </g>
     </g>
     <g id="text_14">
      <!-- 0.5 -->
      <g transform="translate(68 58.048959) scale(0.1 -0.1)">
       <defs>
        <path id="SimHei-35" d="M 550 1325 
Q 725 650 1150 575 
Q 1575 500 1837 662 
Q 2100 825 2212 1087 
Q 2325 1350 2312 1675 
Q 2300 2000 2137 2225 
Q 1975 2450 1725 2525 
Q 1475 2600 1162 2525 
Q 850 2450 650 2175 
L 225 2225 
Q 275 2375 700 4375 
L 2675 4375 
L 2675 3925 
L 1075 3925 
Q 950 3250 825 2850 
Q 1200 3025 1525 3012 
Q 1850 3000 2150 2862 
Q 2450 2725 2587 2487 
Q 2725 2250 2787 2012 
Q 2850 1775 2837 1500 
Q 2825 1225 2725 937 
Q 2625 650 2425 462 
Q 2225 275 1937 162 
Q 1650 50 1275 75 
Q 900 100 562 350 
Q 225 600 100 1200 
L 550 1325 
z
" transform="scale(0.015625)"/>
       </defs>
       <use xlink:href="#SimHei-30"/>
       <use xlink:href="#SimHei-2e" x="50"/>
       <use xlink:href="#SimHei-35" x="100"/>
      </g>
     </g>
    </g>
    <g id="text_15">
     <!-- Confidence -->
     <g transform="translate(62.75 170.44) rotate(-90) scale(0.1 -0.1)">
      <defs>
       <path id="SimHei-43" d="M 2975 1825 
Q 2950 875 2575 475 
Q 2200 75 1675 75 
Q 1075 75 650 562 
Q 225 1050 225 2125 
Q 225 3300 637 3875 
Q 1050 4450 1700 4450 
Q 2250 4450 2612 4037 
Q 2975 3625 2950 2875 
L 2400 2875 
Q 2400 3425 2225 3700 
Q 2050 3975 1700 3975 
Q 1300 3975 1062 3562 
Q 825 3150 825 2175 
Q 825 1275 1062 912 
Q 1300 550 1675 550 
Q 1950 550 2175 812 
Q 2400 1075 2400 1825 
L 2975 1825 
z
" transform="scale(0.015625)"/>
       <path id="SimHei-6e" d="M 2800 125 
L 2300 125 
L 2300 1925 
Q 2300 2225 2150 2400 
Q 2000 2575 1750 2575 
Q 1425 2575 1137 2237 
Q 850 1900 850 1400 
L 850 125 
L 350 125 
L 350 2925 
L 850 2925 
L 850 2400 
Q 1050 2675 1287 2825 
Q 1525 2975 1900 2975 
Q 2350 2975 2575 2725 
Q 2800 2475 2800 2100 
L 2800 125 
z
" transform="scale(0.015625)"/>
       <path id="SimHei-66" d="M 2850 3825 
Q 2725 3900 2550 3950 
Q 2375 4000 2100 4000 
Q 1825 4000 1725 3862 
Q 1625 3725 1625 3525 
L 1625 2925 
L 2650 2925 
L 2650 2525 
L 1625 2525 
L 1625 125 
L 1125 125 
L 1125 2525 
L 275 2525 
L 275 2925 
L 1125 2925 
L 1125 3500 
Q 1125 3950 1400 4200 
Q 1675 4450 2125 4450 
Q 2400 4450 2562 4412 
Q 2725 4375 2850 4325 
L 2850 3825 
z
" transform="scale(0.015625)"/>
       <path id="SimHei-69" d="M 1800 3725 
L 1300 3725 
L 1300 4375 
L 1800 4375 
L 1800 3725 
z
M 1800 125 
L 1300 125 
L 1300 2925 
L 1800 2925 
L 1800 125 
z
" transform="scale(0.015625)"/>
       <path id="SimHei-64" d="M 2750 125 
L 2250 125 
L 2250 500 
Q 2100 275 1900 175 
Q 1700 75 1425 75 
Q 925 75 575 437 
Q 225 800 225 1525 
Q 225 2250 575 2625 
Q 925 3000 1425 3000 
Q 1700 3000 1900 2887 
Q 2100 2775 2250 2550 
L 2250 4400 
L 2750 4400 
L 2750 125 
z
M 2250 1525 
Q 2250 2000 2037 2275 
Q 1825 2550 1525 2550 
Q 1150 2550 962 2275 
Q 775 2000 775 1525 
Q 775 1050 962 787 
Q 1150 525 1525 525 
Q 1825 525 2037 787 
Q 2250 1050 2250 1525 
z
" transform="scale(0.015625)"/>
       <path id="SimHei-65" d="M 2850 1075 
Q 2800 625 2450 350 
Q 2100 75 1625 75 
Q 1025 75 637 462 
Q 250 850 250 1525 
Q 250 2200 637 2587 
Q 1025 2975 1625 2975 
Q 2150 2975 2487 2637 
Q 2825 2300 2825 1525 
L 800 1525 
Q 800 975 1037 750 
Q 1275 525 1625 525 
Q 1900 525 2075 662 
Q 2250 800 2300 1075 
L 2850 1075 
z
M 2250 1925 
Q 2200 2275 2025 2412 
Q 1850 2550 1575 2550 
Q 1325 2550 1125 2412 
Q 925 2275 825 1925 
L 2250 1925 
z
" transform="scale(0.015625)"/>
       <path id="SimHei-63" d="M 2850 1250 
Q 2850 725 2487 400 
Q 2125 75 1575 75 
Q 1025 75 625 462 
Q 225 850 225 1525 
Q 225 2200 625 2587 
Q 1025 2975 1575 2975 
Q 2125 2975 2450 2687 
Q 2775 2400 2775 2000 
L 2225 2000 
Q 2200 2300 2012 2412 
Q 1825 2525 1575 2525 
Q 1275 2525 1025 2287 
Q 775 2050 775 1525 
Q 775 1000 1025 762 
Q 1275 525 1575 525 
Q 1900 525 2100 700 
Q 2300 875 2300 1250 
L 2850 1250 
z
" transform="scale(0.015625)"/>
      </defs>
      <use xlink:href="#SimHei-43"/>
      <use xlink:href="#SimHei-6f" x="50"/>
      <use xlink:href="#SimHei-6e" x="100"/>
      <use xlink:href="#SimHei-66" x="150"/>
      <use xlink:href="#SimHei-69" x="200"/>
      <use xlink:href="#SimHei-64" x="250"/>
      <use xlink:href="#SimHei-65" x="300"/>
      <use xlink:href="#SimHei-6e" x="350"/>
      <use xlink:href="#SimHei-63" x="400"/>
      <use xlink:href="#SimHei-65" x="450"/>
     </g>
    </g>
   </g>
   <g id="line2d_14">
    <path d="M 90 172.084804 
L 648 172.084804 
" clip-path="url(#pd0be0d7abf)" style="fill: none; stroke-dasharray: 5.55,2.4; stroke-dashoffset: 0; stroke: #ff0000; stroke-width: 1.5"/>
   </g>
   <g id="line2d_15">
    <path d="M 189.703829 256.32 
L 189.703829 34.56 
" clip-path="url(#pd0be0d7abf)" style="fill: none; stroke-dasharray: 5.55,2.4; stroke-dashoffset: 0; stroke: #800080; stroke-width: 1.5"/>
   </g>
   <g id="patch_3">
    <path d="M 90 256.32 
L 90 34.56 
" style="fill: none; stroke: #000000; stroke-width: 0.8; stroke-linejoin: miter; stroke-linecap: square"/>
   </g>
   <g id="patch_4">
    <path d="M 648 256.32 
L 648 34.56 
" style="fill: none; stroke: #000000; stroke-width: 0.8; stroke-linejoin: miter; stroke-linecap: square"/>
   </g>
   <g id="patch_5">
    <path d="M 90 256.32 
L 648 256.32 
" style="fill: none; stroke: #000000; stroke-width: 0.8; stroke-linejoin: miter; stroke-linecap: square"/>
   </g>
   <g id="patch_6">
    <path d="M 90 34.56 
L 648 34.56 
" style="fill: none; stroke: #000000; stroke-width: 0.8; stroke-linejoin: miter; stroke-linecap: square"/>
   </g>
   <g id="text_16">
    <!-- [花叶类] -&gt; [辣椒类] -->
    <g style="fill: #006400" transform="translate(563.680492 140.951279) scale(0.0579 -0.0579)">
     <defs>
      <path id="SimHei-5b" d="M 2825 -525 
L 1250 -525 
L 1250 5050 
L 2825 5050 
L 2825 4650 
L 1675 4650 
L 1675 -125 
L 2825 -125 
L 2825 -525 
z
" transform="scale(0.015625)"/>
      <path id="SimHei-82b1" d="M 3950 3275 
Q 3925 2975 3925 2550 
L 3925 1850 
Q 4200 2000 4587 2362 
Q 4975 2725 5150 3000 
Q 5375 2800 5700 2650 
Q 5400 2475 5100 2187 
Q 4800 1900 3925 1300 
L 3925 275 
Q 3925 0 4250 0 
L 5025 0 
Q 5275 0 5375 112 
Q 5475 225 5550 675 
Q 5800 500 6075 450 
Q 5900 -150 5737 -275 
Q 5575 -400 5250 -400 
L 4025 -400 
Q 3450 -400 3450 0 
L 3450 1025 
Q 3200 875 2575 550 
Q 2450 775 2225 975 
Q 2750 1125 3450 1550 
L 3450 2550 
Q 3450 2975 3425 3275 
L 3950 3275 
z
M 2450 4025 
Q 2450 3750 2475 3450 
L 1925 3450 
Q 1950 3750 1950 4025 
L 1250 4025 
Q 825 4025 400 4000 
L 400 4450 
Q 825 4425 1250 4425 
L 1950 4425 
Q 1950 4825 1925 5125 
L 2500 5125 
Q 2450 4825 2450 4425 
L 3725 4425 
L 3725 5175 
L 4250 5175 
Q 4225 4875 4225 4425 
L 5225 4425 
Q 5675 4425 6000 4450 
L 6000 4000 
Q 5675 4025 5225 4025 
L 4225 4025 
Q 4225 3800 4250 3450 
L 3725 3450 
L 3725 4025 
L 2450 4025 
z
M 2650 3075 
Q 2350 2875 2000 2500 
L 2000 325 
Q 2000 -75 2025 -575 
L 1500 -575 
Q 1525 -100 1525 325 
L 1525 2025 
Q 1100 1625 600 1275 
Q 475 1500 300 1700 
Q 725 1925 1312 2487 
Q 1900 3050 2050 3375 
Q 2275 3200 2650 3075 
z
" transform="scale(0.015625)"/>
      <path id="SimHei-53f6" d="M 2350 4625 
Q 2325 4100 2325 3600 
L 2325 1475 
Q 2325 950 2350 500 
L 1825 500 
L 1825 1150 
L 875 1150 
L 875 150 
L 350 150 
Q 375 650 375 1125 
L 375 3600 
Q 375 3950 350 4625 
L 2350 4625 
z
M 4150 3200 
L 4150 4450 
Q 4150 4950 4125 5150 
L 4725 5150 
Q 4675 4950 4675 4450 
L 4675 3200 
L 5575 3200 
Q 6050 3200 6175 3225 
L 6175 2725 
Q 6025 2750 5600 2750 
L 4675 2750 
L 4675 275 
Q 4675 -275 4700 -550 
L 4125 -550 
Q 4150 -275 4150 250 
L 4150 2750 
L 3275 2750 
Q 2775 2750 2600 2725 
L 2600 3225 
Q 2775 3200 3250 3200 
L 4150 3200 
z
M 1825 1600 
L 1825 4175 
L 875 4175 
L 875 1600 
L 1825 1600 
z
" transform="scale(0.015625)"/>
      <path id="SimHei-7c7b" d="M 2125 3875 
Q 1750 4375 1325 4725 
Q 1525 4875 1675 5050 
L 2525 4225 
Q 2400 4125 2200 3875 
L 3025 3875 
L 3025 4550 
Q 3025 4900 3000 5125 
L 3525 5125 
Q 3500 4850 3500 4550 
L 3500 3875 
L 4325 3875 
Q 4125 4050 4000 4150 
Q 4450 4575 4800 5175 
Q 5000 5000 5275 4825 
Q 5100 4675 4912 4475 
Q 4725 4275 4400 3875 
L 5025 3875 
Q 5425 3875 5900 3900 
L 5900 3450 
Q 5425 3475 5025 3475 
L 3500 3475 
L 3500 3050 
Q 3500 2650 3525 2175 
L 3175 2175 
Q 3475 2075 3675 2000 
Q 3575 1875 3525 1575 
L 5025 1575 
Q 5525 1575 6025 1600 
L 6025 1150 
Q 5550 1175 5050 1175 
L 3675 1175 
Q 4050 600 4712 275 
Q 5375 -50 6050 -175 
Q 5850 -350 5725 -675 
Q 4975 -450 4350 -37 
Q 3725 375 3300 950 
Q 3050 350 2425 -50 
Q 1800 -450 775 -700 
Q 650 -425 475 -225 
Q 1375 -100 2012 225 
Q 2650 550 2900 1175 
L 1625 1175 
Q 1025 1175 525 1150 
L 525 1600 
Q 950 1575 1600 1575 
L 3025 1575 
Q 3075 1825 3100 2175 
L 3000 2175 
Q 3025 2675 3025 3050 
L 3025 3325 
Q 2725 2900 2237 2550 
Q 1750 2200 925 1825 
Q 850 2025 625 2275 
Q 1175 2400 1725 2737 
Q 2275 3075 2600 3475 
L 1550 3475 
Q 1050 3475 600 3425 
L 600 3900 
Q 1075 3875 1550 3875 
L 2125 3875 
z
M 4100 3450 
Q 4850 3000 5800 2350 
Q 5575 2125 5425 1925 
Q 4700 2550 3825 3075 
Q 3975 3250 4100 3450 
z
" transform="scale(0.015625)"/>
      <path id="SimHei-5d" d="M 1875 -525 
L 300 -525 
L 300 -125 
L 1450 -125 
L 1450 4650 
L 300 4650 
L 300 5050 
L 1875 5050 
L 1875 -525 
z
" transform="scale(0.015625)"/>
      <path id="SimHei-20" transform="scale(0.015625)"/>
      <path id="SimHei-2d" d="M 2975 2125 
L 125 2125 
L 125 2525 
L 2975 2525 
L 2975 2125 
z
" transform="scale(0.015625)"/>
      <path id="SimHei-3e" d="M 2950 2250 
L 425 -25 
L 200 250 
L 2450 2250 
L 200 4300 
L 450 4550 
L 2950 2250 
z
" transform="scale(0.015625)"/>
      <path id="SimHei-8fa3" d="M 4875 1700 
Q 5150 1175 5487 862 
Q 5825 550 6200 400 
Q 5950 125 5850 -100 
Q 5400 250 5150 550 
Q 4900 850 4600 1375 
L 4600 350 
Q 4600 -100 4625 -600 
L 4125 -600 
Q 4150 -100 4150 350 
L 4150 1675 
Q 4000 1125 3600 575 
Q 3200 25 2825 -350 
Q 2675 -125 2400 75 
Q 2650 175 3050 625 
Q 3450 1075 3700 1700 
L 2925 1700 
Q 2950 1975 2950 2550 
Q 2950 3125 2925 3325 
L 4150 3325 
L 4150 3975 
Q 3175 3975 2725 3950 
L 2725 4425 
Q 3225 4400 4150 4400 
Q 4150 4850 4125 5250 
L 4625 5250 
Q 4600 4875 4600 4400 
Q 5700 4400 6050 4425 
L 6050 3925 
Q 5700 3975 4600 3975 
L 4600 3325 
L 5850 3325 
Q 5825 3075 5825 2500 
Q 5825 1950 5850 1700 
L 4875 1700 
z
M 2325 3425 
Q 2125 3050 1950 2525 
Q 2225 2525 2550 2550 
L 2550 2075 
Q 2125 2125 1700 2125 
Q 1700 1700 1650 1375 
Q 2125 1375 2550 1400 
L 2550 950 
Q 2125 1000 1650 1000 
Q 1475 375 1337 87 
Q 1200 -200 850 -625 
Q 650 -425 425 -250 
Q 700 -75 900 287 
Q 1100 650 1150 1000 
Q 725 1000 350 975 
L 350 1400 
Q 725 1375 1175 1375 
Q 1200 1700 1200 2125 
Q 650 2125 275 2075 
L 275 2550 
Q 650 2525 950 2525 
L 1550 2525 
Q 1700 2975 1800 3575 
Q 2075 3475 2325 3425 
z
M 1725 4275 
Q 2100 4275 2450 4300 
L 2450 3800 
Q 2100 3850 1725 3850 
L 1000 3850 
Q 675 3850 300 3800 
L 300 4300 
Q 675 4275 1000 4275 
L 1725 4275 
z
M 5375 2075 
L 5375 2950 
L 4600 2950 
L 4600 2075 
L 5375 2075 
z
M 4150 2075 
L 4150 2950 
L 3425 2950 
L 3425 2075 
L 4150 2075 
z
M 1525 5225 
Q 1725 4725 1800 4500 
Q 1575 4450 1300 4350 
Q 1275 4575 1050 5075 
Q 1325 5150 1525 5225 
z
M 925 3550 
Q 1025 3350 1275 2825 
Q 1075 2750 850 2625 
Q 775 2800 500 3350 
Q 700 3450 925 3550 
z
" transform="scale(0.015625)"/>
      <path id="SimHei-6912" d="M 4025 4525 
Q 4475 4500 4850 4500 
L 5925 4500 
Q 5875 3600 5750 2662 
Q 5625 1725 5275 975 
Q 5700 275 6200 -25 
Q 6000 -175 5850 -450 
Q 5300 75 5000 525 
Q 4600 -50 3950 -575 
Q 3800 -325 3550 -150 
Q 4225 225 4750 950 
Q 4550 1475 4425 2137 
Q 4300 2800 4225 4125 
L 4025 4125 
L 4025 4525 
z
M 1900 2825 
Q 2000 2650 2275 2075 
Q 2050 2000 1875 1875 
Q 1775 2100 1550 2550 
L 1550 350 
Q 1550 -150 1575 -500 
L 1100 -500 
Q 1125 -125 1125 350 
L 1125 1950 
Q 850 1200 550 825 
Q 400 1050 175 1225 
Q 600 1725 837 2387 
Q 1075 3050 1100 3400 
Q 850 3400 500 3375 
L 500 3825 
Q 850 3800 1125 3800 
Q 1125 4825 1100 5125 
L 1575 5125 
Q 1550 4800 1550 3800 
Q 2025 3800 2275 3825 
L 2275 3375 
Q 1975 3400 1550 3400 
L 1550 2650 
Q 1725 2725 1900 2825 
z
M 2150 3050 
Q 2375 3025 2900 3025 
L 2900 4425 
Q 2900 4750 2875 5075 
L 3350 5075 
Q 3325 4800 3325 4250 
Q 3625 4250 3925 4275 
L 3925 3825 
Q 3625 3850 3325 3850 
L 3325 3025 
Q 3750 3025 4000 3050 
L 4000 2600 
Q 3700 2625 3050 2625 
Q 2400 2625 2150 2600 
L 2150 3050 
z
M 3350 2350 
Q 3325 1800 3325 1275 
L 3325 200 
Q 3350 -150 3187 -262 
Q 3025 -375 2500 -425 
Q 2475 -125 2300 150 
Q 2950 75 2900 400 
L 2900 1375 
Q 2900 1850 2875 2350 
L 3350 2350 
z
M 4675 4125 
Q 4700 3475 4775 2750 
Q 4850 2025 5025 1475 
Q 5225 2025 5325 2700 
Q 5425 3375 5450 4125 
L 4675 4125 
z
M 2725 1800 
Q 2650 1750 2550 1387 
Q 2450 1025 2250 475 
Q 2050 575 1800 650 
Q 1975 1025 2062 1312 
Q 2150 1600 2225 1950 
L 2725 1800 
z
M 3925 1950 
Q 4000 1800 4100 1575 
Q 4200 1350 4350 975 
Q 4175 900 3925 775 
Q 3825 1025 3725 1287 
Q 3625 1550 3525 1725 
Q 3700 1850 3925 1950 
z
" transform="scale(0.015625)"/>
     </defs>
     <use xlink:href="#SimHei-5b"/>
     <use xlink:href="#SimHei-82b1" x="50"/>
     <use xlink:href="#SimHei-53f6" x="150"/>
     <use xlink:href="#SimHei-7c7b" x="250"/>
     <use xlink:href="#SimHei-5d" x="350"/>
     <use xlink:href="#SimHei-20" x="400"/>
     <use xlink:href="#SimHei-2d" x="450"/>
     <use xlink:href="#SimHei-3e" x="500"/>
     <use xlink:href="#SimHei-20" x="550"/>
     <use xlink:href="#SimHei-5b" x="600"/>
     <use xlink:href="#SimHei-8fa3" x="650"/>
     <use xlink:href="#SimHei-6912" x="750"/>
     <use xlink:href="#SimHei-7c7b" x="850"/>
     <use xlink:href="#SimHei-5d" x="950"/>
    </g>
   </g>
   <g id="text_17">
    <!-- [辣椒类] -&gt; [花叶类] -->
    <g style="fill: #006400" transform="translate(563.680492 90.020496) scale(0.0579 -0.0579)">
     <use xlink:href="#SimHei-5b"/>
     <use xlink:href="#SimHei-8fa3" x="50"/>
     <use xlink:href="#SimHei-6912" x="150"/>
     <use xlink:href="#SimHei-7c7b" x="250"/>
     <use xlink:href="#SimHei-5d" x="350"/>
     <use xlink:href="#SimHei-20" x="400"/>
     <use xlink:href="#SimHei-2d" x="450"/>
     <use xlink:href="#SimHei-3e" x="500"/>
     <use xlink:href="#SimHei-20" x="550"/>
     <use xlink:href="#SimHei-5b" x="600"/>
     <use xlink:href="#SimHei-82b1" x="650"/>
     <use xlink:href="#SimHei-53f6" x="750"/>
     <use xlink:href="#SimHei-7c7b" x="850"/>
     <use xlink:href="#SimHei-5d" x="950"/>
    </g>
   </g>
   <g id="text_18">
    <!-- [水生根茎类] -&gt; [花叶类] -->
    <g style="fill: #006400" transform="translate(259.173149 89.970512) scale(0.0579 -0.0579)">
     <defs>
      <path id="SimHei-6c34" d="M 3450 5175 
Q 3450 4800 3437 4500 
Q 3425 4200 3487 3762 
Q 3550 3325 3950 2725 
Q 4975 3575 5175 4050 
Q 5450 3800 5675 3575 
Q 5350 3350 5037 3075 
Q 4725 2800 4175 2325 
Q 4375 1900 4900 1375 
Q 5425 850 6175 625 
Q 5750 425 5675 125 
Q 4725 700 4212 1400 
Q 3700 2100 3425 2800 
L 3425 25 
Q 3450 -325 3162 -475 
Q 2875 -625 2400 -675 
Q 2375 -400 2175 -75 
Q 2575 -150 2750 -100 
Q 2925 -50 2925 225 
L 2925 4175 
Q 2925 4800 2875 5175 
L 3450 5175 
z
M 2550 3575 
Q 2425 2900 2237 2362 
Q 2050 1825 1737 1300 
Q 1425 775 750 100 
Q 575 325 225 450 
Q 925 950 1337 1600 
Q 1750 2250 1950 3125 
L 1275 3125 
Q 900 3125 425 3075 
L 425 3600 
Q 875 3575 1250 3575 
L 2550 3575 
z
" transform="scale(0.015625)"/>
      <path id="SimHei-751f" d="M 1875 4650 
Q 1725 4475 1625 4212 
Q 1525 3950 1425 3700 
L 2925 3700 
L 2925 4575 
Q 2925 4900 2900 5200 
L 3475 5200 
Q 3450 4925 3450 4575 
L 3450 3700 
L 4550 3700 
Q 4950 3700 5450 3725 
L 5450 3225 
Q 4975 3250 4550 3250 
L 3450 3250 
L 3450 2125 
L 4225 2125 
Q 4575 2125 5075 2150 
L 5075 1650 
Q 4600 1675 4225 1675 
L 3450 1675 
L 3450 175 
L 4950 175 
Q 5350 175 5875 200 
L 5875 -275 
Q 5375 -250 4950 -250 
L 1350 -250 
Q 925 -250 475 -275 
L 475 200 
Q 950 175 1350 175 
L 2925 175 
L 2925 1675 
L 2000 1675 
Q 1650 1675 1275 1650 
L 1275 2150 
Q 1650 2125 2000 2125 
L 2925 2125 
L 2925 3250 
L 1250 3250 
Q 1025 2725 800 2350 
Q 525 2475 200 2525 
Q 475 2825 787 3487 
Q 1100 4150 1225 4900 
L 1875 4650 
z
" transform="scale(0.015625)"/>
      <path id="SimHei-6839" d="M 5825 1850 
Q 5625 1750 5375 1512 
Q 5125 1275 4825 975 
Q 5025 675 5400 437 
Q 5775 200 6100 125 
Q 5850 -75 5700 -400 
Q 5175 -100 4837 237 
Q 4500 575 4325 912 
Q 4150 1250 4050 1650 
Q 3950 2050 3925 2400 
L 3425 2400 
L 3425 225 
Q 3775 425 4125 650 
Q 4150 400 4225 150 
Q 4025 50 3662 -162 
Q 3300 -375 3075 -600 
Q 2900 -350 2725 -175 
Q 2900 50 2950 325 
L 2950 3775 
Q 2950 4325 2925 4850 
L 5500 4850 
Q 5475 4400 5475 3625 
Q 5475 2850 5500 2400 
L 4375 2400 
Q 4375 1950 4600 1400 
Q 4800 1575 5000 1787 
Q 5200 2000 5400 2275 
L 5825 1850 
z
M 200 1075 
Q 650 1575 900 2162 
Q 1150 2750 1275 3325 
Q 850 3325 450 3300 
L 450 3775 
Q 875 3750 1375 3750 
L 1375 4325 
Q 1375 4700 1350 5050 
L 1900 5050 
Q 1850 4750 1850 4325 
L 1850 3750 
Q 2175 3750 2575 3775 
L 2575 3300 
Q 2175 3325 1850 3325 
L 1850 475 
Q 1875 -300 1875 -575 
L 1350 -575 
Q 1375 -25 1375 475 
L 1375 2175 
Q 1175 1475 625 650 
Q 450 850 200 1075 
z
M 5025 2775 
L 5025 3450 
L 3425 3450 
L 3425 2775 
L 5025 2775 
z
M 5025 3825 
L 5025 4450 
L 3425 4450 
L 3425 3825 
L 5025 3825 
z
M 2350 2775 
Q 2600 2300 2875 1700 
Q 2650 1600 2425 1425 
Q 2150 2100 1900 2525 
L 2350 2775 
z
" transform="scale(0.015625)"/>
      <path id="SimHei-830e" d="M 5175 3325 
L 5175 2975 
Q 4250 2625 3975 2450 
Q 4550 2275 4987 2125 
Q 5425 1975 6000 1725 
Q 5875 1575 5725 1275 
Q 5200 1550 4700 1762 
Q 4200 1975 3500 2200 
Q 3050 2000 2337 1762 
Q 1625 1525 750 1325 
Q 700 1575 500 1800 
Q 1250 1875 2237 2187 
Q 3225 2500 4025 2950 
L 1675 2950 
Q 1550 2950 1100 2925 
L 1100 3350 
Q 1550 3325 1675 3325 
L 5175 3325 
z
M 4175 1400 
Q 4525 1400 5075 1425 
L 5075 975 
Q 4650 1000 4175 1000 
L 3450 1000 
L 3450 0 
L 4925 0 
Q 5550 0 5975 25 
L 5975 -425 
Q 5525 -400 4900 -400 
L 1475 -400 
Q 1075 -400 450 -425 
L 450 25 
Q 1075 0 1525 0 
L 2975 0 
L 2975 1000 
L 2250 1000 
Q 1875 1000 1450 975 
L 1450 1425 
Q 1875 1400 2225 1400 
L 4175 1400 
z
M 2525 5150 
Q 2500 4850 2500 4525 
L 3925 4525 
Q 3925 4850 3900 5175 
L 4400 5175 
Q 4375 4900 4375 4525 
L 5175 4525 
Q 5575 4525 6025 4550 
L 6025 4100 
Q 5600 4125 5225 4125 
L 4375 4125 
Q 4375 3800 4400 3550 
L 3925 3550 
L 3925 4125 
L 2500 4125 
L 2500 3525 
L 2025 3525 
Q 2050 3825 2050 4125 
L 1175 4125 
Q 850 4125 425 4100 
L 425 4550 
Q 800 4525 1150 4525 
L 2050 4525 
Q 2050 4850 2025 5150 
L 2525 5150 
z
" transform="scale(0.015625)"/>
     </defs>
     <use xlink:href="#SimHei-5b"/>
     <use xlink:href="#SimHei-6c34" x="50"/>
     <use xlink:href="#SimHei-751f" x="150"/>
     <use xlink:href="#SimHei-6839" x="250"/>
     <use xlink:href="#SimHei-830e" x="350"/>
     <use xlink:href="#SimHei-7c7b" x="450"/>
     <use xlink:href="#SimHei-5d" x="550"/>
     <use xlink:href="#SimHei-20" x="600"/>
     <use xlink:href="#SimHei-2d" x="650"/>
     <use xlink:href="#SimHei-3e" x="700"/>
     <use xlink:href="#SimHei-20" x="750"/>
     <use xlink:href="#SimHei-5b" x="800"/>
     <use xlink:href="#SimHei-82b1" x="850"/>
     <use xlink:href="#SimHei-53f6" x="950"/>
     <use xlink:href="#SimHei-7c7b" x="1050"/>
     <use xlink:href="#SimHei-5d" x="1150"/>
    </g>
   </g>
   <g id="text_19">
    <!-- [水生根茎类] -&gt; [辣椒类] -->
    <g style="fill: #006400" transform="translate(131.689579 135.63499) scale(0.0579 -0.0579)">
     <use xlink:href="#SimHei-5b"/>
     <use xlink:href="#SimHei-6c34" x="50"/>
     <use xlink:href="#SimHei-751f" x="150"/>
     <use xlink:href="#SimHei-6839" x="250"/>
     <use xlink:href="#SimHei-830e" x="350"/>
     <use xlink:href="#SimHei-7c7b" x="450"/>
     <use xlink:href="#SimHei-5d" x="550"/>
     <use xlink:href="#SimHei-20" x="600"/>
     <use xlink:href="#SimHei-2d" x="650"/>
     <use xlink:href="#SimHei-3e" x="700"/>
     <use xlink:href="#SimHei-20" x="750"/>
     <use xlink:href="#SimHei-5b" x="800"/>
     <use xlink:href="#SimHei-8fa3" x="850"/>
     <use xlink:href="#SimHei-6912" x="950"/>
     <use xlink:href="#SimHei-7c7b" x="1050"/>
     <use xlink:href="#SimHei-5d" x="1150"/>
    </g>
   </g>
   <g id="text_20">
    <!-- [花叶类] -&gt; [食用菌] -->
    <g style="fill: #006400" transform="translate(486.376976 169.102036) scale(0.0579 -0.0579)">
     <defs>
      <path id="SimHei-98df" d="M 3350 4950 
Q 4000 4200 4725 3737 
Q 5450 3275 6100 3175 
Q 5900 2925 5825 2650 
Q 5300 2825 4750 3150 
L 4750 2200 
Q 4750 1750 4775 1175 
L 2000 1175 
L 2000 25 
Q 2500 175 2975 350 
Q 2950 100 3000 -150 
Q 2625 -250 2312 -362 
Q 2000 -475 1575 -650 
Q 1450 -375 1325 -200 
Q 1500 0 1525 325 
L 1525 3075 
Q 1000 2675 600 2450 
Q 475 2700 250 2875 
Q 750 3100 1225 3412 
Q 1700 3725 2225 4300 
Q 2750 4875 2900 5275 
Q 3175 5150 3475 5075 
L 3350 4950 
z
M 5450 850 
Q 5275 775 4650 275 
Q 5150 50 5525 -175 
Q 5300 -375 5200 -625 
Q 4575 -250 4050 37 
Q 3525 325 2825 600 
Q 3000 825 3100 975 
Q 3775 675 4200 475 
Q 4800 950 5000 1225 
Q 5200 1050 5450 850 
z
M 4550 3250 
Q 4025 3525 3100 4625 
Q 2350 3675 1775 3250 
L 4550 3250 
z
M 4275 1575 
L 4275 2050 
L 2000 2050 
L 2000 1575 
L 4275 1575 
z
M 4275 2450 
L 4275 2850 
L 2000 2850 
L 2000 2450 
L 4275 2450 
z
M 3275 4100 
Q 3325 3825 3425 3500 
Q 3200 3450 2950 3375 
Q 2900 3700 2800 3975 
Q 3025 4025 3275 4100 
z
" transform="scale(0.015625)"/>
      <path id="SimHei-7528" d="M 350 -300 
Q 650 125 812 600 
Q 975 1075 1012 1550 
Q 1050 2025 1050 3150 
Q 1050 4275 1025 4950 
L 5500 4950 
Q 5475 4225 5475 3650 
L 5475 375 
Q 5475 -150 5175 -275 
Q 4875 -400 4475 -450 
Q 4425 -75 4300 125 
Q 4800 100 4887 162 
Q 4975 225 4975 400 
L 4975 1650 
L 3450 1650 
L 3450 675 
Q 3450 125 3475 -325 
L 2925 -325 
Q 2950 100 2950 650 
L 2950 1650 
L 1525 1650 
Q 1425 575 850 -525 
Q 575 -350 350 -300 
z
M 4975 3475 
L 4975 4550 
L 3450 4550 
L 3450 3475 
L 4975 3475 
z
M 4975 2050 
L 4975 3100 
L 3450 3100 
L 3450 2050 
L 4975 2050 
z
M 2950 3475 
L 2950 4550 
L 1525 4550 
L 1525 3475 
L 2950 3475 
z
M 2950 2050 
L 2950 3100 
L 1525 3100 
L 1525 2050 
L 2950 2050 
z
" transform="scale(0.015625)"/>
      <path id="SimHei-83cc" d="M 5700 3625 
Q 5675 3225 5675 2875 
L 5675 325 
Q 5675 -100 5700 -500 
L 5200 -500 
L 5200 -250 
L 1225 -250 
L 1225 -575 
L 725 -575 
Q 750 -225 750 150 
L 750 2850 
Q 750 3225 725 3625 
L 5700 3625 
z
M 5200 150 
L 5200 3225 
L 1225 3225 
L 1225 150 
L 5200 150 
z
M 2975 275 
Q 3000 725 3000 1025 
L 3000 1325 
Q 2825 1100 2525 862 
Q 2225 625 1825 350 
Q 1700 600 1500 775 
Q 1875 925 2225 1187 
Q 2575 1450 2700 1625 
L 2475 1625 
Q 1925 1625 1575 1600 
L 1575 2050 
Q 1925 2025 2475 2025 
L 3000 2025 
L 3000 2450 
Q 2800 2450 2525 2425 
Q 2250 2400 1875 2350 
Q 1850 2600 1750 2800 
Q 2150 2775 2950 2825 
Q 3750 2875 4375 3050 
Q 4500 2800 4650 2600 
Q 4250 2600 3475 2500 
L 3475 2025 
L 4075 2025 
Q 4425 2025 4800 2050 
L 4800 1600 
Q 4375 1625 4000 1625 
L 3475 1625 
L 3475 1050 
Q 3475 700 3500 275 
L 2975 275 
z
M 2100 4650 
Q 2100 4825 2075 5175 
L 2575 5175 
Q 2550 4875 2550 4650 
L 3800 4650 
Q 3800 4850 3775 5175 
L 4275 5175 
Q 4250 4850 4250 4650 
L 5375 4650 
Q 5700 4650 6075 4675 
L 6075 4225 
Q 5675 4250 5400 4250 
L 4250 4250 
Q 4250 4100 4275 3800 
L 3800 3800 
L 3800 4250 
L 2550 4250 
L 2550 3800 
L 2075 3800 
Q 2100 4075 2100 4250 
L 1100 4250 
Q 775 4250 350 4225 
L 350 4675 
Q 775 4650 1100 4650 
L 2100 4650 
z
M 3950 1600 
Q 4125 1475 4362 1275 
Q 4600 1075 4825 900 
Q 4625 775 4450 550 
Q 4200 800 4000 962 
Q 3800 1125 3600 1250 
L 3950 1600 
z
" transform="scale(0.015625)"/>
     </defs>
     <use xlink:href="#SimHei-5b"/>
     <use xlink:href="#SimHei-82b1" x="50"/>
     <use xlink:href="#SimHei-53f6" x="150"/>
     <use xlink:href="#SimHei-7c7b" x="250"/>
     <use xlink:href="#SimHei-5d" x="350"/>
     <use xlink:href="#SimHei-20" x="400"/>
     <use xlink:href="#SimHei-2d" x="450"/>
     <use xlink:href="#SimHei-3e" x="500"/>
     <use xlink:href="#SimHei-20" x="550"/>
     <use xlink:href="#SimHei-5b" x="600"/>
     <use xlink:href="#SimHei-98df" x="650"/>
     <use xlink:href="#SimHei-7528" x="750"/>
     <use xlink:href="#SimHei-83cc" x="850"/>
     <use xlink:href="#SimHei-5d" x="950"/>
    </g>
   </g>
   <g id="text_21">
    <!-- [食用菌] -&gt; [花叶类] -->
    <g style="fill: #006400" transform="translate(486.376976 87.472038) scale(0.0579 -0.0579)">
     <use xlink:href="#SimHei-5b"/>
     <use xlink:href="#SimHei-98df" x="50"/>
     <use xlink:href="#SimHei-7528" x="150"/>
     <use xlink:href="#SimHei-83cc" x="250"/>
     <use xlink:href="#SimHei-5d" x="350"/>
     <use xlink:href="#SimHei-20" x="400"/>
     <use xlink:href="#SimHei-2d" x="450"/>
     <use xlink:href="#SimHei-3e" x="500"/>
     <use xlink:href="#SimHei-20" x="550"/>
     <use xlink:href="#SimHei-5b" x="600"/>
     <use xlink:href="#SimHei-82b1" x="650"/>
     <use xlink:href="#SimHei-53f6" x="750"/>
     <use xlink:href="#SimHei-7c7b" x="850"/>
     <use xlink:href="#SimHei-5d" x="950"/>
    </g>
   </g>
   <g id="text_22">
    <!-- [食用菌] -&gt; [辣椒类] -->
    <g style="fill: #006400" transform="translate(365.898028 136.315745) scale(0.0579 -0.0579)">
     <use xlink:href="#SimHei-5b"/>
     <use xlink:href="#SimHei-98df" x="50"/>
     <use xlink:href="#SimHei-7528" x="150"/>
     <use xlink:href="#SimHei-83cc" x="250"/>
     <use xlink:href="#SimHei-5d" x="350"/>
     <use xlink:href="#SimHei-20" x="400"/>
     <use xlink:href="#SimHei-2d" x="450"/>
     <use xlink:href="#SimHei-3e" x="500"/>
     <use xlink:href="#SimHei-20" x="550"/>
     <use xlink:href="#SimHei-5b" x="600"/>
     <use xlink:href="#SimHei-8fa3" x="650"/>
     <use xlink:href="#SimHei-6912" x="750"/>
     <use xlink:href="#SimHei-7c7b" x="850"/>
     <use xlink:href="#SimHei-5d" x="950"/>
    </g>
   </g>
   <g id="text_23">
    <!-- [辣椒类] -&gt; [食用菌] -->
    <g style="fill: #006400" transform="translate(365.898028 166.976362) scale(0.0579 -0.0579)">
     <use xlink:href="#SimHei-5b"/>
     <use xlink:href="#SimHei-8fa3" x="50"/>
     <use xlink:href="#SimHei-6912" x="150"/>
     <use xlink:href="#SimHei-7c7b" x="250"/>
     <use xlink:href="#SimHei-5d" x="350"/>
     <use xlink:href="#SimHei-20" x="400"/>
     <use xlink:href="#SimHei-2d" x="450"/>
     <use xlink:href="#SimHei-3e" x="500"/>
     <use xlink:href="#SimHei-20" x="550"/>
     <use xlink:href="#SimHei-5b" x="600"/>
     <use xlink:href="#SimHei-98df" x="650"/>
     <use xlink:href="#SimHei-7528" x="750"/>
     <use xlink:href="#SimHei-83cc" x="850"/>
     <use xlink:href="#SimHei-5d" x="950"/>
    </g>
   </g>
   <g id="text_24">
    <!-- [花叶类,食用菌] -&gt; [辣椒类] -->
    <g style="fill: #006400" transform="translate(222.672559 119.02727) scale(0.0579 -0.0579)">
     <defs>
      <path id="SimHei-2c" d="M 1100 125 
L 775 -550 
L 525 -550 
L 775 125 
L 525 125 
L 525 675 
L 1100 675 
L 1100 125 
z
" transform="scale(0.015625)"/>
     </defs>
     <use xlink:href="#SimHei-5b"/>
     <use xlink:href="#SimHei-82b1" x="50"/>
     <use xlink:href="#SimHei-53f6" x="150"/>
     <use xlink:href="#SimHei-7c7b" x="250"/>
     <use xlink:href="#SimHei-2c" x="350"/>
     <use xlink:href="#SimHei-98df" x="400"/>
     <use xlink:href="#SimHei-7528" x="500"/>
     <use xlink:href="#SimHei-83cc" x="600"/>
     <use xlink:href="#SimHei-5d" x="700"/>
     <use xlink:href="#SimHei-20" x="750"/>
     <use xlink:href="#SimHei-2d" x="800"/>
     <use xlink:href="#SimHei-3e" x="850"/>
     <use xlink:href="#SimHei-20" x="900"/>
     <use xlink:href="#SimHei-5b" x="950"/>
     <use xlink:href="#SimHei-8fa3" x="1000"/>
     <use xlink:href="#SimHei-6912" x="1100"/>
     <use xlink:href="#SimHei-7c7b" x="1200"/>
     <use xlink:href="#SimHei-5d" x="1300"/>
    </g>
   </g>
   <g id="text_25">
    <!-- [花叶类,辣椒类] -&gt; [食用菌] -->
    <g style="fill: #006400" transform="translate(222.672559 147.796902) scale(0.0579 -0.0579)">
     <use xlink:href="#SimHei-5b"/>
     <use xlink:href="#SimHei-82b1" x="50"/>
     <use xlink:href="#SimHei-53f6" x="150"/>
     <use xlink:href="#SimHei-7c7b" x="250"/>
     <use xlink:href="#SimHei-2c" x="350"/>
     <use xlink:href="#SimHei-8fa3" x="400"/>
     <use xlink:href="#SimHei-6912" x="500"/>
     <use xlink:href="#SimHei-7c7b" x="600"/>
     <use xlink:href="#SimHei-5d" x="700"/>
     <use xlink:href="#SimHei-20" x="750"/>
     <use xlink:href="#SimHei-2d" x="800"/>
     <use xlink:href="#SimHei-3e" x="850"/>
     <use xlink:href="#SimHei-20" x="900"/>
     <use xlink:href="#SimHei-5b" x="950"/>
     <use xlink:href="#SimHei-98df" x="1000"/>
     <use xlink:href="#SimHei-7528" x="1100"/>
     <use xlink:href="#SimHei-83cc" x="1200"/>
     <use xlink:href="#SimHei-5d" x="1300"/>
    </g>
   </g>
   <g id="text_26">
    <!-- [辣椒类,食用菌] -&gt; [花叶类] -->
    <g style="fill: #006400" transform="translate(222.672559 53.599923) scale(0.0579 -0.0579)">
     <use xlink:href="#SimHei-5b"/>
     <use xlink:href="#SimHei-8fa3" x="50"/>
     <use xlink:href="#SimHei-6912" x="150"/>
     <use xlink:href="#SimHei-7c7b" x="250"/>
     <use xlink:href="#SimHei-2c" x="350"/>
     <use xlink:href="#SimHei-98df" x="400"/>
     <use xlink:href="#SimHei-7528" x="500"/>
     <use xlink:href="#SimHei-83cc" x="600"/>
     <use xlink:href="#SimHei-5d" x="700"/>
     <use xlink:href="#SimHei-20" x="750"/>
     <use xlink:href="#SimHei-2d" x="800"/>
     <use xlink:href="#SimHei-3e" x="850"/>
     <use xlink:href="#SimHei-20" x="900"/>
     <use xlink:href="#SimHei-5b" x="950"/>
     <use xlink:href="#SimHei-82b1" x="1000"/>
     <use xlink:href="#SimHei-53f6" x="1100"/>
     <use xlink:href="#SimHei-7c7b" x="1200"/>
     <use xlink:href="#SimHei-5d" x="1300"/>
    </g>
   </g>
   <g id="text_27">
    <!-- [花菜类] -&gt; [花叶类] -->
    <g style="fill: #006400" transform="translate(346.011316 84.085824) scale(0.0579 -0.0579)">
     <defs>
      <path id="SimHei-83dc" d="M 3000 1650 
Q 3000 1825 2975 2200 
L 3075 2200 
Q 2875 2775 2725 3000 
Q 2950 3025 3200 3150 
Q 3375 2850 3575 2375 
Q 3325 2300 3125 2200 
L 3475 2200 
Q 3450 1875 3450 1650 
L 5275 1650 
Q 5650 1650 6100 1675 
L 6100 1200 
Q 5725 1225 5275 1225 
L 4075 1225 
Q 4475 825 5062 512 
Q 5650 200 6175 100 
Q 5775 -125 5675 -400 
Q 4950 -75 4425 350 
Q 3900 775 3550 1225 
L 3450 1225 
L 3450 225 
Q 3450 -150 3475 -625 
L 2975 -625 
Q 3000 -150 3000 225 
L 3000 1225 
L 2875 1225 
Q 2525 775 1987 312 
Q 1450 -150 750 -525 
Q 625 -300 275 -125 
Q 850 25 1412 412 
Q 1975 800 2300 1225 
L 1225 1225 
Q 725 1225 325 1200 
L 325 1675 
Q 775 1650 1275 1650 
L 3000 1650 
z
M 2075 4600 
Q 2075 4775 2050 5150 
L 2600 5150 
Q 2550 4775 2550 4600 
L 3850 4600 
Q 3850 4800 3825 5175 
L 4350 5175 
Q 4325 4800 4325 4600 
L 5425 4600 
Q 5700 4600 6100 4625 
L 6100 4150 
Q 5700 4175 5425 4175 
L 4325 4175 
Q 4325 4025 4350 3775 
L 3850 3775 
L 3850 4175 
L 2550 4175 
L 2550 3750 
L 2050 3750 
Q 2075 4000 2075 4175 
L 1150 4175 
Q 800 4175 350 4150 
L 350 4625 
Q 750 4600 1100 4600 
L 2075 4600 
z
M 5625 3300 
Q 4900 3300 3325 3212 
Q 1750 3125 925 3075 
Q 850 3325 700 3525 
Q 1675 3500 3237 3587 
Q 4800 3675 5300 3800 
Q 5450 3525 5625 3300 
z
M 5375 2950 
Q 5225 2775 5100 2575 
Q 4975 2375 4700 1925 
Q 4475 2050 4225 2150 
Q 4625 2650 4850 3175 
Q 5150 3050 5375 2950 
z
M 1500 3000 
Q 1825 2625 2100 2125 
Q 1850 2000 1650 1875 
Q 1325 2500 1050 2775 
Q 1275 2850 1500 3000 
z
" transform="scale(0.015625)"/>
     </defs>
     <use xlink:href="#SimHei-5b"/>
     <use xlink:href="#SimHei-82b1" x="50"/>
     <use xlink:href="#SimHei-83dc" x="150"/>
     <use xlink:href="#SimHei-7c7b" x="250"/>
     <use xlink:href="#SimHei-5d" x="350"/>
     <use xlink:href="#SimHei-20" x="400"/>
     <use xlink:href="#SimHei-2d" x="450"/>
     <use xlink:href="#SimHei-3e" x="500"/>
     <use xlink:href="#SimHei-20" x="550"/>
     <use xlink:href="#SimHei-5b" x="600"/>
     <use xlink:href="#SimHei-82b1" x="650"/>
     <use xlink:href="#SimHei-53f6" x="750"/>
     <use xlink:href="#SimHei-7c7b" x="850"/>
     <use xlink:href="#SimHei-5d" x="950"/>
    </g>
   </g>
   <g id="text_28">
    <!-- [花菜类] -&gt; [辣椒类] -->
    <g style="fill: #006400" transform="translate(263.965823 135.882817) scale(0.0579 -0.0579)">
     <use xlink:href="#SimHei-5b"/>
     <use xlink:href="#SimHei-82b1" x="50"/>
     <use xlink:href="#SimHei-83dc" x="150"/>
     <use xlink:href="#SimHei-7c7b" x="250"/>
     <use xlink:href="#SimHei-5d" x="350"/>
     <use xlink:href="#SimHei-20" x="400"/>
     <use xlink:href="#SimHei-2d" x="450"/>
     <use xlink:href="#SimHei-3e" x="500"/>
     <use xlink:href="#SimHei-20" x="550"/>
     <use xlink:href="#SimHei-5b" x="600"/>
     <use xlink:href="#SimHei-8fa3" x="650"/>
     <use xlink:href="#SimHei-6912" x="750"/>
     <use xlink:href="#SimHei-7c7b" x="850"/>
     <use xlink:href="#SimHei-5d" x="950"/>
    </g>
   </g>
   <g id="text_29">
    <!-- [花菜类] -&gt; [食用菌] -->
    <g style="fill: #006400" transform="translate(229.568039 157.601983) scale(0.0579 -0.0579)">
     <use xlink:href="#SimHei-5b"/>
     <use xlink:href="#SimHei-82b1" x="50"/>
     <use xlink:href="#SimHei-83dc" x="150"/>
     <use xlink:href="#SimHei-7c7b" x="250"/>
     <use xlink:href="#SimHei-5d" x="350"/>
     <use xlink:href="#SimHei-20" x="400"/>
     <use xlink:href="#SimHei-2d" x="450"/>
     <use xlink:href="#SimHei-3e" x="500"/>
     <use xlink:href="#SimHei-20" x="550"/>
     <use xlink:href="#SimHei-5b" x="600"/>
     <use xlink:href="#SimHei-98df" x="650"/>
     <use xlink:href="#SimHei-7528" x="750"/>
     <use xlink:href="#SimHei-83cc" x="850"/>
     <use xlink:href="#SimHei-5d" x="950"/>
    </g>
   </g>
   <g id="text_30">
    <!-- [茄类] -&gt; [花叶类] -->
    <g style="fill: #006400" transform="translate(227.491246 79.731533) scale(0.0579 -0.0579)">
     <defs>
      <path id="SimHei-8304" d="M 5750 2850 
Q 5725 2475 5725 2025 
L 5725 475 
Q 5725 25 5750 -425 
L 5250 -425 
L 5250 125 
L 4225 125 
L 4225 -475 
L 3750 -475 
Q 3775 0 3775 450 
L 3775 1975 
Q 3775 2475 3750 2850 
L 5750 2850 
z
M 2050 3425 
Q 1950 3150 1925 2700 
L 3225 2700 
Q 3200 2400 3175 1850 
L 3100 200 
Q 3075 -200 2887 -300 
Q 2700 -400 2100 -475 
Q 2050 -225 1875 50 
Q 2325 25 2487 37 
Q 2650 50 2650 300 
L 2725 2325 
L 1900 2325 
Q 1825 1450 1700 1012 
Q 1575 575 1350 187 
Q 1125 -200 775 -600 
Q 575 -375 225 -300 
Q 575 -50 812 287 
Q 1050 625 1212 1162 
Q 1375 1700 1425 2325 
Q 850 2325 400 2300 
L 400 2725 
Q 850 2700 1450 2700 
Q 1475 3125 1450 3500 
Q 1675 3450 2050 3425 
z
M 4325 4050 
Q 4325 3725 4350 3400 
L 3875 3400 
L 3875 4050 
L 2625 4050 
L 2625 3400 
L 2150 3400 
Q 2175 3725 2175 4050 
L 1300 4050 
Q 850 4050 425 4025 
L 425 4475 
Q 850 4450 1300 4450 
L 2175 4450 
Q 2175 4900 2150 5200 
L 2650 5200 
Q 2625 4900 2625 4450 
L 3875 4450 
Q 3875 4900 3850 5200 
L 4350 5200 
Q 4325 4900 4325 4450 
L 5250 4450 
Q 5700 4450 6000 4475 
L 6000 4025 
Q 5725 4050 5250 4050 
L 4325 4050 
z
M 5250 500 
L 5250 2475 
L 4225 2475 
L 4225 500 
L 5250 500 
z
" transform="scale(0.015625)"/>
     </defs>
     <use xlink:href="#SimHei-5b"/>
     <use xlink:href="#SimHei-8304" x="50"/>
     <use xlink:href="#SimHei-7c7b" x="150"/>
     <use xlink:href="#SimHei-5d" x="250"/>
     <use xlink:href="#SimHei-20" x="300"/>
     <use xlink:href="#SimHei-2d" x="350"/>
     <use xlink:href="#SimHei-3e" x="400"/>
     <use xlink:href="#SimHei-20" x="450"/>
     <use xlink:href="#SimHei-5b" x="500"/>
     <use xlink:href="#SimHei-82b1" x="550"/>
     <use xlink:href="#SimHei-53f6" x="650"/>
     <use xlink:href="#SimHei-7c7b" x="750"/>
     <use xlink:href="#SimHei-5d" x="850"/>
    </g>
   </g>
   <g id="text_31">
    <!-- [茄类] -&gt; [辣椒类] -->
    <g style="fill: #006400" transform="translate(200.408114 111.259422) scale(0.0579 -0.0579)">
     <use xlink:href="#SimHei-5b"/>
     <use xlink:href="#SimHei-8304" x="50"/>
     <use xlink:href="#SimHei-7c7b" x="150"/>
     <use xlink:href="#SimHei-5d" x="250"/>
     <use xlink:href="#SimHei-20" x="300"/>
     <use xlink:href="#SimHei-2d" x="350"/>
     <use xlink:href="#SimHei-3e" x="400"/>
     <use xlink:href="#SimHei-20" x="450"/>
     <use xlink:href="#SimHei-5b" x="500"/>
     <use xlink:href="#SimHei-8fa3" x="550"/>
     <use xlink:href="#SimHei-6912" x="650"/>
     <use xlink:href="#SimHei-7c7b" x="750"/>
     <use xlink:href="#SimHei-5d" x="850"/>
    </g>
   </g>
   <g id="patch_7">
    <path d="M 619.743887 141.910566 
Q 620.197249 141.964254 619.540335 141.88646 
" style="fill: none; stroke: #ff0000; stroke-linecap: round"/>
    <path d="M 615.803295 139.429931 
L 619.540335 141.88646 
L 615.332888 143.402175 
" style="fill: none; stroke: #ff0000; stroke-linecap: round"/>
   </g>
   <g id="patch_8">
    <path d="M 619.743887 90.979783 
Q 620.197249 91.033472 619.540335 90.955678 
" style="fill: none; stroke: #ff0000; stroke-linecap: round"/>
    <path d="M 615.803295 88.499148 
L 619.540335 90.955678 
L 615.332888 92.471392 
" style="fill: none; stroke: #ff0000; stroke-linecap: round"/>
   </g>
   <g id="patch_9">
    <path d="M 261.777219 85.161041 
Q 260.83747 85.068753 261.010403 85.085736 
" style="fill: none; stroke: #ff0000; stroke-linecap: round"/>
    <path d="M 264.795783 87.467101 
L 261.010403 85.085736 
L 265.186723 83.486251 
" style="fill: none; stroke: #ff0000; stroke-linecap: round"/>
   </g>
   <g id="patch_10">
    <path d="M 198.565509 136.555057 
Q 199.505257 136.6477 199.332365 136.630656 
" style="fill: none; stroke: #ff0000; stroke-linecap: round"/>
    <path d="M 195.547877 134.247874 
L 199.332365 136.630656 
L 195.155447 138.228578 
" style="fill: none; stroke: #ff0000; stroke-linecap: round"/>
   </g>
   <g id="patch_11">
    <path d="M 488.21358 170.06042 
Q 487.760219 170.113903 488.417191 170.0364 
" style="fill: none; stroke: #ff0000; stroke-linecap: round"/>
    <path d="M 492.62396 171.553997 
L 488.417191 170.0364 
L 492.15533 167.581544 
" style="fill: none; stroke: #ff0000; stroke-linecap: round"/>
   </g>
   <g id="patch_12">
    <path d="M 488.21358 88.430422 
Q 487.760219 88.483906 488.417191 88.406403 
" style="fill: none; stroke: #ff0000; stroke-linecap: round"/>
    <path d="M 492.62396 89.923999 
L 488.417191 88.406403 
L 492.15533 85.951546 
" style="fill: none; stroke: #ff0000; stroke-linecap: round"/>
   </g>
   <g id="patch_13">
    <path d="M 367.734633 137.275031 
Q 367.281271 137.32872 367.938185 137.250926 
" style="fill: none; stroke: #ff0000; stroke-linecap: round"/>
    <path d="M 372.145632 138.76664 
L 367.938185 137.250926 
L 371.675224 134.794397 
" style="fill: none; stroke: #ff0000; stroke-linecap: round"/>
   </g>
   <g id="patch_14">
    <path d="M 367.734633 167.935649 
Q 367.281271 167.989338 367.938185 167.911544 
" style="fill: none; stroke: #ff0000; stroke-linecap: round"/>
    <path d="M 372.145632 169.427258 
L 367.938185 167.911544 
L 371.675224 165.455014 
" style="fill: none; stroke: #ff0000; stroke-linecap: round"/>
   </g>
   <g id="patch_15">
    <path d="M 225.848696 114.170639 
Q 224.542612 114.056254 224.3503 114.039412 
" style="fill: none; stroke: #ff0000; stroke-linecap: round"/>
    <path d="M 228.160558 116.380763 
L 224.3503 114.039412 
L 228.509536 112.396016 
" style="fill: none; stroke: #ff0000; stroke-linecap: round"/>
   </g>
   <g id="patch_16">
    <path d="M 225.848696 148.695525 
Q 224.542612 148.80991 224.3503 148.826752 
" style="fill: none; stroke: #ff0000; stroke-linecap: round"/>
    <path d="M 228.509536 150.470149 
L 224.3503 148.826752 
L 228.160558 146.485401 
" style="fill: none; stroke: #ff0000; stroke-linecap: round"/>
   </g>
   <g id="patch_17">
    <path d="M 225.848696 54.498546 
Q 224.542612 54.612931 224.3503 54.629773 
" style="fill: none; stroke: #ff0000; stroke-linecap: round"/>
    <path d="M 228.509536 56.273169 
L 224.3503 54.629773 
L 228.160558 52.288422 
" style="fill: none; stroke: #ff0000; stroke-linecap: round"/>
   </g>
   <g id="patch_18">
    <path d="M 347.847921 85.044209 
Q 347.394559 85.097692 348.051532 85.020189 
" style="fill: none; stroke: #ff0000; stroke-linecap: round"/>
    <path d="M 352.2583 86.537785 
L 348.051532 85.020189 
L 351.789671 82.565332 
" style="fill: none; stroke: #ff0000; stroke-linecap: round"/>
   </g>
   <g id="patch_19">
    <path d="M 265.802428 136.842104 
Q 265.349066 136.895792 266.00598 136.817998 
" style="fill: none; stroke: #ff0000; stroke-linecap: round"/>
    <path d="M 270.213427 138.333712 
L 266.00598 136.817998 
L 269.74302 134.361469 
" style="fill: none; stroke: #ff0000; stroke-linecap: round"/>
   </g>
   <g id="patch_20">
    <path d="M 231.404644 158.560367 
Q 230.951282 158.61385 231.608255 158.536347 
" style="fill: none; stroke: #ff0000; stroke-linecap: round"/>
    <path d="M 235.815023 160.053944 
L 231.608255 158.536347 
L 235.346393 156.08149 
" style="fill: none; stroke: #ff0000; stroke-linecap: round"/>
   </g>
   <g id="patch_21">
    <path d="M 228.945894 80.720786 
Q 228.736929 80.748723 229.636138 80.628506 
" style="fill: none; stroke: #ff0000; stroke-linecap: round"/>
    <path d="M 233.865889 82.080817 
L 229.636138 80.628506 
L 233.335838 78.116092 
" style="fill: none; stroke: #ff0000; stroke-linecap: round"/>
   </g>
   <g id="patch_22">
    <path d="M 201.862762 112.248674 
Q 201.653797 112.276611 202.553007 112.156394 
" style="fill: none; stroke: #ff0000; stroke-linecap: round"/>
    <path d="M 206.782758 113.608705 
L 202.553007 112.156394 
L 206.252706 109.64398 
" style="fill: none; stroke: #ff0000; stroke-linecap: round"/>
   </g>
   <g id="text_32">
    <!-- 0.21 -->
    <g style="fill: #ff0000" transform="translate(-1730.707258 152.157362) scale(0.0579 -0.0579)">
     <use xlink:href="#SimHei-30"/>
     <use xlink:href="#SimHei-2e" x="50"/>
     <use xlink:href="#SimHei-32" x="100"/>
     <use xlink:href="#SimHei-31" x="150"/>
    </g>
   </g>
   <g id="text_33">
    <!-- 0.03 -->
    <g style="fill: #008000" transform="translate(225.879279 413.305419) scale(0.0579 -0.0579)">
     <use xlink:href="#SimHei-30"/>
     <use xlink:href="#SimHei-2e" x="50"/>
     <use xlink:href="#SimHei-30" x="100"/>
     <use xlink:href="#SimHei-33" x="150"/>
    </g>
   </g>
   <g id="legend_1">
    <g id="patch_23">
     <path d="M 559 71.075625 
L 641 71.075625 
Q 643 71.075625 643 69.075625 
L 643 41.56 
Q 643 39.56 641 39.56 
L 559 39.56 
Q 557 39.56 557 41.56 
L 557 69.075625 
Q 557 71.075625 559 71.075625 
z
" style="fill: #ffffff; opacity: 0.8; stroke: #cccccc; stroke-linejoin: miter"/>
    </g>
    <g id="line2d_16">
     <path d="M 561 48.067813 
L 571 48.067813 
L 581 48.067813 
" style="fill: none; stroke-dasharray: 5.55,2.4; stroke-dashoffset: 0; stroke: #ff0000; stroke-width: 1.5"/>
    </g>
    <g id="text_34">
     <!-- 平均置信度 -->
     <g transform="translate(589 51.567813) scale(0.1 -0.1)">
      <defs>
       <path id="SimHei-5e73" d="M 4525 4825 
Q 4900 4825 5450 4850 
L 5450 4375 
Q 4925 4400 4525 4400 
L 3475 4400 
L 3475 2025 
L 5000 2025 
Q 5550 2025 6025 2050 
L 6025 1575 
Q 5550 1600 5000 1600 
L 3475 1600 
L 3475 450 
Q 3475 -100 3500 -600 
L 2925 -600 
Q 2950 -100 2950 450 
L 2950 1600 
L 1125 1600 
Q 775 1600 375 1575 
L 375 2050 
Q 775 2025 1175 2025 
L 2950 2025 
L 2950 4400 
L 1775 4400 
Q 1400 4400 875 4375 
L 875 4850 
Q 1400 4825 1750 4825 
L 4525 4825 
z
M 3925 2600 
Q 4500 3300 4900 4125 
Q 5150 3950 5400 3825 
Q 4775 2850 4350 2300 
Q 4150 2475 3925 2600 
z
M 1975 2350 
Q 1600 3100 1050 3725 
Q 1250 3875 1450 4050 
Q 2075 3300 2450 2725 
Q 2150 2500 1975 2350 
z
" transform="scale(0.015625)"/>
       <path id="SimHei-5747" d="M 5775 275 
Q 5775 -325 5362 -450 
Q 4950 -575 4425 -600 
Q 4375 -275 4250 25 
Q 4950 -25 5125 62 
Q 5300 150 5300 500 
L 5375 3700 
L 3550 3700 
Q 3425 3375 3262 3037 
Q 3100 2700 2925 2400 
Q 2675 2550 2475 2625 
Q 3150 3625 3500 5200 
Q 3800 5100 4075 5025 
Q 3975 4875 3875 4650 
Q 3775 4425 3675 4125 
L 5900 4125 
L 5775 275 
z
M 1250 3625 
L 1250 4375 
Q 1250 4775 1225 5100 
L 1775 5100 
Q 1750 4725 1750 4375 
L 1750 3625 
L 1900 3625 
Q 2200 3625 2525 3650 
L 2525 3150 
Q 2200 3175 1900 3175 
L 1750 3175 
L 1750 1100 
L 2500 1375 
Q 2475 1125 2525 900 
Q 1225 475 962 362 
Q 700 250 475 150 
Q 375 475 250 750 
Q 575 800 800 850 
Q 1025 900 1250 975 
L 1250 3175 
L 1125 3175 
Q 850 3175 400 3150 
L 400 3650 
Q 850 3625 1100 3625 
L 1250 3625 
z
M 4950 1625 
Q 4675 1425 4137 1050 
Q 3600 675 3175 300 
Q 3000 575 2850 775 
Q 3350 1050 3762 1325 
Q 4175 1600 4775 2075 
Q 4825 1850 4950 1625 
z
M 3775 3150 
Q 4125 2800 4475 2300 
Q 4250 2125 4100 1975 
Q 3900 2325 3450 2825 
Q 3600 3000 3775 3150 
z
" transform="scale(0.015625)"/>
       <path id="SimHei-7f6e" d="M 3600 3650 
Q 3525 3475 3475 3325 
L 4750 3325 
Q 5100 3325 5675 3350 
L 5675 2925 
Q 5125 2950 4750 2950 
L 3400 2950 
L 3350 2600 
L 5000 2600 
Q 4975 1975 4975 1550 
L 4975 -50 
Q 5575 -50 6025 -25 
L 6025 -400 
Q 5475 -375 5000 -375 
L 1400 -375 
Q 900 -375 400 -400 
L 400 -25 
Q 925 -50 1450 -50 
L 1450 1550 
Q 1450 1975 1425 2600 
L 2875 2600 
L 2925 2950 
L 1600 2950 
Q 1150 2950 650 2925 
L 650 3350 
Q 1150 3325 1600 3325 
L 2975 3325 
Q 3000 3525 3000 3700 
Q 3250 3650 3600 3650 
z
M 5575 4950 
Q 5550 4600 5550 4300 
Q 5550 4000 5575 3775 
L 900 3775 
Q 925 4075 925 4325 
Q 925 4600 900 4950 
L 5575 4950 
z
M 4575 1900 
L 4575 2250 
L 1850 2250 
L 1850 1900 
L 4575 1900 
z
M 4575 1250 
L 4575 1575 
L 1850 1575 
L 1850 1250 
L 4575 1250 
z
M 4575 -50 
L 4575 275 
L 1850 275 
L 1850 -50 
L 4575 -50 
z
M 4575 625 
L 4575 875 
L 1850 875 
L 1850 625 
L 4575 625 
z
M 3700 4100 
L 3700 4625 
L 2700 4625 
L 2700 4100 
L 3700 4100 
z
M 5075 4100 
L 5075 4625 
L 4100 4625 
L 4100 4100 
L 5075 4100 
z
M 2350 4100 
L 2350 4625 
L 1400 4625 
L 1400 4100 
L 2350 4100 
z
" transform="scale(0.015625)"/>
       <path id="SimHei-4fe1" d="M 5650 1575 
Q 5625 1275 5625 575 
Q 5625 -100 5650 -450 
L 5175 -450 
L 5175 -25 
L 3025 -25 
L 3025 -550 
L 2525 -550 
Q 2550 -175 2550 500 
Q 2550 1200 2525 1575 
L 5650 1575 
z
M 2125 4975 
Q 1975 4825 1650 3975 
L 1650 550 
Q 1650 -200 1675 -625 
L 1125 -625 
Q 1200 -175 1200 575 
L 1200 3100 
Q 900 2500 625 2100 
Q 475 2350 250 2500 
Q 525 2800 925 3562 
Q 1325 4325 1525 5175 
Q 1800 5075 2125 4975 
z
M 5175 375 
L 5175 1225 
L 3025 1225 
L 3025 375 
L 5175 375 
z
M 6075 3900 
Q 5575 3925 4100 3925 
Q 2625 3925 2100 3900 
L 2100 4325 
L 6075 4325 
L 6075 3900 
z
M 5700 3000 
Q 5275 3025 4150 3025 
Q 3025 3025 2475 3000 
L 2475 3425 
Q 2950 3400 4100 3400 
Q 5275 3400 5700 3425 
L 5700 3000 
z
M 5700 2125 
Q 5350 2150 4175 2150 
Q 3025 2150 2475 2125 
L 2475 2550 
Q 3000 2525 4175 2525 
Q 5375 2525 5700 2550 
L 5700 2125 
z
M 4025 5200 
Q 4100 5050 4175 4875 
Q 4250 4700 4325 4500 
Q 4100 4425 3875 4375 
Q 3700 4900 3575 5025 
Q 3825 5125 4025 5200 
z
" transform="scale(0.015625)"/>
       <path id="SimHei-5ea6" d="M 1750 1675 
Q 2450 1650 2875 1650 
L 5200 1650 
Q 4975 1250 4650 850 
Q 4325 450 4025 200 
Q 4350 50 4950 -50 
Q 5550 -150 6100 -150 
Q 5950 -300 5825 -650 
Q 5100 -550 4550 -412 
Q 4000 -275 3625 -100 
Q 3100 -325 2587 -462 
Q 2075 -600 1525 -675 
Q 1450 -475 1225 -250 
Q 1675 -250 2250 -125 
Q 2825 0 3250 200 
Q 2825 550 2400 1275 
L 1750 1250 
L 1750 1675 
z
M 2975 5075 
Q 3250 5150 3475 5250 
Q 3625 4975 3775 4525 
L 4700 4525 
Q 4975 4525 5700 4550 
L 5700 4100 
Q 5000 4125 4650 4125 
L 1375 4125 
Q 1375 3000 1350 2312 
Q 1325 1625 1212 950 
Q 1100 275 725 -525 
Q 500 -375 250 -300 
Q 650 400 762 1075 
Q 875 1750 887 2800 
Q 900 3850 875 4525 
L 3200 4525 
Q 3100 4850 2975 5075 
z
M 2475 3300 
Q 2475 3700 2450 3925 
L 2975 3925 
Q 2950 3725 2950 3300 
L 4300 3300 
Q 4300 3700 4275 3950 
L 4800 3950 
Q 4775 3650 4775 3300 
Q 5325 3300 5725 3325 
L 5725 2900 
Q 5350 2925 4775 2925 
Q 4775 2250 4800 1950 
L 2450 1950 
Q 2475 2350 2475 2925 
Q 2175 2925 1600 2900 
L 1600 3325 
Q 2175 3300 2475 3300 
z
M 4300 2350 
L 4300 2925 
L 2950 2925 
L 2950 2350 
L 4300 2350 
z
M 2875 1275 
Q 3200 775 3650 425 
Q 4025 700 4425 1275 
L 2900 1275 
L 2875 1275 
z
" transform="scale(0.015625)"/>
      </defs>
      <use xlink:href="#SimHei-5e73"/>
      <use xlink:href="#SimHei-5747" x="100"/>
      <use xlink:href="#SimHei-7f6e" x="200"/>
      <use xlink:href="#SimHei-4fe1" x="300"/>
      <use xlink:href="#SimHei-5ea6" x="400"/>
     </g>
    </g>
    <g id="line2d_17">
     <path d="M 561 62.325625 
L 571 62.325625 
L 581 62.325625 
" style="fill: none; stroke-dasharray: 5.55,2.4; stroke-dashoffset: 0; stroke: #800080; stroke-width: 1.5"/>
    </g>
    <g id="text_35">
     <!-- 平均支持度 -->
     <g transform="translate(589 65.825625) scale(0.1 -0.1)">
      <defs>
       <path id="SimHei-652f" d="M 1175 2375 
L 1175 2775 
Q 1700 2750 2100 2750 
L 2950 2750 
L 2950 3750 
L 1575 3750 
Q 1125 3750 600 3725 
L 600 4200 
Q 1125 4175 1550 4175 
L 2950 4175 
Q 2950 4650 2925 5050 
L 3425 5050 
Q 3400 4650 3400 4175 
L 4900 4175 
Q 5300 4175 5800 4200 
L 5800 3725 
Q 5300 3750 4900 3750 
L 3400 3750 
L 3400 2750 
L 4950 2750 
Q 4650 2000 4312 1500 
Q 3975 1000 3625 675 
Q 4100 350 4712 200 
Q 5325 50 6000 50 
Q 5750 -275 5725 -475 
Q 4975 -400 4362 -175 
Q 3750 50 3225 400 
Q 2625 25 2000 -200 
Q 1375 -425 825 -525 
Q 750 -300 450 -50 
Q 1075 -25 1762 175 
Q 2450 375 2875 675 
Q 2225 1300 1775 2375 
L 1175 2375 
z
M 2250 2375 
Q 2675 1450 3250 950 
Q 3800 1350 4275 2375 
L 2250 2375 
z
" transform="scale(0.015625)"/>
       <path id="SimHei-6301" d="M 3900 2975 
L 3900 3825 
L 3525 3825 
Q 3025 3825 2725 3800 
L 2725 4225 
Q 3125 4200 3525 4200 
L 3900 4200 
Q 3900 4825 3875 5125 
L 4400 5125 
Q 4375 4825 4375 4200 
L 4875 4200 
Q 5275 4200 5650 4225 
L 5650 3800 
Q 5275 3825 4875 3825 
L 4375 3825 
L 4375 2975 
L 5300 2975 
Q 5800 2975 6100 3000 
L 6100 2550 
Q 5750 2575 5350 2575 
L 5150 2575 
L 5150 1850 
L 5325 1850 
Q 5750 1850 6025 1875 
L 6025 1425 
Q 5700 1450 5325 1450 
L 5150 1450 
L 5150 25 
Q 5150 -400 4912 -512 
Q 4675 -625 4125 -650 
Q 4100 -425 3925 -100 
Q 4375 -125 4525 -87 
Q 4675 -50 4675 200 
L 4675 1450 
L 3200 1450 
Q 2850 1450 2525 1425 
L 2525 1875 
Q 2825 1850 3200 1850 
L 4675 1850 
L 4675 2575 
L 3125 2575 
Q 2875 2575 2450 2550 
L 2450 3000 
Q 2775 2975 3050 2975 
L 3900 2975 
z
M 1275 4450 
Q 1275 4800 1250 5075 
L 1800 5075 
Q 1750 4775 1750 4400 
L 1750 3825 
Q 2175 3825 2475 3850 
L 2475 3350 
Q 2100 3375 1750 3375 
L 1750 2325 
Q 2075 2450 2375 2600 
Q 2375 2325 2400 2150 
Q 1975 1975 1750 1825 
L 1750 50 
Q 1750 -300 1537 -437 
Q 1325 -575 750 -625 
Q 700 -375 550 -75 
Q 1075 -75 1175 -37 
Q 1275 0 1275 225 
L 1275 1625 
Q 1100 1550 925 1462 
Q 750 1375 475 1200 
Q 400 1400 225 1750 
Q 1000 2000 1275 2125 
L 1275 3375 
Q 775 3375 350 3350 
L 350 3850 
Q 725 3825 1275 3825 
L 1275 4450 
z
M 3175 1250 
Q 3600 675 3775 300 
Q 3525 125 3325 0 
Q 3075 525 2750 975 
Q 2925 1075 3175 1250 
z
" transform="scale(0.015625)"/>
      </defs>
      <use xlink:href="#SimHei-5e73"/>
      <use xlink:href="#SimHei-5747" x="100"/>
      <use xlink:href="#SimHei-652f" x="200"/>
      <use xlink:href="#SimHei-6301" x="300"/>
      <use xlink:href="#SimHei-5ea6" x="400"/>
     </g>
    </g>
   </g>
  </g>
 </g>
 <defs>
  <clipPath id="pd0be0d7abf">
   <rect x="90" y="34.56" width="558" height="221.76"/>
  </clipPath>
 </defs>
</svg>
