<svg width="1132" xmlns:xlink="http://www.w3.org/1999/xlink" height="804" xmlns:ev="http://www.w3.org/2001/xml-events" viewBox="0 0 1132 804" xmlns="http://www.w3.org/2000/svg"><defs/><g transform="translate(5.5,5.5)" id="page1"><rect x="0" width="1123" y="0" fill="#ffffff" height="794"/><g transform="translate(159.000000,253.000000)" id="shape1"><path stroke="#000000" fill="#ffffff" fill-rule="nonzero" d="M45.0,42.0L45.0,.0L.0,.0L.0,42.0L45.0,42.0z" stroke-width="1"/><text xml:space="preserve" style="fill:#191919;font-family:微软雅黑,PingFang SC,Mircrosoft YaHei,Arial;font-size:10.00pt"><tspan x="9.5" style="font-family:微软雅黑,PingFang SC,Mircrosoft YaHei,Arial" y="26.5">用户</tspan></text></g><g transform="translate(681.902700,586.000000)" id="shape2"><path stroke="#000000" fill="#ffffff" fill-rule="nonzero" d="M68.6,38.0L68.6,.0L.0,.0L.0,38.0L68.6,38.0z" stroke-width="1"/><text xml:space="preserve" style="fill:#191919;font-family:微软雅黑,PingFang SC,Mircrosoft YaHei,Arial;font-size:10.00pt"><tspan x="8.3" style="font-family:微软雅黑,PingFang SC,Mircrosoft YaHei,Arial" y="15.0">外部服务</tspan><tspan x="14.8" style="font-family:微软雅黑,PingFang SC,Mircrosoft YaHei,Arial" y="34.0">与资源</tspan></text></g><g transform="translate(921.951350,423.000000)" id="shape3"><path stroke="#000000" fill="#ffffff" fill-rule="nonzero" d="M60.1,38.0L60.1,.0L.0,.0L.0,38.0L60.1,38.0z" stroke-width="1"/><text xml:space="preserve" style="fill:#191919;font-family:微软雅黑,PingFang SC,Mircrosoft YaHei,Arial;font-size:10.00pt"><tspan x="10.5" style="font-family:微软雅黑,PingFang SC,Mircrosoft YaHei,Arial" y="24.5">管理员</tspan></text></g><g transform="translate(396.000000,46.000000)" id="shape4"><path fill="#ffffff" fill-rule="nonzero" d="M93.8,90.0C98.3,90.0,102.0,86.3,102.0,81.8L102.0,8.2C102.0,3.7,98.3,.0,93.8,.0L8.2,.0C3.7,.0,.0,3.7,.0,8.2L.0,81.8C.0,86.3,3.7,90.0,8.2,90.0L93.8,90.0z"/><path stroke="#000000" fill="none" d="M93.8,90.0C98.3,90.0,102.0,86.3,102.0,81.8L102.0,8.2C102.0,3.7,98.3,.0,93.8,.0L8.2,.0C3.7,.0,.0,3.7,.0,8.2L.0,81.8C.0,86.3,3.7,90.0,8.2,90.0L93.8,90.0zM.0,22.5L102.0,22.5" stroke-width="1"/><text xml:space="preserve" style="fill:#191919;font-family:微软雅黑,PingFang SC,Mircrosoft YaHei,Arial;font-size:10.00pt"><tspan x="47.0" style="font-family:微软雅黑,PingFang SC,Mircrosoft YaHei,Arial" y="16.3">1</tspan></text><text xml:space="preserve" style="fill:#191919;font-family:微软雅黑,PingFang SC,Mircrosoft YaHei,Arial;font-size:10.00pt"><tspan x="9.0" style="font-family:微软雅黑,PingFang SC,Mircrosoft YaHei,Arial" y="61.3">创建/修改用户</tspan></text></g><g transform="translate(635.000000,106.000000)" id="shape5"><path stroke="#000000" fill="#ffffff" fill-rule="nonzero" d="M109.0,.0L.0,.0L.0,30.0L109.0,30.0M27.3,.0L27.3,30.0L.0,30.0L.0,.0L109.0,.0L27.3,.0z" stroke-width="1"/><text xml:space="preserve" style="fill:#191919;font-family:微软雅黑,PingFang SC,Mircrosoft YaHei,Arial;font-size:6.00pt"><tspan x="8.1" style="font-family:微软雅黑,PingFang SC,Mircrosoft YaHei,Arial" y="18.5">D1</tspan></text><text xml:space="preserve" style="fill:#191919;font-family:微软雅黑,PingFang SC,Mircrosoft YaHei,Arial;font-size:8.00pt"><tspan x="46.1" style="font-family:微软雅黑,PingFang SC,Mircrosoft YaHei,Arial" y="19.0">用户记录</tspan></text></g><g transform="translate(498.000000,91.000000)" id="shape6"><path stroke="#191919" fill="none" d="M.0,.0L109.0,.0L109.0,30.0L131.0,30.0" stroke-width="1"/><path stroke="#191919" fill="#191919" d="M131.0,27.0L137.0,30.0L131.0,33.0L131.0,27.0" stroke-width="1" stroke-linecap="round"/><rect x="37.6" width="52.0" y="-9.5" fill="#ffffff" height="19.0"/><text xml:space="preserve" style="fill:#191919;font-family:微软雅黑,PingFang SC,Mircrosoft YaHei,Arial;font-size:10.00pt"><tspan x="37.6" style="font-family:微软雅黑,PingFang SC,Mircrosoft YaHei,Arial" y="5.5">用户信息</tspan></text></g><g transform="translate(192.750000,253.000000)" id="shape7"><path stroke="#191919" fill="none" d="M.0,.0L3.3,.0L3.3,-162.0L197.3,-162.0" stroke-width="1"/><path stroke="#191919" fill="#191919" d="M197.3,-165.0L203.3,-162.0L197.3,-159.0L197.3,-165.0" stroke-width="1" stroke-linecap="round"/><rect x="110.3" width="52.0" y="-171.5" fill="#ffffff" height="19.0"/><text xml:space="preserve" style="fill:#191919;font-family:微软雅黑,PingFang SC,Mircrosoft YaHei,Arial;font-size:10.00pt"><tspan x="110.3" style="font-family:微软雅黑,PingFang SC,Mircrosoft YaHei,Arial" y="-156.5">用户信息</tspan></text></g><g transform="translate(402.000000,144.000000)" id="shape8"><path fill="#ffffff" fill-rule="nonzero" d="M82.8,90.0C86.8,90.0,90.0,86.8,90.0,82.8L90.0,7.2C90.0,3.2,86.8,.0,82.8,.0L7.2,.0C3.2,.0,.0,3.2,.0,7.2L.0,82.8C.0,86.8,3.2,90.0,7.2,90.0L82.8,90.0z"/><path stroke="#000000" fill="none" d="M82.8,90.0C86.8,90.0,90.0,86.8,90.0,82.8L90.0,7.2C90.0,3.2,86.8,.0,82.8,.0L7.2,.0C3.2,.0,.0,3.2,.0,7.2L.0,82.8C.0,86.8,3.2,90.0,7.2,90.0L82.8,90.0zM.0,22.5L90.0,22.5" stroke-width="1"/><text xml:space="preserve" style="fill:#191919;font-family:微软雅黑,PingFang SC,Mircrosoft YaHei,Arial;font-size:10.00pt"><tspan x="41.0" style="font-family:微软雅黑,PingFang SC,Mircrosoft YaHei,Arial" y="16.3">2</tspan></text><text xml:space="preserve" style="fill:#191919;font-family:微软雅黑,PingFang SC,Mircrosoft YaHei,Arial;font-size:10.00pt"><tspan x="19.0" style="font-family:微软雅黑,PingFang SC,Mircrosoft YaHei,Arial" y="61.3">记录打卡</tspan></text></g><g transform="translate(192.750000,253.000000)" id="shape9"><path stroke="#191919" fill="none" d="M.0,.0L3.3,.0L3.3,-64.0L203.3,-64.0" stroke-width="1"/><path stroke="#191919" fill="#191919" d="M203.3,-67.0L209.3,-64.0L203.3,-61.0L203.3,-67.0" stroke-width="1" stroke-linecap="round"/><rect x="98.6" width="52.0" y="-73.5" fill="#ffffff" height="19.0"/><text xml:space="preserve" style="fill:#191919;font-family:微软雅黑,PingFang SC,Mircrosoft YaHei,Arial;font-size:10.00pt"><tspan x="98.6" style="font-family:微软雅黑,PingFang SC,Mircrosoft YaHei,Arial" y="-58.5">打卡信息</tspan></text></g><g transform="translate(635.000000,174.000000)" id="shape10"><path stroke="#000000" fill="#ffffff" fill-rule="nonzero" d="M109.0,.0L.0,.0L.0,30.0L109.0,30.0M27.3,.0L27.3,30.0L.0,30.0L.0,.0L109.0,.0L27.3,.0z" stroke-width="1"/><text xml:space="preserve" style="fill:#191919;font-family:微软雅黑,PingFang SC,Mircrosoft YaHei,Arial;font-size:6.00pt"><tspan x="8.1" style="font-family:微软雅黑,PingFang SC,Mircrosoft YaHei,Arial" y="18.5">D2</tspan></text><text xml:space="preserve" style="fill:#191919;font-family:微软雅黑,PingFang SC,Mircrosoft YaHei,Arial;font-size:8.00pt"><tspan x="35.1" style="font-family:微软雅黑,PingFang SC,Mircrosoft YaHei,Arial" y="19.0">用户打卡记录</tspan></text></g><g transform="translate(492.000000,189.000000)" id="shape11"><path stroke="#191919" fill="none" d="M.0,.0L137.0,.0" stroke-width="1"/><path stroke="#191919" fill="#191919" d="M137.0,-3.0L143.0,.0L137.0,3.0L137.0,-3.0" stroke-width="1" stroke-linecap="round"/><rect x="37.5" width="52.0" y="-9.5" fill="#ffffff" height="19.0"/><text xml:space="preserve" style="fill:#191919;font-family:微软雅黑,PingFang SC,Mircrosoft YaHei,Arial;font-size:10.00pt"><tspan x="37.5" style="font-family:微软雅黑,PingFang SC,Mircrosoft YaHei,Arial" y="5.5">打卡明细</tspan></text></g><g transform="translate(402.000000,250.000000)" id="shape12"><path fill="#ffffff" fill-rule="nonzero" d="M82.8,90.0C86.8,90.0,90.0,86.8,90.0,82.8L90.0,7.2C90.0,3.2,86.8,.0,82.8,.0L7.2,.0C3.2,.0,.0,3.2,.0,7.2L.0,82.8C.0,86.8,3.2,90.0,7.2,90.0L82.8,90.0z"/><path stroke="#000000" fill="none" d="M82.8,90.0C86.8,90.0,90.0,86.8,90.0,82.8L90.0,7.2C90.0,3.2,86.8,.0,82.8,.0L7.2,.0C3.2,.0,.0,3.2,.0,7.2L.0,82.8C.0,86.8,3.2,90.0,7.2,90.0L82.8,90.0zM.0,22.5L90.0,22.5" stroke-width="1"/><text xml:space="preserve" style="fill:#191919;font-family:微软雅黑,PingFang SC,Mircrosoft YaHei,Arial;font-size:10.00pt"><tspan x="41.0" style="font-family:微软雅黑,PingFang SC,Mircrosoft YaHei,Arial" y="16.3">3</tspan></text><text xml:space="preserve" style="fill:#191919;font-family:微软雅黑,PingFang SC,Mircrosoft YaHei,Arial;font-size:10.00pt"><tspan x="19.0" style="font-family:微软雅黑,PingFang SC,Mircrosoft YaHei,Arial" y="61.3">提醒事务</tspan></text></g><g transform="translate(192.750000,253.000000)" id="shape13"><path stroke="#191919" fill="none" d="M.0,.0L3.3,.0L3.3,-38.0L186.3,-38.0L186.3,19.5L203.3,19.5" stroke-width="1"/><path stroke="#191919" fill="#191919" d="M203.3,16.5L209.3,19.5L203.3,22.5L203.3,16.5" stroke-width="1" stroke-linecap="round"/><rect x="101.7" width="52.0" y="-47.5" fill="#ffffff" height="19.0"/><text xml:space="preserve" style="fill:#191919;font-family:微软雅黑,PingFang SC,Mircrosoft YaHei,Arial;font-size:10.00pt"><tspan x="101.7" style="font-family:微软雅黑,PingFang SC,Mircrosoft YaHei,Arial" y="-32.5">事务设置</tspan></text></g><g transform="translate(635.000000,280.000000)" id="shape14"><path stroke="#000000" fill="#ffffff" fill-rule="nonzero" d="M109.0,.0L.0,.0L.0,30.0L109.0,30.0M27.3,.0L27.3,30.0L.0,30.0L.0,.0L109.0,.0L27.3,.0z" stroke-width="1"/><text xml:space="preserve" style="fill:#191919;font-family:微软雅黑,PingFang SC,Mircrosoft YaHei,Arial;font-size:6.00pt"><tspan x="8.1" style="font-family:微软雅黑,PingFang SC,Mircrosoft YaHei,Arial" y="18.5">D3</tspan></text><text xml:space="preserve" style="fill:#191919;font-family:微软雅黑,PingFang SC,Mircrosoft YaHei,Arial;font-size:8.00pt"><tspan x="35.1" style="font-family:微软雅黑,PingFang SC,Mircrosoft YaHei,Arial" y="19.0">用户事务记录</tspan></text></g><g transform="translate(492.000000,295.000000)" id="shape15"><path stroke="#191919" fill="none" d="M.0,.0L137.0,.0" stroke-width="1"/><path stroke="#191919" fill="#191919" d="M137.0,-3.0L143.0,.0L137.0,3.0L137.0,-3.0" stroke-width="1" stroke-linecap="round"/><rect x="49.6" width="52.0" y="-9.5" fill="#ffffff" height="19.0"/><text xml:space="preserve" style="fill:#191919;font-family:微软雅黑,PingFang SC,Mircrosoft YaHei,Arial;font-size:10.00pt"><tspan x="49.6" style="font-family:微软雅黑,PingFang SC,Mircrosoft YaHei,Arial" y="5.5">事务明细</tspan></text></g><g transform="translate(402.000000,351.850394)" id="shape16"><path fill="#ffffff" fill-rule="nonzero" d="M82.8,90.0C86.8,90.0,90.0,86.8,90.0,82.8L90.0,7.2C90.0,3.2,86.8,.0,82.8,.0L7.2,.0C3.2,.0,.0,3.2,.0,7.2L.0,82.8C.0,86.8,3.2,90.0,7.2,90.0L82.8,90.0z"/><path stroke="#000000" fill="none" d="M82.8,90.0C86.8,90.0,90.0,86.8,90.0,82.8L90.0,7.2C90.0,3.2,86.8,.0,82.8,.0L7.2,.0C3.2,.0,.0,3.2,.0,7.2L.0,82.8C.0,86.8,3.2,90.0,7.2,90.0L82.8,90.0zM.0,22.5L90.0,22.5" stroke-width="1"/><text xml:space="preserve" style="fill:#191919;font-family:微软雅黑,PingFang SC,Mircrosoft YaHei,Arial;font-size:10.00pt"><tspan x="41.0" style="font-family:微软雅黑,PingFang SC,Mircrosoft YaHei,Arial" y="16.3">4</tspan></text><text xml:space="preserve" style="fill:#191919;font-family:微软雅黑,PingFang SC,Mircrosoft YaHei,Arial;font-size:10.00pt"><tspan x="12.5" style="font-family:微软雅黑,PingFang SC,Mircrosoft YaHei,Arial" y="61.3">答题与判别</tspan></text></g><g transform="translate(181.500000,295.000000)" id="shape17"><path stroke="#191919" fill="none" d="M.0,.0L-0.5,.0L-0.5,124.4L214.5,124.4" stroke-width="1"/><path stroke="#191919" fill="#191919" d="M214.5,121.4L220.5,124.4L214.5,127.4L214.5,121.4" stroke-width="1" stroke-linecap="round"/><rect x="91.6" width="52.0" y="114.9" fill="#ffffff" height="19.0"/><text xml:space="preserve" style="fill:#191919;font-family:微软雅黑,PingFang SC,Mircrosoft YaHei,Arial;font-size:10.00pt"><tspan x="91.6" style="font-family:微软雅黑,PingFang SC,Mircrosoft YaHei,Arial" y="129.9">答题详情</tspan></text></g><g transform="translate(635.000000,381.850394)" id="shape18"><path stroke="#000000" fill="#ffffff" fill-rule="nonzero" d="M115.5,.0L.0,.0L.0,30.0L115.5,30.0M28.9,.0L28.9,30.0L.0,30.0L.0,.0L115.5,.0L28.9,.0z" stroke-width="1"/><text xml:space="preserve" style="fill:#191919;font-family:微软雅黑,PingFang SC,Mircrosoft YaHei,Arial;font-size:6.00pt"><tspan x="8.9" style="font-family:微软雅黑,PingFang SC,Mircrosoft YaHei,Arial" y="18.5">D4</tspan></text><text xml:space="preserve" style="fill:#191919;font-family:微软雅黑,PingFang SC,Mircrosoft YaHei,Arial;font-size:8.00pt"><tspan x="33.7" style="font-family:微软雅黑,PingFang SC,Mircrosoft YaHei,Arial" y="19.0">题目与答案记录</tspan></text></g><g transform="translate(921.951350,432.500000)" id="shape19"><path stroke="#191919" fill="none" d="M.0,.0L-229.2,.0L-229.2,-14.6" stroke-width="1"/><path stroke="#191919" fill="#191919" d="M-232.2,-14.6L-229.2,-20.6L-226.2,-14.6L-232.2,-14.6" stroke-width="1" stroke-linecap="round"/><rect x="-153.4" width="65.0" y="-9.5" fill="#ffffff" height="19.0"/><text xml:space="preserve" style="fill:#191919;font-family:微软雅黑,PingFang SC,Mircrosoft YaHei,Arial;font-size:10.00pt"><tspan x="-153.4" style="font-family:微软雅黑,PingFang SC,Mircrosoft YaHei,Arial" y="5.5">题目与答案</tspan></text></g><g transform="translate(635.000000,396.850394)" id="shape20"><path stroke="#191919" fill="none" d="M.0,.0L-137.0,.0" stroke-width="1"/><path stroke="#191919" fill="#191919" d="M-137.0,3.0L-143.0,.0L-137.0,-3.0L-137.0,3.0" stroke-width="1" stroke-linecap="round"/><rect x="-108.8" width="65.0" y="-9.5" fill="#ffffff" height="19.0"/><text xml:space="preserve" style="fill:#191919;font-family:微软雅黑,PingFang SC,Mircrosoft YaHei,Arial;font-size:10.00pt"><tspan x="-108.8" style="font-family:微软雅黑,PingFang SC,Mircrosoft YaHei,Arial" y="5.5">题目与答案</tspan></text></g><g transform="translate(402.000000,453.700787)" id="shape21"><path fill="#ffffff" fill-rule="nonzero" d="M82.8,90.0C86.8,90.0,90.0,86.8,90.0,82.8L90.0,7.2C90.0,3.2,86.8,.0,82.8,.0L7.2,.0C3.2,.0,.0,3.2,.0,7.2L.0,82.8C.0,86.8,3.2,90.0,7.2,90.0L82.8,90.0z"/><path stroke="#000000" fill="none" d="M82.8,90.0C86.8,90.0,90.0,86.8,90.0,82.8L90.0,7.2C90.0,3.2,86.8,.0,82.8,.0L7.2,.0C3.2,.0,.0,3.2,.0,7.2L.0,82.8C.0,86.8,3.2,90.0,7.2,90.0L82.8,90.0zM.0,22.5L90.0,22.5" stroke-width="1"/><text xml:space="preserve" style="fill:#191919;font-family:微软雅黑,PingFang SC,Mircrosoft YaHei,Arial;font-size:10.00pt"><tspan x="41.0" style="font-family:微软雅黑,PingFang SC,Mircrosoft YaHei,Arial" y="16.3">5</tspan></text><text xml:space="preserve" style="fill:#191919;font-family:微软雅黑,PingFang SC,Mircrosoft YaHei,Arial;font-size:10.00pt"><tspan x="19.0" style="font-family:微软雅黑,PingFang SC,Mircrosoft YaHei,Arial" y="61.3">资料展示</tspan></text></g><g transform="translate(181.500000,295.000000)" id="shape22"><path stroke="#191919" fill="none" d="M.0,.0L-0.5,.0L-0.5,203.7L214.5,203.7" stroke-width="1"/><path stroke="#191919" fill="#191919" d="M214.5,200.7L220.5,203.7L214.5,206.7L214.5,200.7" stroke-width="1" stroke-linecap="round"/><rect x="88.3" width="65.0" y="194.2" fill="#ffffff" height="19.0"/><text xml:space="preserve" style="fill:#191919;font-family:微软雅黑,PingFang SC,Mircrosoft YaHei,Arial;font-size:10.00pt"><tspan x="88.3" style="font-family:微软雅黑,PingFang SC,Mircrosoft YaHei,Arial" y="209.2">搜索关键词</tspan></text></g><g transform="translate(402.000000,521.200787)" id="shape23"><path stroke="#191919" fill="none" d="M.0,.0L-271.0,.0L-271.0,-236.7L-249.0,-236.7" stroke-width="1"/><path stroke="#191919" fill="#191919" d="M-249.0,-239.7L-243.0,-236.7L-249.0,-233.7L-249.0,-239.7" stroke-width="1" stroke-linecap="round"/><rect x="-296.0" width="52.0" y="-176.3" fill="#ffffff" height="19.0"/><text xml:space="preserve" style="fill:#191919;font-family:微软雅黑,PingFang SC,Mircrosoft YaHei,Arial;font-size:10.00pt"><tspan x="-296.0" style="font-family:微软雅黑,PingFang SC,Mircrosoft YaHei,Arial" y="-161.3">搜索结果</tspan></text></g><g transform="translate(402.000000,560.000000)" id="shape24"><path fill="#ffffff" fill-rule="nonzero" d="M82.8,90.0C86.8,90.0,90.0,86.8,90.0,82.8L90.0,7.2C90.0,3.2,86.8,.0,82.8,.0L7.2,.0C3.2,.0,.0,3.2,.0,7.2L.0,82.8C.0,86.8,3.2,90.0,7.2,90.0L82.8,90.0z"/><path stroke="#000000" fill="none" d="M82.8,90.0C86.8,90.0,90.0,86.8,90.0,82.8L90.0,7.2C90.0,3.2,86.8,.0,82.8,.0L7.2,.0C3.2,.0,.0,3.2,.0,7.2L.0,82.8C.0,86.8,3.2,90.0,7.2,90.0L82.8,90.0zM.0,22.5L90.0,22.5" stroke-width="1"/><text xml:space="preserve" style="fill:#191919;font-family:微软雅黑,PingFang SC,Mircrosoft YaHei,Arial;font-size:10.00pt"><tspan x="41.0" style="font-family:微软雅黑,PingFang SC,Mircrosoft YaHei,Arial" y="16.3">6</tspan></text><text xml:space="preserve" style="fill:#191919;font-family:微软雅黑,PingFang SC,Mircrosoft YaHei,Arial;font-size:10.00pt"><tspan x="19.0" style="font-family:微软雅黑,PingFang SC,Mircrosoft YaHei,Arial" y="61.3">查询天气</tspan></text></g><g transform="translate(681.902700,605.000000)" id="shape25"><path stroke="#191919" fill="none" d="M.0,.0L-183.9,.0" stroke-width="1"/><path stroke="#191919" fill="#191919" d="M-183.9,3.0L-189.9,.0L-183.9,-3.0L-183.9,3.0" stroke-width="1" stroke-linecap="round"/><rect x="-145.1" width="91.0" y="-9.5" fill="#ffffff" height="19.0"/><text xml:space="preserve" style="fill:#191919;font-family:微软雅黑,PingFang SC,Mircrosoft YaHei,Arial;font-size:10.00pt"><tspan x="-145.1" style="font-family:微软雅黑,PingFang SC,Mircrosoft YaHei,Arial" y="5.5">天气与空气指数</tspan></text></g><g transform="translate(402.000000,374.350394)" id="shape26"><path stroke="#191919" fill="none" d="M.0,.0L-170.0,.0L-170.0,-100.4L-192.0,-100.4" stroke-width="1"/><path stroke="#191919" fill="#191919" d="M-192.0,-97.4L-198.0,-100.4L-192.0,-103.4L-192.0,-97.4" stroke-width="1" stroke-linecap="round"/><rect x="-195.0" width="52.0" y="-59.7" fill="#ffffff" height="19.0"/><text xml:space="preserve" style="fill:#191919;font-family:微软雅黑,PingFang SC,Mircrosoft YaHei,Arial;font-size:10.00pt"><tspan x="-195.0" style="font-family:微软雅黑,PingFang SC,Mircrosoft YaHei,Arial" y="-44.7">答题结果</tspan></text></g><g transform="translate(402.000000,396.850394)" id="shape27"><path stroke="#191919" fill="none" d="M.0,.0L-209.3,.0L-209.3,-95.9" stroke-width="1"/><path stroke="#191919" fill="#191919" d="M-212.3,-95.9L-209.3,-101.9L-206.3,-95.9L-212.3,-95.9" stroke-width="1" stroke-linecap="round"/><rect x="-188.4" width="26.0" y="-9.5" fill="#ffffff" height="19.0"/><text xml:space="preserve" style="fill:#191919;font-family:微软雅黑,PingFang SC,Mircrosoft YaHei,Arial;font-size:10.00pt"><tspan x="-188.4" style="font-family:微软雅黑,PingFang SC,Mircrosoft YaHei,Arial" y="5.5">题目</tspan></text></g><g transform="translate(402.000000,295.000000)" id="shape28"><path stroke="#191919" fill="none" d="M.0,.0L-136.0,.0L-136.0,-31.5L-192.0,-31.5" stroke-width="1"/><path stroke="#191919" fill="#191919" d="M-192.0,-28.5L-198.0,-31.5L-192.0,-34.5L-192.0,-28.5" stroke-width="1" stroke-linecap="round"/><rect x="-120.9" width="52.0" y="-9.5" fill="#ffffff" height="19.0"/><text xml:space="preserve" style="fill:#191919;font-family:微软雅黑,PingFang SC,Mircrosoft YaHei,Arial;font-size:10.00pt"><tspan x="-120.9" style="font-family:微软雅黑,PingFang SC,Mircrosoft YaHei,Arial" y="5.5">事务提醒</tspan></text></g><g transform="translate(631.750000,483.700787)" id="shape29"><path stroke="#000000" fill="#ffffff" fill-rule="nonzero" d="M115.5,.0L.0,.0L.0,30.0L115.5,30.0M28.9,.0L28.9,30.0L.0,30.0L.0,.0L115.5,.0L28.9,.0z" stroke-width="1"/><text xml:space="preserve" style="fill:#191919;font-family:微软雅黑,PingFang SC,Mircrosoft YaHei,Arial;font-size:6.00pt"><tspan x="8.9" style="font-family:微软雅黑,PingFang SC,Mircrosoft YaHei,Arial" y="18.5">D5</tspan></text><text xml:space="preserve" style="fill:#191919;font-family:微软雅黑,PingFang SC,Mircrosoft YaHei,Arial;font-size:8.00pt"><tspan x="55.7" style="font-family:微软雅黑,PingFang SC,Mircrosoft YaHei,Arial" y="19.0">资料库</tspan></text></g><g transform="translate(921.951350,451.500000)" id="shape30"><path stroke="#191919" fill="none" d="M.0,.0L-232.5,.0L-232.5,26.2" stroke-width="1"/><path stroke="#191919" fill="#191919" d="M-229.5,26.2L-232.5,32.2L-235.5,26.2L-229.5,26.2" stroke-width="1" stroke-linecap="round"/><rect x="-103.8" width="26.0" y="-9.5" fill="#ffffff" height="19.0"/><text xml:space="preserve" style="fill:#191919;font-family:微软雅黑,PingFang SC,Mircrosoft YaHei,Arial;font-size:10.00pt"><tspan x="-103.8" style="font-family:微软雅黑,PingFang SC,Mircrosoft YaHei,Arial" y="5.5">资料</tspan></text></g><g transform="translate(631.750000,498.700787)" id="shape31"><path stroke="#191919" fill="none" d="M.0,.0L-133.8,.0" stroke-width="1"/><path stroke="#191919" fill="#191919" d="M-133.8,3.0L-139.8,.0L-133.8,-3.0L-133.8,3.0" stroke-width="1" stroke-linecap="round"/><rect x="-91.3" width="52.0" y="-9.5" fill="#ffffff" height="19.0"/><text xml:space="preserve" style="fill:#191919;font-family:微软雅黑,PingFang SC,Mircrosoft YaHei,Arial;font-size:10.00pt"><tspan x="-91.3" style="font-family:微软雅黑,PingFang SC,Mircrosoft YaHei,Arial" y="5.5">资料详情</tspan></text></g><g transform="translate(402.000000,605.000000)" id="shape32"><path stroke="#191919" fill="none" d="M.0,.0L-319.0,.0L-319.0,-341.5L-249.0,-341.5" stroke-width="1"/><path stroke="#191919" fill="#191919" d="M-249.0,-344.5L-243.0,-341.5L-249.0,-338.5L-249.0,-344.5" stroke-width="1" stroke-linecap="round"/><rect x="-344.0" width="52.0" y="-193.0" fill="#ffffff" height="19.0"/><text xml:space="preserve" style="fill:#191919;font-family:微软雅黑,PingFang SC,Mircrosoft YaHei,Arial;font-size:10.00pt"><tspan x="-344.0" style="font-family:微软雅黑,PingFang SC,Mircrosoft YaHei,Arial" y="-178.0">天气情况</tspan></text></g><g transform="translate(170.250000,253.000000)" id="shape33"><path stroke="#191919" fill="none" d="M.0,.0L.0,-34.0L-125.3,-34.0L-125.3,374.5L225.8,374.5" stroke-width="1"/><path stroke="#191919" fill="#191919" d="M225.8,371.5L231.8,374.5L225.8,377.5L225.8,371.5" stroke-width="1" stroke-linecap="round"/><rect x="11.3" width="78.0" y="365.0" fill="#ffffff" height="19.0"/><text xml:space="preserve" style="fill:#191919;font-family:微软雅黑,PingFang SC,Mircrosoft YaHei,Arial;font-size:10.00pt"><tspan x="11.3" style="font-family:微软雅黑,PingFang SC,Mircrosoft YaHei,Arial" y="380.0">获取天气请求</tspan></text></g></g></svg>